<?xml version="1.0" encoding="UTF-8" standalone="no"?>
<!DOCTYPE svg PUBLIC "-//W3C//DTD SVG 1.1//EN"
 "http://www.w3.org/Graphics/SVG/1.1/DTD/svg11.dtd">
<!-- Generated by graphviz version 2.47.1 (20210515.0534)
 -->
<!-- Title: largeRelationshipsDiagram Pages: 1 -->
<svg width="480pt" height="521pt"
 viewBox="0.00 0.00 480.00 521.00" xmlns="http://www.w3.org/2000/svg" xmlns:xlink="http://www.w3.org/1999/xlink">
<g id="graph0" class="graph" transform="scale(1 1) rotate(0) translate(4 517)">
<title>largeRelationshipsDiagram</title>
<polygon fill="#ffffff" stroke="transparent" points="-4,4 -4,-517 476,-517 476,4 -4,4"/>
<text text-anchor="middle" x="73.5" y="-7.2" font-family="Helvetica,sans-Serif" font-size="11.00">Generated by SchemaSpy</text>
<!-- reviews -->
<g id="node1" class="node">
<title>reviews</title>
<g id="a_node1"><a xlink:href="../../tables/reviews.html" xlink:title="reviews" target="_top">
<polygon fill="#ffffff" stroke="transparent" points="374,-298 374,-492 464,-492 464,-298 374,-298"/>
<polygon fill="#f5f5f5" stroke="transparent" points="374,-470 374,-492 464,-492 464,-470 374,-470"/>
<polygon fill="none" stroke="black" points="374,-470 374,-492 464,-492 464,-470 374,-470"/>
<text text-anchor="start" x="378.5" y="-479.2" font-family="Helvetica,sans-Serif" font-weight="bold" font-size="11.00">reviews</text>
<text text-anchor="start" x="425" y="-478.2" font-family="Helvetica,sans-Serif" font-size="11.00">[table]</text>
<polygon fill="none" stroke="black" points="374,-448 374,-470 464,-470 464,-448 374,-448"/>
<image xlink:href="../../images/primaryKeys.png" width="11px" height="12px" preserveAspectRatio="xMinYMin meet" x="379" y="-465"/>
<text text-anchor="start" x="395" y="-456.2" font-family="Helvetica,sans-Serif" font-size="11.00">id</text>
<polygon fill="none" stroke="black" points="374,-426 374,-448 464,-448 464,-426 374,-426"/>
<text text-anchor="start" x="395" y="-434.2" font-family="Helvetica,sans-Serif" font-size="11.00">rating</text>
<polygon fill="none" stroke="black" points="374,-404 374,-426 464,-426 464,-404 374,-404"/>
<text text-anchor="start" x="395" y="-412.2" font-family="Helvetica,sans-Serif" font-size="11.00">comment</text>
<polygon fill="#ffffff" stroke="transparent" points="374,-382 374,-404 464,-404 464,-382 374,-382"/>
<polygon fill="none" stroke="black" points="374,-382 374,-404 464,-404 464,-382 374,-382"/>
<image xlink:href="../../images/foreignKeys.png" width="11px" height="12px" preserveAspectRatio="xMinYMin meet" x="379" y="-399"/>
<text text-anchor="start" x="395" y="-390.2" font-family="Helvetica,sans-Serif" font-size="11.00">catalog_id</text>
<polygon fill="none" stroke="black" points="374,-360 374,-382 464,-382 464,-360 374,-360"/>
<text text-anchor="start" x="395" y="-368.2" font-family="Helvetica,sans-Serif" font-size="11.00">created_at</text>
<polygon fill="none" stroke="black" points="374,-338 374,-360 464,-360 464,-338 374,-338"/>
<text text-anchor="start" x="395" y="-346.2" font-family="Helvetica,sans-Serif" font-size="11.00">updated_at</text>
<polygon fill="#ffffff" stroke="transparent" points="374,-316 374,-338 464,-338 464,-316 374,-316"/>
<polygon fill="none" stroke="black" points="374,-316 374,-338 464,-338 464,-316 374,-316"/>
<image xlink:href="../../images/foreignKeys.png" width="11px" height="12px" preserveAspectRatio="xMinYMin meet" x="379" y="-333"/>
<text text-anchor="start" x="395" y="-324.2" font-family="Helvetica,sans-Serif" font-size="11.00">user_id</text>
<polygon fill="#ffffff" stroke="transparent" points="374,-298 374,-316 417,-316 417,-298 374,-298"/>
<polygon fill="none" stroke="black" points="374,-298 374,-316 417,-316 417,-298 374,-298"/>
<text text-anchor="start" x="377" y="-304.2" font-family="Helvetica,sans-Serif" font-size="11.00">&lt; 2</text>
<polygon fill="#ffffff" stroke="transparent" points="417,-298 417,-316 440,-316 440,-298 417,-298"/>
<polygon fill="none" stroke="black" points="417,-298 417,-316 440,-316 440,-298 417,-298"/>
<text text-anchor="start" x="430" y="-304.2" font-family="Helvetica,sans-Serif" font-size="11.00"> &#160;</text>
<polygon fill="#ffffff" stroke="transparent" points="440,-298 440,-316 464,-316 464,-298 440,-298"/>
<polygon fill="none" stroke="black" points="440,-298 440,-316 464,-316 464,-298 440,-298"/>
<text text-anchor="start" x="454" y="-304.2" font-family="Helvetica,sans-Serif" font-size="11.00"> &#160;</text>
</a>
</g>
</g>
<!-- catalogs -->
<g id="node2" class="node">
<title>catalogs</title>
<g id="a_node2"><a xlink:href="../../tables/catalogs.html" xlink:title="catalogs" target="_top">
<polygon fill="#ffffff" stroke="transparent" points="197.5,-318 197.5,-490 290.5,-490 290.5,-318 197.5,-318"/>
<polygon fill="#f5f5f5" stroke="transparent" points="198,-468 198,-490 291,-490 291,-468 198,-468"/>
<polygon fill="none" stroke="black" points="198,-468 198,-490 291,-490 291,-468 198,-468"/>
<text text-anchor="start" x="202.5" y="-477.2" font-family="Helvetica,sans-Serif" font-weight="bold" font-size="11.00">catalogs</text>
<text text-anchor="start" x="252" y="-476.2" font-family="Helvetica,sans-Serif" font-size="11.00">[table]</text>
<polygon fill="none" stroke="black" points="198,-446 198,-468 291,-468 291,-446 198,-446"/>
<image xlink:href="../../images/primaryKeys.png" width="11px" height="12px" preserveAspectRatio="xMinYMin meet" x="203" y="-463"/>
<text text-anchor="start" x="220" y="-454.2" font-family="Helvetica,sans-Serif" font-size="11.00">id</text>
<polygon fill="none" stroke="black" points="198,-424 198,-446 291,-446 291,-424 198,-424"/>
<text text-anchor="start" x="220" y="-432.2" font-family="Helvetica,sans-Serif" font-size="11.00">title</text>
<polygon fill="#ffffff" stroke="transparent" points="198,-402 198,-424 291,-424 291,-402 198,-402"/>
<polygon fill="none" stroke="black" points="198,-402 198,-424 291,-424 291,-402 198,-402"/>
<image xlink:href="../../images/foreignKeys.png" width="11px" height="12px" preserveAspectRatio="xMinYMin meet" x="203" y="-419"/>
<text text-anchor="start" x="220" y="-410.2" font-family="Helvetica,sans-Serif" font-size="11.00">category_id</text>
<polygon fill="#ffffff" stroke="transparent" points="198,-380 198,-402 291,-402 291,-380 198,-380"/>
<polygon fill="none" stroke="black" points="198,-380 198,-402 291,-402 291,-380 198,-380"/>
<image xlink:href="../../images/foreignKeys.png" width="11px" height="12px" preserveAspectRatio="xMinYMin meet" x="203" y="-397"/>
<text text-anchor="start" x="220" y="-388.2" font-family="Helvetica,sans-Serif" font-size="11.00">genre_id</text>
<polygon fill="none" stroke="black" points="198,-358 198,-380 291,-380 291,-358 198,-358"/>
<text text-anchor="start" x="220" y="-366.2" font-family="Helvetica,sans-Serif" font-size="11.00">created_at</text>
<polygon fill="none" stroke="black" points="198,-336 198,-358 291,-358 291,-336 198,-336"/>
<text text-anchor="start" x="220" y="-344.2" font-family="Helvetica,sans-Serif" font-size="11.00">updated_at</text>
<polygon fill="#ffffff" stroke="transparent" points="198,-318 198,-336 238,-336 238,-318 198,-318"/>
<polygon fill="none" stroke="black" points="198,-318 198,-336 238,-336 238,-318 198,-318"/>
<text text-anchor="start" x="201" y="-324.2" font-family="Helvetica,sans-Serif" font-size="11.00">&lt; 2</text>
<polygon fill="#ffffff" stroke="transparent" points="238,-318 238,-336 260,-336 260,-318 238,-318"/>
<polygon fill="none" stroke="black" points="238,-318 238,-336 260,-336 260,-318 238,-318"/>
<text text-anchor="start" x="250" y="-324.2" font-family="Helvetica,sans-Serif" font-size="11.00"> &#160;</text>
<polygon fill="#ffffff" stroke="transparent" points="260,-318 260,-336 291,-336 291,-318 260,-318"/>
<polygon fill="none" stroke="black" points="260,-318 260,-336 291,-336 291,-318 260,-318"/>
<text text-anchor="start" x="272" y="-324.2" font-family="Helvetica,sans-Serif" font-size="11.00">1 &gt;</text>
</a>
</g>
</g>
<!-- reviews&#45;&gt;catalogs -->
<g id="edge3" class="edge">
<title>reviews:w&#45;&gt;catalogs:e</title>
<path fill="none" stroke="black" d="M358.62,-395.59C328.89,-407.56 332.33,-457 292,-457"/>
<polygon fill="black" stroke="black" points="365.13,-394.42 373.64,-396.54 369.06,-393.71 373,-393 373,-393 373,-393 369.06,-393.71 372.36,-389.46 365.13,-394.42 365.13,-394.42"/>
<ellipse fill="none" stroke="black" cx="361.98" cy="-394.98" rx="3.2" ry="3.2"/>
</g>
<!-- users -->
<g id="node4" class="node">
<title>users</title>
<g id="a_node4"><a xlink:href="../../tables/users.html" xlink:title="users" target="_top">
<polygon fill="#ffffff" stroke="transparent" points="163,-37 163,-297 325,-297 325,-37 163,-37"/>
<polygon fill="#f5f5f5" stroke="transparent" points="163,-275 163,-297 325,-297 325,-275 163,-275"/>
<polygon fill="none" stroke="black" points="163,-275 163,-297 325,-297 325,-275 163,-275"/>
<text text-anchor="start" x="166.5" y="-284.2" font-family="Helvetica,sans-Serif" font-weight="bold" font-size="11.00">users</text>
<text text-anchor="start" x="286" y="-283.2" font-family="Helvetica,sans-Serif" font-size="11.00">[table]</text>
<polygon fill="none" stroke="black" points="163,-253 163,-275 325,-275 325,-253 163,-253"/>
<image xlink:href="../../images/primaryKeys.png" width="11px" height="12px" preserveAspectRatio="xMinYMin meet" x="168" y="-270"/>
<text text-anchor="start" x="183" y="-261.2" font-family="Helvetica,sans-Serif" font-size="11.00">id</text>
<polygon fill="#ffffff" stroke="transparent" points="163,-231 163,-253 325,-253 325,-231 163,-231"/>
<polygon fill="none" stroke="black" points="163,-231 163,-253 325,-253 325,-231 163,-231"/>
<text text-anchor="start" x="183" y="-239.2" font-family="Helvetica,sans-Serif" font-size="11.00">email</text>
<polygon fill="none" stroke="black" points="163,-209 163,-231 325,-231 325,-209 163,-209"/>
<text text-anchor="start" x="183" y="-217.2" font-family="Helvetica,sans-Serif" font-size="11.00">encrypted_password</text>
<polygon fill="#ffffff" stroke="transparent" points="163,-187 163,-209 325,-209 325,-187 163,-187"/>
<polygon fill="none" stroke="black" points="163,-187 163,-209 325,-209 325,-187 163,-187"/>
<text text-anchor="start" x="183" y="-195.2" font-family="Helvetica,sans-Serif" font-size="11.00">reset_password_token</text>
<polygon fill="none" stroke="black" points="163,-165 163,-187 325,-187 325,-165 163,-165"/>
<text text-anchor="start" x="183" y="-173.2" font-family="Helvetica,sans-Serif" font-size="11.00">reset_password_sent_at</text>
<polygon fill="none" stroke="black" points="163,-143 163,-165 325,-165 325,-143 163,-143"/>
<text text-anchor="start" x="183" y="-151.2" font-family="Helvetica,sans-Serif" font-size="11.00">remember_created_at</text>
<polygon fill="none" stroke="black" points="163,-121 163,-143 325,-143 325,-121 163,-121"/>
<text text-anchor="start" x="183" y="-129.2" font-family="Helvetica,sans-Serif" font-size="11.00">created_at</text>
<polygon fill="none" stroke="black" points="163,-99 163,-121 325,-121 325,-99 163,-99"/>
<text text-anchor="start" x="183" y="-107.2" font-family="Helvetica,sans-Serif" font-size="11.00">updated_at</text>
<polygon fill="none" stroke="black" points="163,-77 163,-99 325,-99 325,-77 163,-77"/>
<text text-anchor="start" x="183" y="-85.2" font-family="Helvetica,sans-Serif" font-size="11.00">name</text>
<polygon fill="#ffffff" stroke="transparent" points="163,-55 163,-77 325,-77 325,-55 163,-55"/>
<polygon fill="none" stroke="black" points="163,-55 163,-77 325,-77 325,-55 163,-55"/>
<text text-anchor="start" x="183" y="-63.2" font-family="Helvetica,sans-Serif" font-size="11.00">jti</text>
<polygon fill="#ffffff" stroke="transparent" points="163,-37 163,-55 233,-55 233,-37 163,-37"/>
<polygon fill="none" stroke="black" points="163,-37 163,-55 233,-55 233,-37 163,-37"/>
<text text-anchor="start" x="166" y="-43.2" font-family="Helvetica,sans-Serif" font-size="11.00"> &#160;</text>
<polygon fill="#ffffff" stroke="transparent" points="233,-37 233,-55 274,-55 274,-37 233,-37"/>
<polygon fill="none" stroke="black" points="233,-37 233,-55 274,-55 274,-37 233,-37"/>
<text text-anchor="start" x="264" y="-43.2" font-family="Helvetica,sans-Serif" font-size="11.00"> &#160;</text>
<polygon fill="#ffffff" stroke="transparent" points="274,-37 274,-55 325,-55 325,-37 274,-37"/>
<polygon fill="none" stroke="black" points="274,-37 274,-55 325,-55 325,-37 274,-37"/>
<text text-anchor="start" x="306" y="-43.2" font-family="Helvetica,sans-Serif" font-size="11.00">1 &gt;</text>
</a>
</g>
</g>
<!-- reviews&#45;&gt;users -->
<g id="edge4" class="edge">
<title>reviews:w&#45;&gt;users:e</title>
<path fill="none" stroke="black" d="M359.1,-321.63C344.42,-306.39 354.66,-264 326,-264"/>
<polygon fill="black" stroke="black" points="365.54,-324.12 371.7,-330.36 369.27,-325.56 373,-327 373,-327 373,-327 369.27,-325.56 374.3,-323.64 365.54,-324.12 365.54,-324.12"/>
<ellipse fill="none" stroke="black" cx="362.55" cy="-322.96" rx="3.2" ry="3.2"/>
</g>
<!-- genres -->
<g id="node3" class="node">
<title>genres</title>
<g id="a_node3"><a xlink:href="../../tables/genres.html" xlink:title="genres" target="_top">
<polygon fill="#ffffff" stroke="transparent" points="17,-232 17,-360 105,-360 105,-232 17,-232"/>
<polygon fill="#f5f5f5" stroke="transparent" points="17,-338 17,-360 105,-360 105,-338 17,-338"/>
<polygon fill="none" stroke="black" points="17,-338 17,-360 105,-360 105,-338 17,-338"/>
<text text-anchor="start" x="21" y="-347.2" font-family="Helvetica,sans-Serif" font-weight="bold" font-size="11.00">genres</text>
<text text-anchor="start" x="66" y="-346.2" font-family="Helvetica,sans-Serif" font-size="11.00">[table]</text>
<polygon fill="none" stroke="black" points="17,-316 17,-338 105,-338 105,-316 17,-316"/>
<image xlink:href="../../images/primaryKeys.png" width="11px" height="12px" preserveAspectRatio="xMinYMin meet" x="22" y="-333"/>
<text text-anchor="start" x="37" y="-324.2" font-family="Helvetica,sans-Serif" font-size="11.00">id</text>
<polygon fill="none" stroke="black" points="17,-294 17,-316 105,-316 105,-294 17,-294"/>
<text text-anchor="start" x="37" y="-302.2" font-family="Helvetica,sans-Serif" font-size="11.00">kind</text>
<polygon fill="none" stroke="black" points="17,-272 17,-294 105,-294 105,-272 17,-272"/>
<text text-anchor="start" x="37" y="-280.2" font-family="Helvetica,sans-Serif" font-size="11.00">created_at</text>
<polygon fill="none" stroke="black" points="17,-250 17,-272 105,-272 105,-250 17,-250"/>
<text text-anchor="start" x="37" y="-258.2" font-family="Helvetica,sans-Serif" font-size="11.00">updated_at</text>
<polygon fill="#ffffff" stroke="transparent" points="17,-232 17,-250 50,-250 50,-232 17,-232"/>
<polygon fill="none" stroke="black" points="17,-232 17,-250 50,-250 50,-232 17,-232"/>
<text text-anchor="start" x="20" y="-238.2" font-family="Helvetica,sans-Serif" font-size="11.00"> &#160;</text>
<polygon fill="#ffffff" stroke="transparent" points="50,-232 50,-250 73,-250 73,-232 50,-232"/>
<polygon fill="none" stroke="black" points="50,-232 50,-250 73,-250 73,-232 50,-232"/>
<text text-anchor="start" x="63" y="-238.2" font-family="Helvetica,sans-Serif" font-size="11.00"> &#160;</text>
<polygon fill="#ffffff" stroke="transparent" points="73,-232 73,-250 105,-250 105,-232 73,-232"/>
<polygon fill="none" stroke="black" points="73,-232 73,-250 105,-250 105,-232 73,-232"/>
<text text-anchor="start" x="86" y="-238.2" font-family="Helvetica,sans-Serif" font-size="11.00">1 &gt;</text>
</a>
</g>
</g>
<!-- catalogs&#45;&gt;genres -->
<g id="edge2" class="edge">
<title>catalogs:w&#45;&gt;genres:e</title>
<path fill="none" stroke="black" d="M182.68,-388.87C148.59,-377.77 150.04,-327 106,-327"/>
<polygon fill="black" stroke="black" points="189.09,-389.82 196.47,-394.56 193.04,-390.41 197,-391 197,-391 197,-391 193.04,-390.41 197.53,-387.44 189.09,-389.82 189.09,-389.82"/>
<ellipse fill="none" stroke="black" cx="185.92" cy="-389.35" rx="3.2" ry="3.2"/>
</g>
<!-- categories -->
<g id="node5" class="node">
<title>categories</title>
<g id="a_node5"><a xlink:href="../../tables/categories.html" xlink:title="categories" target="_top">
<polygon fill="#ffffff" stroke="transparent" points="8,-381 8,-509 114,-509 114,-381 8,-381"/>
<polygon fill="#f5f5f5" stroke="transparent" points="8,-487 8,-509 114,-509 114,-487 8,-487"/>
<polygon fill="none" stroke="black" points="8,-487 8,-509 114,-509 114,-487 8,-487"/>
<text text-anchor="start" x="13" y="-496.2" font-family="Helvetica,sans-Serif" font-weight="bold" font-size="11.00">categories</text>
<text text-anchor="start" x="75" y="-495.2" font-family="Helvetica,sans-Serif" font-size="11.00">[table]</text>
<polygon fill="none" stroke="black" points="8,-465 8,-487 114,-487 114,-465 8,-465"/>
<image xlink:href="../../images/primaryKeys.png" width="11px" height="12px" preserveAspectRatio="xMinYMin meet" x="13" y="-482"/>
<text text-anchor="start" x="37" y="-473.2" font-family="Helvetica,sans-Serif" font-size="11.00">id</text>
<polygon fill="none" stroke="black" points="8,-443 8,-465 114,-465 114,-443 8,-443"/>
<text text-anchor="start" x="37" y="-451.2" font-family="Helvetica,sans-Serif" font-size="11.00">kind</text>
<polygon fill="none" stroke="black" points="8,-421 8,-443 114,-443 114,-421 8,-421"/>
<text text-anchor="start" x="37" y="-429.2" font-family="Helvetica,sans-Serif" font-size="11.00">created_at</text>
<polygon fill="none" stroke="black" points="8,-399 8,-421 114,-421 114,-399 8,-399"/>
<text text-anchor="start" x="37" y="-407.2" font-family="Helvetica,sans-Serif" font-size="11.00">updated_at</text>
<polygon fill="#ffffff" stroke="transparent" points="8,-381 8,-399 50,-399 50,-381 8,-381"/>
<polygon fill="none" stroke="black" points="8,-381 8,-399 50,-399 50,-381 8,-381"/>
<text text-anchor="start" x="11" y="-387.2" font-family="Helvetica,sans-Serif" font-size="11.00"> &#160;</text>
<polygon fill="#ffffff" stroke="transparent" points="50,-381 50,-399 77,-399 77,-381 50,-381"/>
<polygon fill="none" stroke="black" points="50,-381 50,-399 77,-399 77,-381 50,-381"/>
<text text-anchor="start" x="67" y="-387.2" font-family="Helvetica,sans-Serif" font-size="11.00"> &#160;</text>
<polygon fill="#ffffff" stroke="transparent" points="77,-381 77,-399 114,-399 114,-381 77,-381"/>
<polygon fill="none" stroke="black" points="77,-381 77,-399 114,-399 114,-381 77,-381"/>
<text text-anchor="start" x="95" y="-387.2" font-family="Helvetica,sans-Serif" font-size="11.00">1 &gt;</text>
</a>
</g>
</g>
<!-- catalogs&#45;&gt;categories -->
<g id="edge1" class="edge">
<title>catalogs:w&#45;&gt;categories:e</title>
<path fill="none" stroke="black" d="M182.56,-415.55C152.62,-427.33 155.39,-476 115,-476"/>
<polygon fill="black" stroke="black" points="189.12,-414.39 197.63,-416.55 193.06,-413.7 197,-413 197,-413 197,-413 193.06,-413.7 196.37,-409.45 189.12,-414.39 189.12,-414.39"/>
<ellipse fill="none" stroke="black" cx="185.97" cy="-414.95" rx="3.2" ry="3.2"/>
</g>
</g>
</svg>
