<?xml version="1.0" encoding="UTF-8" standalone="no"?>
<!DOCTYPE svg PUBLIC "-//W3C//DTD SVG 1.1//EN"
 "http://www.w3.org/Graphics/SVG/1.1/DTD/svg11.dtd">
<!-- Generated by graphviz version 2.47.1 (20210515.0534)
 -->
<!-- Title: compactRelationshipsDiagram Pages: 1 -->
<svg width="480pt" height="357pt"
 viewBox="0.00 0.00 480.00 357.00" xmlns="http://www.w3.org/2000/svg" xmlns:xlink="http://www.w3.org/1999/xlink">
<g id="graph0" class="graph" transform="scale(1 1) rotate(0) translate(4 353)">
<title>compactRelationshipsDiagram</title>
<polygon fill="#ffffff" stroke="transparent" points="-4,4 -4,-353 476,-353 476,4 -4,4"/>
<text text-anchor="middle" x="73.5" y="-7.2" font-family="Helvetica,sans-Serif" font-size="11.00">Generated by SchemaSpy</text>
<!-- reviews -->
<g id="node1" class="node">
<title>reviews</title>
<g id="a_node1"><a xlink:href="../../tables/reviews.html" xlink:title="reviews" target="_top">
<polygon fill="#ffffff" stroke="transparent" points="374,-164 374,-288 464,-288 464,-164 374,-164"/>
<polygon fill="#f5f5f5" stroke="transparent" points="374,-266 374,-288 464,-288 464,-266 374,-266"/>
<polygon fill="none" stroke="black" points="374,-266 374,-288 464,-288 464,-266 374,-266"/>
<text text-anchor="start" x="378.5" y="-275.2" font-family="Helvetica,sans-Serif" font-weight="bold" font-size="11.00">reviews</text>
<text text-anchor="start" x="425" y="-274.2" font-family="Helvetica,sans-Serif" font-size="11.00">[table]</text>
<polygon fill="none" stroke="black" points="374,-244 374,-266 464,-266 464,-244 374,-244"/>
<image xlink:href="../../images/primaryKeys.png" width="11px" height="12px" preserveAspectRatio="xMinYMin meet" x="379" y="-261"/>
<text text-anchor="start" x="395" y="-252.2" font-family="Helvetica,sans-Serif" font-size="11.00">id</text>
<polygon fill="#ffffff" stroke="transparent" points="374,-222 374,-244 464,-244 464,-222 374,-222"/>
<polygon fill="none" stroke="black" points="374,-222 374,-244 464,-244 464,-222 374,-222"/>
<image xlink:href="../../images/foreignKeys.png" width="11px" height="12px" preserveAspectRatio="xMinYMin meet" x="379" y="-239"/>
<text text-anchor="start" x="395" y="-230.2" font-family="Helvetica,sans-Serif" font-size="11.00">catalog_id</text>
<polygon fill="#ffffff" stroke="transparent" points="374,-200 374,-222 464,-222 464,-200 374,-200"/>
<polygon fill="none" stroke="black" points="374,-200 374,-222 464,-222 464,-200 374,-200"/>
<image xlink:href="../../images/foreignKeys.png" width="11px" height="12px" preserveAspectRatio="xMinYMin meet" x="379" y="-217"/>
<text text-anchor="start" x="395" y="-208.2" font-family="Helvetica,sans-Serif" font-size="11.00">user_id</text>
<polygon fill="none" stroke="black" points="374,-182 374,-200 464,-200 464,-182 374,-182"/>
<text text-anchor="start" x="377" y="-188.2" font-family="Helvetica,sans-Serif" font-size="11.00">...</text>
<polygon fill="#ffffff" stroke="transparent" points="374,-164 374,-182 417,-182 417,-164 374,-164"/>
<polygon fill="none" stroke="black" points="374,-164 374,-182 417,-182 417,-164 374,-164"/>
<text text-anchor="start" x="377" y="-170.2" font-family="Helvetica,sans-Serif" font-size="11.00">&lt; 2</text>
<polygon fill="#ffffff" stroke="transparent" points="417,-164 417,-182 440,-182 440,-164 417,-164"/>
<polygon fill="none" stroke="black" points="417,-164 417,-182 440,-182 440,-164 417,-164"/>
<text text-anchor="start" x="430" y="-170.2" font-family="Helvetica,sans-Serif" font-size="11.00"> &#160;</text>
<polygon fill="#ffffff" stroke="transparent" points="440,-164 440,-182 464,-182 464,-164 440,-164"/>
<polygon fill="none" stroke="black" points="440,-164 440,-182 464,-182 464,-164 440,-164"/>
<text text-anchor="start" x="454" y="-170.2" font-family="Helvetica,sans-Serif" font-size="11.00"> &#160;</text>
</a>
</g>
</g>
<!-- catalogs -->
<g id="node2" class="node">
<title>catalogs</title>
<g id="a_node2"><a xlink:href="../../tables/catalogs.html" xlink:title="catalogs" target="_top">
<polygon fill="#ffffff" stroke="transparent" points="197.5,-204 197.5,-328 290.5,-328 290.5,-204 197.5,-204"/>
<polygon fill="#f5f5f5" stroke="transparent" points="198,-306 198,-328 291,-328 291,-306 198,-306"/>
<polygon fill="none" stroke="black" points="198,-306 198,-328 291,-328 291,-306 198,-306"/>
<text text-anchor="start" x="202.5" y="-315.2" font-family="Helvetica,sans-Serif" font-weight="bold" font-size="11.00">catalogs</text>
<text text-anchor="start" x="252" y="-314.2" font-family="Helvetica,sans-Serif" font-size="11.00">[table]</text>
<polygon fill="none" stroke="black" points="198,-284 198,-306 291,-306 291,-284 198,-284"/>
<image xlink:href="../../images/primaryKeys.png" width="11px" height="12px" preserveAspectRatio="xMinYMin meet" x="203" y="-301"/>
<text text-anchor="start" x="220" y="-292.2" font-family="Helvetica,sans-Serif" font-size="11.00">id</text>
<polygon fill="#ffffff" stroke="transparent" points="198,-262 198,-284 291,-284 291,-262 198,-262"/>
<polygon fill="none" stroke="black" points="198,-262 198,-284 291,-284 291,-262 198,-262"/>
<image xlink:href="../../images/foreignKeys.png" width="11px" height="12px" preserveAspectRatio="xMinYMin meet" x="203" y="-279"/>
<text text-anchor="start" x="220" y="-270.2" font-family="Helvetica,sans-Serif" font-size="11.00">category_id</text>
<polygon fill="#ffffff" stroke="transparent" points="198,-240 198,-262 291,-262 291,-240 198,-240"/>
<polygon fill="none" stroke="black" points="198,-240 198,-262 291,-262 291,-240 198,-240"/>
<image xlink:href="../../images/foreignKeys.png" width="11px" height="12px" preserveAspectRatio="xMinYMin meet" x="203" y="-257"/>
<text text-anchor="start" x="220" y="-248.2" font-family="Helvetica,sans-Serif" font-size="11.00">genre_id</text>
<polygon fill="none" stroke="black" points="198,-222 198,-240 291,-240 291,-222 198,-222"/>
<text text-anchor="start" x="201" y="-228.2" font-family="Helvetica,sans-Serif" font-size="11.00">...</text>
<polygon fill="#ffffff" stroke="transparent" points="198,-204 198,-222 238,-222 238,-204 198,-204"/>
<polygon fill="none" stroke="black" points="198,-204 198,-222 238,-222 238,-204 198,-204"/>
<text text-anchor="start" x="201" y="-210.2" font-family="Helvetica,sans-Serif" font-size="11.00">&lt; 2</text>
<polygon fill="#ffffff" stroke="transparent" points="238,-204 238,-222 260,-222 260,-204 238,-204"/>
<polygon fill="none" stroke="black" points="238,-204 238,-222 260,-222 260,-204 238,-204"/>
<text text-anchor="start" x="250" y="-210.2" font-family="Helvetica,sans-Serif" font-size="11.00"> &#160;</text>
<polygon fill="#ffffff" stroke="transparent" points="260,-204 260,-222 291,-222 291,-204 260,-204"/>
<polygon fill="none" stroke="black" points="260,-204 260,-222 291,-222 291,-204 260,-204"/>
<text text-anchor="start" x="272" y="-210.2" font-family="Helvetica,sans-Serif" font-size="11.00">1 &gt;</text>
</a>
</g>
</g>
<!-- reviews&#45;&gt;catalogs -->
<g id="edge3" class="edge">
<title>reviews:w&#45;&gt;catalogs:e</title>
<path fill="none" stroke="black" d="M358.75,-235.51C329.2,-247.11 331.85,-295 292,-295"/>
<polygon fill="black" stroke="black" points="365.12,-234.39 373.62,-236.55 369.06,-233.69 373,-233 373,-233 373,-233 369.06,-233.69 372.38,-229.45 365.12,-234.39 365.12,-234.39"/>
<ellipse fill="none" stroke="black" cx="361.97" cy="-234.94" rx="3.2" ry="3.2"/>
</g>
<!-- users -->
<g id="node4" class="node">
<title>users</title>
<g id="a_node4"><a xlink:href="../../tables/users.html" xlink:title="users" target="_top">
<polygon fill="#ffffff" stroke="transparent" points="163,-37 163,-183 325,-183 325,-37 163,-37"/>
<polygon fill="#f5f5f5" stroke="transparent" points="163,-161 163,-183 325,-183 325,-161 163,-161"/>
<polygon fill="none" stroke="black" points="163,-161 163,-183 325,-183 325,-161 163,-161"/>
<text text-anchor="start" x="166.5" y="-170.2" font-family="Helvetica,sans-Serif" font-weight="bold" font-size="11.00">users</text>
<text text-anchor="start" x="286" y="-169.2" font-family="Helvetica,sans-Serif" font-size="11.00">[table]</text>
<polygon fill="none" stroke="black" points="163,-139 163,-161 325,-161 325,-139 163,-139"/>
<image xlink:href="../../images/primaryKeys.png" width="11px" height="12px" preserveAspectRatio="xMinYMin meet" x="168" y="-156"/>
<text text-anchor="start" x="183" y="-147.2" font-family="Helvetica,sans-Serif" font-size="11.00">id</text>
<polygon fill="#ffffff" stroke="transparent" points="163,-117 163,-139 325,-139 325,-117 163,-117"/>
<polygon fill="none" stroke="black" points="163,-117 163,-139 325,-139 325,-117 163,-117"/>
<text text-anchor="start" x="183" y="-125.2" font-family="Helvetica,sans-Serif" font-size="11.00">email</text>
<polygon fill="#ffffff" stroke="transparent" points="163,-95 163,-117 325,-117 325,-95 163,-95"/>
<polygon fill="none" stroke="black" points="163,-95 163,-117 325,-117 325,-95 163,-95"/>
<text text-anchor="start" x="183" y="-103.2" font-family="Helvetica,sans-Serif" font-size="11.00">reset_password_token</text>
<polygon fill="#ffffff" stroke="transparent" points="163,-73 163,-95 325,-95 325,-73 163,-73"/>
<polygon fill="none" stroke="black" points="163,-73 163,-95 325,-95 325,-73 163,-73"/>
<text text-anchor="start" x="183" y="-81.2" font-family="Helvetica,sans-Serif" font-size="11.00">jti</text>
<polygon fill="none" stroke="black" points="163,-55 163,-73 325,-73 325,-55 163,-55"/>
<text text-anchor="start" x="166" y="-61.2" font-family="Helvetica,sans-Serif" font-size="11.00">...</text>
<polygon fill="#ffffff" stroke="transparent" points="163,-37 163,-55 233,-55 233,-37 163,-37"/>
<polygon fill="none" stroke="black" points="163,-37 163,-55 233,-55 233,-37 163,-37"/>
<text text-anchor="start" x="166" y="-43.2" font-family="Helvetica,sans-Serif" font-size="11.00"> &#160;</text>
<polygon fill="#ffffff" stroke="transparent" points="233,-37 233,-55 274,-55 274,-37 233,-37"/>
<polygon fill="none" stroke="black" points="233,-37 233,-55 274,-55 274,-37 233,-37"/>
<text text-anchor="start" x="264" y="-43.2" font-family="Helvetica,sans-Serif" font-size="11.00"> &#160;</text>
<polygon fill="#ffffff" stroke="transparent" points="274,-37 274,-55 325,-55 325,-37 274,-37"/>
<polygon fill="none" stroke="black" points="274,-37 274,-55 325,-55 325,-37 274,-37"/>
<text text-anchor="start" x="306" y="-43.2" font-family="Helvetica,sans-Serif" font-size="11.00">1 &gt;</text>
</a>
</g>
</g>
<!-- reviews&#45;&gt;users -->
<g id="edge4" class="edge">
<title>reviews:w&#45;&gt;users:e</title>
<path fill="none" stroke="black" d="M359.3,-205.8C344.69,-191.05 354.08,-150 326,-150"/>
<polygon fill="black" stroke="black" points="365.52,-208.16 371.72,-214.37 369.26,-209.58 373,-211 373,-211 373,-211 369.26,-209.58 374.28,-207.63 365.52,-208.16 365.52,-208.16"/>
<ellipse fill="none" stroke="black" cx="362.53" cy="-207.03" rx="3.2" ry="3.2"/>
</g>
<!-- genres -->
<g id="node3" class="node">
<title>genres</title>
<g id="a_node3"><a xlink:href="../../tables/genres.html" xlink:title="genres" target="_top">
<polygon fill="#ffffff" stroke="transparent" points="17,-164 17,-244 105,-244 105,-164 17,-164"/>
<polygon fill="#f5f5f5" stroke="transparent" points="17,-222 17,-244 105,-244 105,-222 17,-222"/>
<polygon fill="none" stroke="black" points="17,-222 17,-244 105,-244 105,-222 17,-222"/>
<text text-anchor="start" x="21" y="-231.2" font-family="Helvetica,sans-Serif" font-weight="bold" font-size="11.00">genres</text>
<text text-anchor="start" x="66" y="-230.2" font-family="Helvetica,sans-Serif" font-size="11.00">[table]</text>
<polygon fill="none" stroke="black" points="17,-200 17,-222 105,-222 105,-200 17,-200"/>
<image xlink:href="../../images/primaryKeys.png" width="11px" height="12px" preserveAspectRatio="xMinYMin meet" x="22" y="-217"/>
<text text-anchor="start" x="37" y="-208.2" font-family="Helvetica,sans-Serif" font-size="11.00">id</text>
<polygon fill="none" stroke="black" points="17,-182 17,-200 105,-200 105,-182 17,-182"/>
<text text-anchor="start" x="20" y="-188.2" font-family="Helvetica,sans-Serif" font-size="11.00">...</text>
<polygon fill="#ffffff" stroke="transparent" points="17,-164 17,-182 50,-182 50,-164 17,-164"/>
<polygon fill="none" stroke="black" points="17,-164 17,-182 50,-182 50,-164 17,-164"/>
<text text-anchor="start" x="20" y="-170.2" font-family="Helvetica,sans-Serif" font-size="11.00"> &#160;</text>
<polygon fill="#ffffff" stroke="transparent" points="50,-164 50,-182 73,-182 73,-164 50,-164"/>
<polygon fill="none" stroke="black" points="50,-164 50,-182 73,-182 73,-164 50,-164"/>
<text text-anchor="start" x="63" y="-170.2" font-family="Helvetica,sans-Serif" font-size="11.00"> &#160;</text>
<polygon fill="#ffffff" stroke="transparent" points="73,-164 73,-182 105,-182 105,-164 73,-164"/>
<polygon fill="none" stroke="black" points="73,-164 73,-182 105,-182 105,-164 73,-164"/>
<text text-anchor="start" x="86" y="-170.2" font-family="Helvetica,sans-Serif" font-size="11.00">1 &gt;</text>
</a>
</g>
</g>
<!-- catalogs&#45;&gt;genres -->
<g id="edge2" class="edge">
<title>catalogs:w&#45;&gt;genres:e</title>
<path fill="none" stroke="black" d="M182.63,-249.38C151.57,-241.9 144.83,-211 106,-211"/>
<polygon fill="black" stroke="black" points="189.05,-250.11 196.6,-254.58 193.03,-250.55 197,-251 197,-251 197,-251 193.03,-250.55 197.4,-247.42 189.05,-250.11 189.05,-250.11"/>
<ellipse fill="none" stroke="black" cx="185.87" cy="-249.75" rx="3.2" ry="3.2"/>
</g>
<!-- categories -->
<g id="node5" class="node">
<title>categories</title>
<g id="a_node5"><a xlink:href="../../tables/categories.html" xlink:title="categories" target="_top">
<polygon fill="#ffffff" stroke="transparent" points="8,-265 8,-345 114,-345 114,-265 8,-265"/>
<polygon fill="#f5f5f5" stroke="transparent" points="8,-323 8,-345 114,-345 114,-323 8,-323"/>
<polygon fill="none" stroke="black" points="8,-323 8,-345 114,-345 114,-323 8,-323"/>
<text text-anchor="start" x="13" y="-332.2" font-family="Helvetica,sans-Serif" font-weight="bold" font-size="11.00">categories</text>
<text text-anchor="start" x="75" y="-331.2" font-family="Helvetica,sans-Serif" font-size="11.00">[table]</text>
<polygon fill="none" stroke="black" points="8,-301 8,-323 114,-323 114,-301 8,-301"/>
<image xlink:href="../../images/primaryKeys.png" width="11px" height="12px" preserveAspectRatio="xMinYMin meet" x="13" y="-318"/>
<text text-anchor="start" x="37" y="-309.2" font-family="Helvetica,sans-Serif" font-size="11.00">id</text>
<polygon fill="none" stroke="black" points="8,-283 8,-301 114,-301 114,-283 8,-283"/>
<text text-anchor="start" x="11" y="-289.2" font-family="Helvetica,sans-Serif" font-size="11.00">...</text>
<polygon fill="#ffffff" stroke="transparent" points="8,-265 8,-283 50,-283 50,-265 8,-265"/>
<polygon fill="none" stroke="black" points="8,-265 8,-283 50,-283 50,-265 8,-265"/>
<text text-anchor="start" x="11" y="-271.2" font-family="Helvetica,sans-Serif" font-size="11.00"> &#160;</text>
<polygon fill="#ffffff" stroke="transparent" points="50,-265 50,-283 77,-283 77,-265 50,-265"/>
<polygon fill="none" stroke="black" points="50,-265 50,-283 77,-283 77,-265 50,-265"/>
<text text-anchor="start" x="67" y="-271.2" font-family="Helvetica,sans-Serif" font-size="11.00"> &#160;</text>
<polygon fill="#ffffff" stroke="transparent" points="77,-265 77,-283 114,-283 114,-265 77,-265"/>
<polygon fill="none" stroke="black" points="77,-265 77,-283 114,-283 114,-265 77,-265"/>
<text text-anchor="start" x="95" y="-271.2" font-family="Helvetica,sans-Serif" font-size="11.00">1 &gt;</text>
</a>
</g>
</g>
<!-- catalogs&#45;&gt;categories -->
<g id="edge1" class="edge">
<title>catalogs:w&#45;&gt;categories:e</title>
<path fill="none" stroke="black" d="M182.44,-274.99C155.56,-282.94 149.84,-312 115,-312"/>
<polygon fill="black" stroke="black" points="189.07,-274.08 197.49,-276.57 193.04,-273.54 197,-273 197,-273 197,-273 193.04,-273.54 196.51,-269.43 189.07,-274.08 189.07,-274.08"/>
<ellipse fill="none" stroke="black" cx="185.9" cy="-274.51" rx="3.2" ry="3.2"/>
</g>
</g>
</svg>
