<?xml version="1.0" encoding="UTF-8" standalone="no"?>
<!DOCTYPE svg PUBLIC "-//W3C//DTD SVG 1.1//EN"
 "http://www.w3.org/Graphics/SVG/1.1/DTD/svg11.dtd">
<!-- Generated by graphviz version 2.47.1 (20210515.0534)
 -->
<!-- Title: orphans Pages: 1 -->
<svg width="290pt" height="235pt"
 viewBox="0.00 0.00 290.00 235.00" xmlns="http://www.w3.org/2000/svg" xmlns:xlink="http://www.w3.org/1999/xlink">
<g id="graph0" class="graph" transform="scale(1 1) rotate(0) translate(4 231)">
<title>orphans</title>
<polygon fill="#ffffff" stroke="transparent" points="-4,4 -4,-231 286,-231 286,4 -4,4"/>
<!-- ar_internal_metadata -->
<g id="node1" class="node">
<title>ar_internal_metadata</title>
<g id="a_node1"><a xlink:href="../../tables/ar_internal_metadata.html" xlink:title="ar_internal_metadata" target="_top">
<polygon fill="#ffffff" stroke="transparent" points="8,-4 8,-136 274,-136 274,-4 8,-4"/>
<polygon fill="#f5f5f5" stroke="transparent" points="10,-112 10,-134 272,-134 272,-112 10,-112"/>
<polygon fill="none" stroke="black" points="10,-112 10,-134 272,-134 272,-112 10,-112"/>
<text text-anchor="start" x="15" y="-121.2" font-family="Helvetica,sans-Serif" font-weight="bold" font-size="11.00">ar_internal_metadata</text>
<text text-anchor="start" x="233" y="-120.2" font-family="Helvetica,sans-Serif" font-size="11.00">[table]</text>
<polygon fill="none" stroke="black" points="10,-90 10,-112 160,-112 160,-90 10,-90"/>
<image xlink:href="../../images/primaryKeys.png" width="11px" height="12px" preserveAspectRatio="xMinYMin meet" x="15" y="-107"/>
<text text-anchor="start" x="30" y="-98.2" font-family="Helvetica,sans-Serif" font-size="11.00">key</text>
<polygon fill="none" stroke="black" points="160,-90 160,-112 272,-112 272,-90 160,-90"/>
<text text-anchor="start" x="163" y="-98.2" font-family="Helvetica,sans-Serif" font-size="11.00">varchar[2147483647]</text>
<polygon fill="none" stroke="black" points="10,-68 10,-90 160,-90 160,-68 10,-68"/>
<text text-anchor="start" x="30" y="-76.2" font-family="Helvetica,sans-Serif" font-size="11.00">value</text>
<polygon fill="none" stroke="black" points="160,-68 160,-90 272,-90 272,-68 160,-68"/>
<text text-anchor="start" x="163" y="-76.2" font-family="Helvetica,sans-Serif" font-size="11.00">varchar[2147483647]</text>
<polygon fill="none" stroke="black" points="10,-46 10,-68 160,-68 160,-46 10,-46"/>
<text text-anchor="start" x="30" y="-54.2" font-family="Helvetica,sans-Serif" font-size="11.00">created_at</text>
<polygon fill="none" stroke="black" points="160,-46 160,-68 272,-68 272,-46 160,-46"/>
<text text-anchor="start" x="163" y="-54.2" font-family="Helvetica,sans-Serif" font-size="11.00">timestamp[29,6]</text>
<polygon fill="none" stroke="black" points="10,-24 10,-46 160,-46 160,-24 10,-24"/>
<text text-anchor="start" x="30" y="-32.2" font-family="Helvetica,sans-Serif" font-size="11.00">updated_at</text>
<polygon fill="none" stroke="black" points="160,-24 160,-46 272,-46 272,-24 160,-24"/>
<text text-anchor="start" x="163" y="-32.2" font-family="Helvetica,sans-Serif" font-size="11.00">timestamp[29,6]</text>
<polygon fill="#ffffff" stroke="transparent" points="10,-6 10,-24 89,-24 89,-6 10,-6"/>
<polygon fill="none" stroke="black" points="10,-6 10,-24 89,-24 89,-6 10,-6"/>
<text text-anchor="start" x="13" y="-12.2" font-family="Helvetica,sans-Serif" font-size="11.00">&lt; 0</text>
<polygon fill="#ffffff" stroke="transparent" points="89,-6 89,-24 160,-24 160,-6 89,-6"/>
<polygon fill="none" stroke="black" points="89,-6 89,-24 160,-24 160,-6 89,-6"/>
<text text-anchor="start" x="150" y="-12.2" font-family="Helvetica,sans-Serif" font-size="11.00"> &#160;</text>
<polygon fill="#ffffff" stroke="transparent" points="160,-6 160,-24 272,-24 272,-6 160,-6"/>
<polygon fill="none" stroke="black" points="160,-6 160,-24 272,-24 272,-6 160,-6"/>
<text text-anchor="start" x="253" y="-12.2" font-family="Helvetica,sans-Serif" font-size="11.00">0 &gt;</text>
<polygon fill="none" stroke="black" stroke-width="2" points="9,-5 9,-135 273,-135 273,-5 9,-5"/>
</a>
</g>
</g>
<!-- schema_migrations -->
<g id="node2" class="node">
<title>schema_migrations</title>
<g id="a_node2"><a xlink:href="../../tables/schema_migrations.html" xlink:title="schema_migrations" target="_top">
<polygon fill="#ffffff" stroke="transparent" points="14.5,-157 14.5,-223 267.5,-223 267.5,-157 14.5,-157"/>
<polygon fill="#f5f5f5" stroke="transparent" points="17,-199 17,-221 266,-221 266,-199 17,-199"/>
<polygon fill="none" stroke="black" points="17,-199 17,-221 266,-221 266,-199 17,-199"/>
<text text-anchor="start" x="22" y="-208.2" font-family="Helvetica,sans-Serif" font-weight="bold" font-size="11.00">schema_migrations</text>
<text text-anchor="start" x="227" y="-207.2" font-family="Helvetica,sans-Serif" font-size="11.00">[table]</text>
<polygon fill="none" stroke="black" points="17,-177 17,-199 154,-199 154,-177 17,-177"/>
<image xlink:href="../../images/primaryKeys.png" width="11px" height="12px" preserveAspectRatio="xMinYMin meet" x="22" y="-194"/>
<text text-anchor="start" x="37" y="-185.2" font-family="Helvetica,sans-Serif" font-size="11.00">version</text>
<polygon fill="none" stroke="black" points="154,-177 154,-199 266,-199 266,-177 154,-177"/>
<text text-anchor="start" x="157" y="-185.2" font-family="Helvetica,sans-Serif" font-size="11.00">varchar[2147483647]</text>
<polygon fill="#ffffff" stroke="transparent" points="17,-159 17,-177 90,-177 90,-159 17,-159"/>
<polygon fill="none" stroke="black" points="17,-159 17,-177 90,-177 90,-159 17,-159"/>
<text text-anchor="start" x="20" y="-165.2" font-family="Helvetica,sans-Serif" font-size="11.00">&lt; 0</text>
<polygon fill="#ffffff" stroke="transparent" points="90,-159 90,-177 154,-177 154,-159 90,-159"/>
<polygon fill="none" stroke="black" points="90,-159 90,-177 154,-177 154,-159 90,-159"/>
<text text-anchor="start" x="144" y="-165.2" font-family="Helvetica,sans-Serif" font-size="11.00"> &#160;</text>
<polygon fill="#ffffff" stroke="transparent" points="154,-159 154,-177 266,-177 266,-159 154,-159"/>
<polygon fill="none" stroke="black" points="154,-159 154,-177 266,-177 266,-159 154,-159"/>
<text text-anchor="start" x="247" y="-165.2" font-family="Helvetica,sans-Serif" font-size="11.00">0 &gt;</text>
<polygon fill="none" stroke="black" stroke-width="2" points="15.5,-158 15.5,-222 266.5,-222 266.5,-158 15.5,-158"/>
</a>
</g>
</g>
</g>
</svg>
