<?xml version="1.0" encoding="UTF-8" standalone="no"?>
<!DOCTYPE svg PUBLIC "-//W3C//DTD SVG 1.1//EN"
 "http://www.w3.org/Graphics/SVG/1.1/DTD/svg11.dtd">
<!-- Generated by graphviz version 2.47.1 (20210515.0534)
 -->
<!-- Title: oneDegreeRelationshipsDiagram Pages: 1 -->
<svg width="290pt" height="181pt"
 viewBox="0.00 0.00 290.00 181.00" xmlns="http://www.w3.org/2000/svg" xmlns:xlink="http://www.w3.org/1999/xlink">
<g id="graph0" class="graph" transform="scale(1 1) rotate(0) translate(4 177)">
<title>oneDegreeRelationshipsDiagram</title>
<polygon fill="#ffffff" stroke="transparent" points="-4,4 -4,-177 286,-177 286,4 -4,4"/>
<text text-anchor="middle" x="73.5" y="-7.2" font-family="Helvetica,sans-Serif" font-size="11.00">Generated by SchemaSpy</text>
<!-- ar_internal_metadata -->
<g id="node1" class="node">
<title>ar_internal_metadata</title>
<g id="a_node1"><a xlink:href="../../tables/ar_internal_metadata.html" xlink:title="ar_internal_metadata" target="_top">
<polygon fill="#ffffff" stroke="transparent" points="8,-37 8,-169 274,-169 274,-37 8,-37"/>
<polygon fill="#f5f5f5" stroke="transparent" points="10,-145 10,-167 272,-167 272,-145 10,-145"/>
<polygon fill="none" stroke="black" points="10,-145 10,-167 272,-167 272,-145 10,-145"/>
<text text-anchor="start" x="15" y="-154.2" font-family="Helvetica,sans-Serif" font-weight="bold" font-size="11.00">ar_internal_metadata</text>
<text text-anchor="start" x="233" y="-153.2" font-family="Helvetica,sans-Serif" font-size="11.00">[table]</text>
<polygon fill="none" stroke="black" points="10,-123 10,-145 160,-145 160,-123 10,-123"/>
<image xlink:href="../../images/primaryKeys.png" width="11px" height="12px" preserveAspectRatio="xMinYMin meet" x="15" y="-140"/>
<text text-anchor="start" x="30" y="-131.2" font-family="Helvetica,sans-Serif" font-size="11.00">key</text>
<polygon fill="none" stroke="black" points="160,-123 160,-145 272,-145 272,-123 160,-123"/>
<text text-anchor="start" x="163" y="-131.2" font-family="Helvetica,sans-Serif" font-size="11.00">varchar[2147483647]</text>
<polygon fill="none" stroke="black" points="10,-101 10,-123 160,-123 160,-101 10,-101"/>
<text text-anchor="start" x="30" y="-109.2" font-family="Helvetica,sans-Serif" font-size="11.00">value</text>
<polygon fill="none" stroke="black" points="160,-101 160,-123 272,-123 272,-101 160,-101"/>
<text text-anchor="start" x="163" y="-109.2" font-family="Helvetica,sans-Serif" font-size="11.00">varchar[2147483647]</text>
<polygon fill="none" stroke="black" points="10,-79 10,-101 160,-101 160,-79 10,-79"/>
<text text-anchor="start" x="30" y="-87.2" font-family="Helvetica,sans-Serif" font-size="11.00">created_at</text>
<polygon fill="none" stroke="black" points="160,-79 160,-101 272,-101 272,-79 160,-79"/>
<text text-anchor="start" x="163" y="-87.2" font-family="Helvetica,sans-Serif" font-size="11.00">timestamp[29,6]</text>
<polygon fill="none" stroke="black" points="10,-57 10,-79 160,-79 160,-57 10,-57"/>
<text text-anchor="start" x="30" y="-65.2" font-family="Helvetica,sans-Serif" font-size="11.00">updated_at</text>
<polygon fill="none" stroke="black" points="160,-57 160,-79 272,-79 272,-57 160,-57"/>
<text text-anchor="start" x="163" y="-65.2" font-family="Helvetica,sans-Serif" font-size="11.00">timestamp[29,6]</text>
<polygon fill="#ffffff" stroke="transparent" points="10,-39 10,-57 89,-57 89,-39 10,-39"/>
<polygon fill="none" stroke="black" points="10,-39 10,-57 89,-57 89,-39 10,-39"/>
<text text-anchor="start" x="13" y="-45.2" font-family="Helvetica,sans-Serif" font-size="11.00">&lt; 0</text>
<polygon fill="#ffffff" stroke="transparent" points="89,-39 89,-57 160,-57 160,-39 89,-39"/>
<polygon fill="none" stroke="black" points="89,-39 89,-57 160,-57 160,-39 89,-39"/>
<text text-anchor="start" x="150" y="-45.2" font-family="Helvetica,sans-Serif" font-size="11.00"> &#160;</text>
<polygon fill="#ffffff" stroke="transparent" points="160,-39 160,-57 272,-57 272,-39 160,-39"/>
<polygon fill="none" stroke="black" points="160,-39 160,-57 272,-57 272,-39 160,-39"/>
<text text-anchor="start" x="253" y="-45.2" font-family="Helvetica,sans-Serif" font-size="11.00">0 &gt;</text>
<polygon fill="none" stroke="black" stroke-width="2" points="9,-38 9,-168 273,-168 273,-38 9,-38"/>
</a>
</g>
</g>
</g>
</svg>
