<?xml version="1.0" encoding="UTF-8" standalone="no"?>
<!DOCTYPE svg PUBLIC "-//W3C//DTD SVG 1.1//EN"
 "http://www.w3.org/Graphics/SVG/1.1/DTD/svg11.dtd">
<!-- Generated by graphviz version 2.47.1 (20210515.0534)
 -->
<!-- Title: oneDegreeRelationshipsDiagram Pages: 1 -->
<svg width="523pt" height="256pt"
 viewBox="0.00 0.00 523.00 256.00" xmlns="http://www.w3.org/2000/svg" xmlns:xlink="http://www.w3.org/1999/xlink">
<g id="graph0" class="graph" transform="scale(1 1) rotate(0) translate(4 252)">
<title>oneDegreeRelationshipsDiagram</title>
<polygon fill="#ffffff" stroke="transparent" points="-4,4 -4,-252 519,-252 519,4 -4,4"/>
<text text-anchor="middle" x="73.5" y="-7.2" font-family="Helvetica,sans-Serif" font-size="11.00">Generated by SchemaSpy</text>
<!-- catalogs -->
<g id="node1" class="node">
<title>catalogs</title>
<g id="a_node1"><a xlink:href="../../tables/catalogs.html" xlink:title="catalogs" target="_top">
<polygon fill="#ffffff" stroke="transparent" points="163,-48 163,-224 368,-224 368,-48 163,-48"/>
<polygon fill="#f5f5f5" stroke="transparent" points="165.5,-200 165.5,-222 366.5,-222 366.5,-200 165.5,-200"/>
<polygon fill="none" stroke="black" points="165.5,-200 165.5,-222 366.5,-222 366.5,-200 165.5,-200"/>
<text text-anchor="start" x="170" y="-209.2" font-family="Helvetica,sans-Serif" font-weight="bold" font-size="11.00">catalogs</text>
<text text-anchor="start" x="327.5" y="-208.2" font-family="Helvetica,sans-Serif" font-size="11.00">[table]</text>
<polygon fill="none" stroke="black" points="165.5,-178 165.5,-200 254.5,-200 254.5,-178 165.5,-178"/>
<image xlink:href="../../images/primaryKeys.png" width="11px" height="12px" preserveAspectRatio="xMinYMin meet" x="170.5" y="-195"/>
<text text-anchor="start" x="185.5" y="-186.2" font-family="Helvetica,sans-Serif" font-size="11.00">id</text>
<polygon fill="none" stroke="black" points="254.5,-178 254.5,-200 366.5,-200 366.5,-178 254.5,-178"/>
<text text-anchor="start" x="257.5" y="-186.2" font-family="Helvetica,sans-Serif" font-size="11.00">bigserial[19]</text>
<polygon fill="none" stroke="black" points="165.5,-156 165.5,-178 254.5,-178 254.5,-156 165.5,-156"/>
<text text-anchor="start" x="185.5" y="-164.2" font-family="Helvetica,sans-Serif" font-size="11.00">title</text>
<polygon fill="none" stroke="black" points="254.5,-156 254.5,-178 366.5,-178 366.5,-156 254.5,-156"/>
<text text-anchor="start" x="257.5" y="-164.2" font-family="Helvetica,sans-Serif" font-size="11.00">varchar[2147483647]</text>
<polygon fill="#ffffff" stroke="transparent" points="165.5,-134 165.5,-156 254.5,-156 254.5,-134 165.5,-134"/>
<polygon fill="none" stroke="black" points="165.5,-134 165.5,-156 254.5,-156 254.5,-134 165.5,-134"/>
<image xlink:href="../../images/foreignKeys.png" width="11px" height="12px" preserveAspectRatio="xMinYMin meet" x="170.5" y="-151"/>
<text text-anchor="start" x="185.5" y="-142.2" font-family="Helvetica,sans-Serif" font-size="11.00">category_id</text>
<polygon fill="none" stroke="black" points="254.5,-134 254.5,-156 366.5,-156 366.5,-134 254.5,-134"/>
<text text-anchor="start" x="257.5" y="-142.2" font-family="Helvetica,sans-Serif" font-size="11.00">int8[19]</text>
<polygon fill="#ffffff" stroke="transparent" points="165.5,-112 165.5,-134 254.5,-134 254.5,-112 165.5,-112"/>
<polygon fill="none" stroke="black" points="165.5,-112 165.5,-134 254.5,-134 254.5,-112 165.5,-112"/>
<image xlink:href="../../images/foreignKeys.png" width="11px" height="12px" preserveAspectRatio="xMinYMin meet" x="170.5" y="-129"/>
<text text-anchor="start" x="185.5" y="-120.2" font-family="Helvetica,sans-Serif" font-size="11.00">genre_id</text>
<polygon fill="none" stroke="black" points="254.5,-112 254.5,-134 366.5,-134 366.5,-112 254.5,-112"/>
<text text-anchor="start" x="257.5" y="-120.2" font-family="Helvetica,sans-Serif" font-size="11.00">int8[19]</text>
<polygon fill="none" stroke="black" points="165.5,-90 165.5,-112 254.5,-112 254.5,-90 165.5,-90"/>
<text text-anchor="start" x="185.5" y="-98.2" font-family="Helvetica,sans-Serif" font-size="11.00">created_at</text>
<polygon fill="none" stroke="black" points="254.5,-90 254.5,-112 366.5,-112 366.5,-90 254.5,-90"/>
<text text-anchor="start" x="257.5" y="-98.2" font-family="Helvetica,sans-Serif" font-size="11.00">timestamp[29,6]</text>
<polygon fill="none" stroke="black" points="165.5,-68 165.5,-90 254.5,-90 254.5,-68 165.5,-68"/>
<text text-anchor="start" x="185.5" y="-76.2" font-family="Helvetica,sans-Serif" font-size="11.00">updated_at</text>
<polygon fill="none" stroke="black" points="254.5,-68 254.5,-90 366.5,-90 366.5,-68 254.5,-68"/>
<text text-anchor="start" x="257.5" y="-76.2" font-family="Helvetica,sans-Serif" font-size="11.00">timestamp[29,6]</text>
<polygon fill="#ffffff" stroke="transparent" points="165.5,-50 165.5,-68 214.5,-68 214.5,-50 165.5,-50"/>
<polygon fill="none" stroke="black" points="165.5,-50 165.5,-68 214.5,-68 214.5,-50 165.5,-50"/>
<text text-anchor="start" x="168.5" y="-56.2" font-family="Helvetica,sans-Serif" font-size="11.00">&lt; 2</text>
<polygon fill="#ffffff" stroke="transparent" points="214.5,-50 214.5,-68 254.5,-68 254.5,-50 214.5,-50"/>
<polygon fill="none" stroke="black" points="214.5,-50 214.5,-68 254.5,-68 254.5,-50 214.5,-50"/>
<text text-anchor="start" x="244.5" y="-56.2" font-family="Helvetica,sans-Serif" font-size="11.00"> &#160;</text>
<polygon fill="#ffffff" stroke="transparent" points="254.5,-50 254.5,-68 366.5,-68 366.5,-50 254.5,-50"/>
<polygon fill="none" stroke="black" points="254.5,-50 254.5,-68 366.5,-68 366.5,-50 254.5,-50"/>
<text text-anchor="start" x="347.5" y="-56.2" font-family="Helvetica,sans-Serif" font-size="11.00">1 &gt;</text>
<polygon fill="none" stroke="black" stroke-width="2" points="164,-49 164,-223 367,-223 367,-49 164,-49"/>
</a>
</g>
</g>
<!-- categories -->
<g id="node2" class="node">
<title>categories</title>
<g id="a_node2"><a xlink:href="../../tables/categories.html" xlink:title="categories" target="_top">
<polygon fill="#ffffff" stroke="transparent" points="8,-138 8,-218 114,-218 114,-138 8,-138"/>
<polygon fill="#f5f5f5" stroke="transparent" points="8,-196 8,-218 114,-218 114,-196 8,-196"/>
<polygon fill="none" stroke="black" points="8,-196 8,-218 114,-218 114,-196 8,-196"/>
<text text-anchor="start" x="13" y="-205.2" font-family="Helvetica,sans-Serif" font-weight="bold" font-size="11.00">categories</text>
<text text-anchor="start" x="75" y="-204.2" font-family="Helvetica,sans-Serif" font-size="11.00">[table]</text>
<polygon fill="none" stroke="black" points="8,-174 8,-196 114,-196 114,-174 8,-174"/>
<image xlink:href="../../images/primaryKeys.png" width="11px" height="12px" preserveAspectRatio="xMinYMin meet" x="13" y="-191"/>
<text text-anchor="start" x="37" y="-182.2" font-family="Helvetica,sans-Serif" font-size="11.00">id</text>
<polygon fill="none" stroke="black" points="8,-156 8,-174 114,-174 114,-156 8,-156"/>
<text text-anchor="start" x="11" y="-162.2" font-family="Helvetica,sans-Serif" font-size="11.00">...</text>
<polygon fill="#ffffff" stroke="transparent" points="8,-138 8,-156 50,-156 50,-138 8,-138"/>
<polygon fill="none" stroke="black" points="8,-138 8,-156 50,-156 50,-138 8,-138"/>
<text text-anchor="start" x="11" y="-144.2" font-family="Helvetica,sans-Serif" font-size="11.00"> &#160;</text>
<polygon fill="#ffffff" stroke="transparent" points="50,-138 50,-156 77,-156 77,-138 50,-138"/>
<polygon fill="none" stroke="black" points="50,-138 50,-156 77,-156 77,-138 50,-138"/>
<text text-anchor="start" x="67" y="-144.2" font-family="Helvetica,sans-Serif" font-size="11.00"> &#160;</text>
<polygon fill="#ffffff" stroke="transparent" points="77,-138 77,-156 114,-156 114,-138 77,-138"/>
<polygon fill="none" stroke="black" points="77,-138 77,-156 114,-156 114,-138 77,-138"/>
<text text-anchor="start" x="95" y="-144.2" font-family="Helvetica,sans-Serif" font-size="11.00">1 &gt;</text>
</a>
</g>
</g>
<!-- catalogs&#45;&gt;categories -->
<g id="edge1" class="edge">
<title>catalogs:w&#45;&gt;categories:e</title>
<path fill="none" stroke="black" d="M150.66,-149.59C137.62,-160.1 137.32,-185 115,-185"/>
<polygon fill="black" stroke="black" points="156.91,-147.52 165.63,-148.42 160.7,-146.26 164.5,-145 164.5,-145 164.5,-145 160.7,-146.26 163.37,-141.58 156.91,-147.52 156.91,-147.52"/>
<ellipse fill="none" stroke="black" cx="153.87" cy="-148.52" rx="3.2" ry="3.2"/>
</g>
<!-- genres -->
<g id="node3" class="node">
<title>genres</title>
<g id="a_node3"><a xlink:href="../../tables/genres.html" xlink:title="genres" target="_top">
<polygon fill="#ffffff" stroke="transparent" points="17,-37 17,-117 105,-117 105,-37 17,-37"/>
<polygon fill="#f5f5f5" stroke="transparent" points="17,-95 17,-117 105,-117 105,-95 17,-95"/>
<polygon fill="none" stroke="black" points="17,-95 17,-117 105,-117 105,-95 17,-95"/>
<text text-anchor="start" x="21" y="-104.2" font-family="Helvetica,sans-Serif" font-weight="bold" font-size="11.00">genres</text>
<text text-anchor="start" x="66" y="-103.2" font-family="Helvetica,sans-Serif" font-size="11.00">[table]</text>
<polygon fill="none" stroke="black" points="17,-73 17,-95 105,-95 105,-73 17,-73"/>
<image xlink:href="../../images/primaryKeys.png" width="11px" height="12px" preserveAspectRatio="xMinYMin meet" x="22" y="-90"/>
<text text-anchor="start" x="37" y="-81.2" font-family="Helvetica,sans-Serif" font-size="11.00">id</text>
<polygon fill="none" stroke="black" points="17,-55 17,-73 105,-73 105,-55 17,-55"/>
<text text-anchor="start" x="20" y="-61.2" font-family="Helvetica,sans-Serif" font-size="11.00">...</text>
<polygon fill="#ffffff" stroke="transparent" points="17,-37 17,-55 50,-55 50,-37 17,-37"/>
<polygon fill="none" stroke="black" points="17,-37 17,-55 50,-55 50,-37 17,-37"/>
<text text-anchor="start" x="20" y="-43.2" font-family="Helvetica,sans-Serif" font-size="11.00"> &#160;</text>
<polygon fill="#ffffff" stroke="transparent" points="50,-37 50,-55 73,-55 73,-37 50,-37"/>
<polygon fill="none" stroke="black" points="50,-37 50,-55 73,-55 73,-37 50,-37"/>
<text text-anchor="start" x="63" y="-43.2" font-family="Helvetica,sans-Serif" font-size="11.00"> &#160;</text>
<polygon fill="#ffffff" stroke="transparent" points="73,-37 73,-55 105,-55 105,-37 73,-37"/>
<polygon fill="none" stroke="black" points="73,-37 73,-55 105,-55 105,-37 73,-37"/>
<text text-anchor="start" x="86" y="-43.2" font-family="Helvetica,sans-Serif" font-size="11.00">1 &gt;</text>
</a>
</g>
</g>
<!-- catalogs&#45;&gt;genres -->
<g id="edge2" class="edge">
<title>catalogs:w&#45;&gt;genres:e</title>
<path fill="none" stroke="black" d="M150.18,-119.4C133.51,-109.75 131.39,-84 106,-84"/>
<polygon fill="black" stroke="black" points="156.74,-121.05 163.62,-126.49 160.62,-122.03 164.5,-123 164.5,-123 164.5,-123 160.62,-122.03 165.38,-119.51 156.74,-121.05 156.74,-121.05"/>
<ellipse fill="none" stroke="black" cx="153.64" cy="-120.27" rx="3.2" ry="3.2"/>
</g>
<!-- reviews -->
<g id="node4" class="node">
<title>reviews</title>
<g id="a_node4"><a xlink:href="../../tables/reviews.html" xlink:title="reviews" target="_top">
<polygon fill="#ffffff" stroke="transparent" points="417,-120 417,-244 507,-244 507,-120 417,-120"/>
<polygon fill="#f5f5f5" stroke="transparent" points="417,-222 417,-244 507,-244 507,-222 417,-222"/>
<polygon fill="none" stroke="black" points="417,-222 417,-244 507,-244 507,-222 417,-222"/>
<text text-anchor="start" x="421.5" y="-231.2" font-family="Helvetica,sans-Serif" font-weight="bold" font-size="11.00">reviews</text>
<text text-anchor="start" x="468" y="-230.2" font-family="Helvetica,sans-Serif" font-size="11.00">[table]</text>
<polygon fill="none" stroke="black" points="417,-200 417,-222 507,-222 507,-200 417,-200"/>
<image xlink:href="../../images/primaryKeys.png" width="11px" height="12px" preserveAspectRatio="xMinYMin meet" x="422" y="-217"/>
<text text-anchor="start" x="438" y="-208.2" font-family="Helvetica,sans-Serif" font-size="11.00">id</text>
<polygon fill="#ffffff" stroke="transparent" points="417,-178 417,-200 507,-200 507,-178 417,-178"/>
<polygon fill="none" stroke="black" points="417,-178 417,-200 507,-200 507,-178 417,-178"/>
<image xlink:href="../../images/foreignKeys.png" width="11px" height="12px" preserveAspectRatio="xMinYMin meet" x="422" y="-195"/>
<text text-anchor="start" x="438" y="-186.2" font-family="Helvetica,sans-Serif" font-size="11.00">catalog_id</text>
<polygon fill="#ffffff" stroke="transparent" points="417,-156 417,-178 507,-178 507,-156 417,-156"/>
<polygon fill="none" stroke="black" points="417,-156 417,-178 507,-178 507,-156 417,-156"/>
<image xlink:href="../../images/foreignKeys.png" width="11px" height="12px" preserveAspectRatio="xMinYMin meet" x="422" y="-173"/>
<text text-anchor="start" x="438" y="-164.2" font-family="Helvetica,sans-Serif" font-size="11.00">user_id</text>
<polygon fill="none" stroke="black" points="417,-138 417,-156 507,-156 507,-138 417,-138"/>
<text text-anchor="start" x="420" y="-144.2" font-family="Helvetica,sans-Serif" font-size="11.00">...</text>
<polygon fill="#ffffff" stroke="transparent" points="417,-120 417,-138 460,-138 460,-120 417,-120"/>
<polygon fill="none" stroke="black" points="417,-120 417,-138 460,-138 460,-120 417,-120"/>
<text text-anchor="start" x="420" y="-126.2" font-family="Helvetica,sans-Serif" font-size="11.00">&lt; 2</text>
<polygon fill="#ffffff" stroke="transparent" points="460,-120 460,-138 483,-138 483,-120 460,-120"/>
<polygon fill="none" stroke="black" points="460,-120 460,-138 483,-138 483,-120 460,-120"/>
<text text-anchor="start" x="473" y="-126.2" font-family="Helvetica,sans-Serif" font-size="11.00"> &#160;</text>
<polygon fill="#ffffff" stroke="transparent" points="483,-120 483,-138 507,-138 507,-120 483,-120"/>
<polygon fill="none" stroke="black" points="483,-120 483,-138 507,-138 507,-120 483,-120"/>
<text text-anchor="start" x="497" y="-126.2" font-family="Helvetica,sans-Serif" font-size="11.00"> &#160;</text>
</a>
</g>
</g>
<!-- reviews&#45;&gt;catalogs -->
<g id="edge3" class="edge">
<title>reviews:w&#45;&gt;catalogs:e</title>
<path fill="none" stroke="black" d="M401.28,-189C390.29,-189 383.16,-189 367.5,-189"/>
<polygon fill="black" stroke="black" points="408,-189 416,-192.6 412,-189 416,-189 416,-189 416,-189 412,-189 416,-185.4 408,-189 408,-189"/>
<ellipse fill="none" stroke="black" cx="404.8" cy="-189" rx="3.2" ry="3.2"/>
</g>
</g>
</svg>
