<?xml version="1.0" encoding="UTF-8" standalone="no"?>
<!DOCTYPE svg PUBLIC "-//W3C//DTD SVG 1.1//EN"
 "http://www.w3.org/Graphics/SVG/1.1/DTD/svg11.dtd">
<!-- Generated by graphviz version 2.47.1 (20210515.0534)
 -->
<!-- Title: twoDegreesRelationshipsDiagram Pages: 1 -->
<svg width="523pt" height="304pt"
 viewBox="0.00 0.00 523.00 304.00" xmlns="http://www.w3.org/2000/svg" xmlns:xlink="http://www.w3.org/1999/xlink">
<g id="graph0" class="graph" transform="scale(1 1) rotate(0) translate(4 300)">
<title>twoDegreesRelationshipsDiagram</title>
<polygon fill="#ffffff" stroke="transparent" points="-4,4 -4,-300 519,-300 519,4 -4,4"/>
<text text-anchor="middle" x="73.5" y="-7.2" font-family="Helvetica,sans-Serif" font-size="11.00">Generated by SchemaSpy</text>
<!-- catalogs -->
<g id="node1" class="node">
<title>catalogs</title>
<g id="a_node1"><a xlink:href="../../tables/catalogs.html" xlink:title="catalogs" target="_top">
<polygon fill="#ffffff" stroke="transparent" points="163,-116 163,-292 368,-292 368,-116 163,-116"/>
<polygon fill="#f5f5f5" stroke="transparent" points="165.5,-268 165.5,-290 366.5,-290 366.5,-268 165.5,-268"/>
<polygon fill="none" stroke="black" points="165.5,-268 165.5,-290 366.5,-290 366.5,-268 165.5,-268"/>
<text text-anchor="start" x="170" y="-277.2" font-family="Helvetica,sans-Serif" font-weight="bold" font-size="11.00">catalogs</text>
<text text-anchor="start" x="327.5" y="-276.2" font-family="Helvetica,sans-Serif" font-size="11.00">[table]</text>
<polygon fill="none" stroke="black" points="165.5,-246 165.5,-268 254.5,-268 254.5,-246 165.5,-246"/>
<image xlink:href="../../images/primaryKeys.png" width="11px" height="12px" preserveAspectRatio="xMinYMin meet" x="170.5" y="-263"/>
<text text-anchor="start" x="185.5" y="-254.2" font-family="Helvetica,sans-Serif" font-size="11.00">id</text>
<polygon fill="none" stroke="black" points="254.5,-246 254.5,-268 366.5,-268 366.5,-246 254.5,-246"/>
<text text-anchor="start" x="257.5" y="-254.2" font-family="Helvetica,sans-Serif" font-size="11.00">bigserial[19]</text>
<polygon fill="none" stroke="black" points="165.5,-224 165.5,-246 254.5,-246 254.5,-224 165.5,-224"/>
<text text-anchor="start" x="185.5" y="-232.2" font-family="Helvetica,sans-Serif" font-size="11.00">title</text>
<polygon fill="none" stroke="black" points="254.5,-224 254.5,-246 366.5,-246 366.5,-224 254.5,-224"/>
<text text-anchor="start" x="257.5" y="-232.2" font-family="Helvetica,sans-Serif" font-size="11.00">varchar[2147483647]</text>
<polygon fill="#ffffff" stroke="transparent" points="165.5,-202 165.5,-224 254.5,-224 254.5,-202 165.5,-202"/>
<polygon fill="none" stroke="black" points="165.5,-202 165.5,-224 254.5,-224 254.5,-202 165.5,-202"/>
<image xlink:href="../../images/foreignKeys.png" width="11px" height="12px" preserveAspectRatio="xMinYMin meet" x="170.5" y="-219"/>
<text text-anchor="start" x="185.5" y="-210.2" font-family="Helvetica,sans-Serif" font-size="11.00">category_id</text>
<polygon fill="none" stroke="black" points="254.5,-202 254.5,-224 366.5,-224 366.5,-202 254.5,-202"/>
<text text-anchor="start" x="257.5" y="-210.2" font-family="Helvetica,sans-Serif" font-size="11.00">int8[19]</text>
<polygon fill="#ffffff" stroke="transparent" points="165.5,-180 165.5,-202 254.5,-202 254.5,-180 165.5,-180"/>
<polygon fill="none" stroke="black" points="165.5,-180 165.5,-202 254.5,-202 254.5,-180 165.5,-180"/>
<image xlink:href="../../images/foreignKeys.png" width="11px" height="12px" preserveAspectRatio="xMinYMin meet" x="170.5" y="-197"/>
<text text-anchor="start" x="185.5" y="-188.2" font-family="Helvetica,sans-Serif" font-size="11.00">genre_id</text>
<polygon fill="none" stroke="black" points="254.5,-180 254.5,-202 366.5,-202 366.5,-180 254.5,-180"/>
<text text-anchor="start" x="257.5" y="-188.2" font-family="Helvetica,sans-Serif" font-size="11.00">int8[19]</text>
<polygon fill="none" stroke="black" points="165.5,-158 165.5,-180 254.5,-180 254.5,-158 165.5,-158"/>
<text text-anchor="start" x="185.5" y="-166.2" font-family="Helvetica,sans-Serif" font-size="11.00">created_at</text>
<polygon fill="none" stroke="black" points="254.5,-158 254.5,-180 366.5,-180 366.5,-158 254.5,-158"/>
<text text-anchor="start" x="257.5" y="-166.2" font-family="Helvetica,sans-Serif" font-size="11.00">timestamp[29,6]</text>
<polygon fill="none" stroke="black" points="165.5,-136 165.5,-158 254.5,-158 254.5,-136 165.5,-136"/>
<text text-anchor="start" x="185.5" y="-144.2" font-family="Helvetica,sans-Serif" font-size="11.00">updated_at</text>
<polygon fill="none" stroke="black" points="254.5,-136 254.5,-158 366.5,-158 366.5,-136 254.5,-136"/>
<text text-anchor="start" x="257.5" y="-144.2" font-family="Helvetica,sans-Serif" font-size="11.00">timestamp[29,6]</text>
<polygon fill="#ffffff" stroke="transparent" points="165.5,-118 165.5,-136 214.5,-136 214.5,-118 165.5,-118"/>
<polygon fill="none" stroke="black" points="165.5,-118 165.5,-136 214.5,-136 214.5,-118 165.5,-118"/>
<text text-anchor="start" x="168.5" y="-124.2" font-family="Helvetica,sans-Serif" font-size="11.00">&lt; 2</text>
<polygon fill="#ffffff" stroke="transparent" points="214.5,-118 214.5,-136 254.5,-136 254.5,-118 214.5,-118"/>
<polygon fill="none" stroke="black" points="214.5,-118 214.5,-136 254.5,-136 254.5,-118 214.5,-118"/>
<text text-anchor="start" x="244.5" y="-124.2" font-family="Helvetica,sans-Serif" font-size="11.00"> &#160;</text>
<polygon fill="#ffffff" stroke="transparent" points="254.5,-118 254.5,-136 366.5,-136 366.5,-118 254.5,-118"/>
<polygon fill="none" stroke="black" points="254.5,-118 254.5,-136 366.5,-136 366.5,-118 254.5,-118"/>
<text text-anchor="start" x="347.5" y="-124.2" font-family="Helvetica,sans-Serif" font-size="11.00">1 &gt;</text>
<polygon fill="none" stroke="black" stroke-width="2" points="164,-117 164,-291 367,-291 367,-117 164,-117"/>
</a>
</g>
</g>
<!-- categories -->
<g id="node2" class="node">
<title>categories</title>
<g id="a_node2"><a xlink:href="../../tables/categories.html" xlink:title="categories" target="_top">
<polygon fill="#ffffff" stroke="transparent" points="8,-205 8,-285 114,-285 114,-205 8,-205"/>
<polygon fill="#f5f5f5" stroke="transparent" points="8,-263 8,-285 114,-285 114,-263 8,-263"/>
<polygon fill="none" stroke="black" points="8,-263 8,-285 114,-285 114,-263 8,-263"/>
<text text-anchor="start" x="13" y="-272.2" font-family="Helvetica,sans-Serif" font-weight="bold" font-size="11.00">categories</text>
<text text-anchor="start" x="75" y="-271.2" font-family="Helvetica,sans-Serif" font-size="11.00">[table]</text>
<polygon fill="none" stroke="black" points="8,-241 8,-263 114,-263 114,-241 8,-241"/>
<image xlink:href="../../images/primaryKeys.png" width="11px" height="12px" preserveAspectRatio="xMinYMin meet" x="13" y="-258"/>
<text text-anchor="start" x="37" y="-249.2" font-family="Helvetica,sans-Serif" font-size="11.00">id</text>
<polygon fill="none" stroke="black" points="8,-223 8,-241 114,-241 114,-223 8,-223"/>
<text text-anchor="start" x="11" y="-229.2" font-family="Helvetica,sans-Serif" font-size="11.00">...</text>
<polygon fill="#ffffff" stroke="transparent" points="8,-205 8,-223 50,-223 50,-205 8,-205"/>
<polygon fill="none" stroke="black" points="8,-205 8,-223 50,-223 50,-205 8,-205"/>
<text text-anchor="start" x="11" y="-211.2" font-family="Helvetica,sans-Serif" font-size="11.00"> &#160;</text>
<polygon fill="#ffffff" stroke="transparent" points="50,-205 50,-223 77,-223 77,-205 50,-205"/>
<polygon fill="none" stroke="black" points="50,-205 50,-223 77,-223 77,-205 50,-205"/>
<text text-anchor="start" x="67" y="-211.2" font-family="Helvetica,sans-Serif" font-size="11.00"> &#160;</text>
<polygon fill="#ffffff" stroke="transparent" points="77,-205 77,-223 114,-223 114,-205 77,-205"/>
<polygon fill="none" stroke="black" points="77,-205 77,-223 114,-223 114,-205 77,-205"/>
<text text-anchor="start" x="95" y="-211.2" font-family="Helvetica,sans-Serif" font-size="11.00">1 &gt;</text>
</a>
</g>
</g>
<!-- catalogs&#45;&gt;categories -->
<g id="edge1" class="edge">
<title>catalogs:w&#45;&gt;categories:e</title>
<path fill="none" stroke="black" d="M150.74,-217.47C137.7,-227.72 137.1,-252 115,-252"/>
<polygon fill="black" stroke="black" points="156.89,-215.47 165.61,-216.42 160.7,-214.24 164.5,-213 164.5,-213 164.5,-213 160.7,-214.24 163.39,-209.58 156.89,-215.47 156.89,-215.47"/>
<ellipse fill="none" stroke="black" cx="153.85" cy="-216.46" rx="3.2" ry="3.2"/>
</g>
<!-- genres -->
<g id="node3" class="node">
<title>genres</title>
<g id="a_node3"><a xlink:href="../../tables/genres.html" xlink:title="genres" target="_top">
<polygon fill="#ffffff" stroke="transparent" points="17,-104 17,-184 105,-184 105,-104 17,-104"/>
<polygon fill="#f5f5f5" stroke="transparent" points="17,-162 17,-184 105,-184 105,-162 17,-162"/>
<polygon fill="none" stroke="black" points="17,-162 17,-184 105,-184 105,-162 17,-162"/>
<text text-anchor="start" x="21" y="-171.2" font-family="Helvetica,sans-Serif" font-weight="bold" font-size="11.00">genres</text>
<text text-anchor="start" x="66" y="-170.2" font-family="Helvetica,sans-Serif" font-size="11.00">[table]</text>
<polygon fill="none" stroke="black" points="17,-140 17,-162 105,-162 105,-140 17,-140"/>
<image xlink:href="../../images/primaryKeys.png" width="11px" height="12px" preserveAspectRatio="xMinYMin meet" x="22" y="-157"/>
<text text-anchor="start" x="37" y="-148.2" font-family="Helvetica,sans-Serif" font-size="11.00">id</text>
<polygon fill="none" stroke="black" points="17,-122 17,-140 105,-140 105,-122 17,-122"/>
<text text-anchor="start" x="20" y="-128.2" font-family="Helvetica,sans-Serif" font-size="11.00">...</text>
<polygon fill="#ffffff" stroke="transparent" points="17,-104 17,-122 50,-122 50,-104 17,-104"/>
<polygon fill="none" stroke="black" points="17,-104 17,-122 50,-122 50,-104 17,-104"/>
<text text-anchor="start" x="20" y="-110.2" font-family="Helvetica,sans-Serif" font-size="11.00"> &#160;</text>
<polygon fill="#ffffff" stroke="transparent" points="50,-104 50,-122 73,-122 73,-104 50,-104"/>
<polygon fill="none" stroke="black" points="50,-104 50,-122 73,-122 73,-104 50,-104"/>
<text text-anchor="start" x="63" y="-110.2" font-family="Helvetica,sans-Serif" font-size="11.00"> &#160;</text>
<polygon fill="#ffffff" stroke="transparent" points="73,-104 73,-122 105,-122 105,-104 73,-104"/>
<polygon fill="none" stroke="black" points="73,-104 73,-122 105,-122 105,-104 73,-104"/>
<text text-anchor="start" x="86" y="-110.2" font-family="Helvetica,sans-Serif" font-size="11.00">1 &gt;</text>
</a>
</g>
</g>
<!-- catalogs&#45;&gt;genres -->
<g id="edge2" class="edge">
<title>catalogs:w&#45;&gt;genres:e</title>
<path fill="none" stroke="black" d="M150.1,-187.31C133.42,-177.41 131.59,-151 106,-151"/>
<polygon fill="black" stroke="black" points="156.75,-189.01 163.61,-194.49 160.63,-190.01 164.5,-191 164.5,-191 164.5,-191 160.63,-190.01 165.39,-187.51 156.75,-189.01 156.75,-189.01"/>
<ellipse fill="none" stroke="black" cx="153.65" cy="-188.22" rx="3.2" ry="3.2"/>
</g>
<!-- reviews -->
<g id="node4" class="node">
<title>reviews</title>
<g id="a_node4"><a xlink:href="../../tables/reviews.html" xlink:title="reviews" target="_top">
<polygon fill="#ffffff" stroke="transparent" points="417,-102 417,-226 507,-226 507,-102 417,-102"/>
<polygon fill="#f5f5f5" stroke="transparent" points="417,-204 417,-226 507,-226 507,-204 417,-204"/>
<polygon fill="none" stroke="black" points="417,-204 417,-226 507,-226 507,-204 417,-204"/>
<text text-anchor="start" x="421.5" y="-213.2" font-family="Helvetica,sans-Serif" font-weight="bold" font-size="11.00">reviews</text>
<text text-anchor="start" x="468" y="-212.2" font-family="Helvetica,sans-Serif" font-size="11.00">[table]</text>
<polygon fill="none" stroke="black" points="417,-182 417,-204 507,-204 507,-182 417,-182"/>
<image xlink:href="../../images/primaryKeys.png" width="11px" height="12px" preserveAspectRatio="xMinYMin meet" x="422" y="-199"/>
<text text-anchor="start" x="438" y="-190.2" font-family="Helvetica,sans-Serif" font-size="11.00">id</text>
<polygon fill="#ffffff" stroke="transparent" points="417,-160 417,-182 507,-182 507,-160 417,-160"/>
<polygon fill="none" stroke="black" points="417,-160 417,-182 507,-182 507,-160 417,-160"/>
<image xlink:href="../../images/foreignKeys.png" width="11px" height="12px" preserveAspectRatio="xMinYMin meet" x="422" y="-177"/>
<text text-anchor="start" x="438" y="-168.2" font-family="Helvetica,sans-Serif" font-size="11.00">catalog_id</text>
<polygon fill="#ffffff" stroke="transparent" points="417,-138 417,-160 507,-160 507,-138 417,-138"/>
<polygon fill="none" stroke="black" points="417,-138 417,-160 507,-160 507,-138 417,-138"/>
<image xlink:href="../../images/foreignKeys.png" width="11px" height="12px" preserveAspectRatio="xMinYMin meet" x="422" y="-155"/>
<text text-anchor="start" x="438" y="-146.2" font-family="Helvetica,sans-Serif" font-size="11.00">user_id</text>
<polygon fill="none" stroke="black" points="417,-120 417,-138 507,-138 507,-120 417,-120"/>
<text text-anchor="start" x="420" y="-126.2" font-family="Helvetica,sans-Serif" font-size="11.00">...</text>
<polygon fill="#ffffff" stroke="transparent" points="417,-102 417,-120 460,-120 460,-102 417,-102"/>
<polygon fill="none" stroke="black" points="417,-102 417,-120 460,-120 460,-102 417,-102"/>
<text text-anchor="start" x="420" y="-108.2" font-family="Helvetica,sans-Serif" font-size="11.00">&lt; 2</text>
<polygon fill="#ffffff" stroke="transparent" points="460,-102 460,-120 483,-120 483,-102 460,-102"/>
<polygon fill="none" stroke="black" points="460,-102 460,-120 483,-120 483,-102 460,-102"/>
<text text-anchor="start" x="473" y="-108.2" font-family="Helvetica,sans-Serif" font-size="11.00"> &#160;</text>
<polygon fill="#ffffff" stroke="transparent" points="483,-102 483,-120 507,-120 507,-102 483,-102"/>
<polygon fill="none" stroke="black" points="483,-102 483,-120 507,-120 507,-102 483,-102"/>
<text text-anchor="start" x="497" y="-108.2" font-family="Helvetica,sans-Serif" font-size="11.00"> &#160;</text>
</a>
</g>
</g>
<!-- reviews&#45;&gt;catalogs -->
<g id="edge3" class="edge">
<title>reviews:w&#45;&gt;catalogs:e</title>
<path fill="none" stroke="black" d="M402.24,-175.38C381.3,-192.91 405.38,-257 367.5,-257"/>
<polygon fill="black" stroke="black" points="408.38,-173.43 417.09,-174.43 412.19,-172.21 416,-171 416,-171 416,-171 412.19,-172.21 414.91,-167.57 408.38,-173.43 408.38,-173.43"/>
<ellipse fill="none" stroke="black" cx="405.33" cy="-174.4" rx="3.2" ry="3.2"/>
</g>
<!-- users -->
<g id="node5" class="node">
<title>users</title>
<g id="a_node5"><a xlink:href="../../tables/users.html" xlink:title="users" target="_top">
<polygon fill="#ffffff" stroke="transparent" points="227.5,-37 227.5,-95 303.5,-95 303.5,-37 227.5,-37"/>
<polygon fill="#f5f5f5" stroke="transparent" points="227.5,-73 227.5,-95 303.5,-95 303.5,-73 227.5,-73"/>
<polygon fill="none" stroke="black" points="227.5,-73 227.5,-95 303.5,-95 303.5,-73 227.5,-73"/>
<text text-anchor="start" x="231" y="-82.2" font-family="Helvetica,sans-Serif" font-weight="bold" font-size="11.00">users</text>
<text text-anchor="start" x="264.5" y="-81.2" font-family="Helvetica,sans-Serif" font-size="11.00">[table]</text>
<polygon fill="none" stroke="black" points="227.5,-55 227.5,-73 303.5,-73 303.5,-55 227.5,-55"/>
<text text-anchor="start" x="230.5" y="-61.2" font-family="Helvetica,sans-Serif" font-size="11.00">...</text>
<polygon fill="#ffffff" stroke="transparent" points="227.5,-37 227.5,-55 254.5,-55 254.5,-37 227.5,-37"/>
<polygon fill="none" stroke="black" points="227.5,-37 227.5,-55 254.5,-55 254.5,-37 227.5,-37"/>
<text text-anchor="start" x="230.5" y="-43.2" font-family="Helvetica,sans-Serif" font-size="11.00"> &#160;</text>
<polygon fill="#ffffff" stroke="transparent" points="254.5,-37 254.5,-55 274.5,-55 274.5,-37 254.5,-37"/>
<polygon fill="none" stroke="black" points="254.5,-37 254.5,-55 274.5,-55 274.5,-37 254.5,-37"/>
<text text-anchor="start" x="264.5" y="-43.2" font-family="Helvetica,sans-Serif" font-size="11.00"> &#160;</text>
<polygon fill="#ffffff" stroke="transparent" points="274.5,-37 274.5,-55 303.5,-55 303.5,-37 274.5,-37"/>
<polygon fill="none" stroke="black" points="274.5,-37 274.5,-55 303.5,-55 303.5,-37 274.5,-37"/>
<text text-anchor="start" x="284.5" y="-43.2" font-family="Helvetica,sans-Serif" font-size="11.00">1 &gt;</text>
</a>
</g>
</g>
<!-- reviews&#45;&gt;users -->
<g id="edge4" class="edge">
<title>reviews:w&#45;&gt;users:e</title>
<path fill="none" stroke="black" d="M401.92,-144.83C391.45,-136.69 391.43,-118.38 376,-106 347.26,-82.93 341.35,-64 304.5,-64"/>
<polygon fill="black" stroke="black" points="408.33,-146.73 414.98,-152.45 412.16,-147.86 416,-149 416,-149 416,-149 412.16,-147.86 417.02,-145.55 408.33,-146.73 408.33,-146.73"/>
<ellipse fill="none" stroke="black" cx="405.26" cy="-145.82" rx="3.2" ry="3.2"/>
</g>
</g>
</svg>
