<?xml version="1.0" encoding="UTF-8" standalone="no"?>
<!DOCTYPE svg PUBLIC "-//W3C//DTD SVG 1.1//EN"
 "http://www.w3.org/Graphics/SVG/1.1/DTD/svg11.dtd">
<!-- Generated by graphviz version 2.47.1 (20210515.0534)
 -->
<!-- Title: oneDegreeRelationshipsDiagram Pages: 1 -->
<svg width="370pt" height="201pt"
 viewBox="0.00 0.00 370.00 201.00" xmlns="http://www.w3.org/2000/svg" xmlns:xlink="http://www.w3.org/1999/xlink">
<g id="graph0" class="graph" transform="scale(1 1) rotate(0) translate(4 197)">
<title>oneDegreeRelationshipsDiagram</title>
<polygon fill="#ffffff" stroke="transparent" points="-4,4 -4,-197 366,-197 366,4 -4,4"/>
<text text-anchor="middle" x="73.5" y="-7.2" font-family="Helvetica,sans-Serif" font-size="11.00">Generated by SchemaSpy</text>
<!-- catalogs -->
<g id="node1" class="node">
<title>catalogs</title>
<g id="a_node1"><a xlink:href="../../tables/catalogs.html" xlink:title="catalogs" target="_top">
<polygon fill="#ffffff" stroke="transparent" points="261,-65 261,-189 354,-189 354,-65 261,-65"/>
<polygon fill="#f5f5f5" stroke="transparent" points="261.5,-167 261.5,-189 354.5,-189 354.5,-167 261.5,-167"/>
<polygon fill="none" stroke="black" points="261.5,-167 261.5,-189 354.5,-189 354.5,-167 261.5,-167"/>
<text text-anchor="start" x="266" y="-176.2" font-family="Helvetica,sans-Serif" font-weight="bold" font-size="11.00">catalogs</text>
<text text-anchor="start" x="315.5" y="-175.2" font-family="Helvetica,sans-Serif" font-size="11.00">[table]</text>
<polygon fill="none" stroke="black" points="261.5,-145 261.5,-167 354.5,-167 354.5,-145 261.5,-145"/>
<image xlink:href="../../images/primaryKeys.png" width="11px" height="12px" preserveAspectRatio="xMinYMin meet" x="266.5" y="-162"/>
<text text-anchor="start" x="283.5" y="-153.2" font-family="Helvetica,sans-Serif" font-size="11.00">id</text>
<polygon fill="#ffffff" stroke="transparent" points="261.5,-123 261.5,-145 354.5,-145 354.5,-123 261.5,-123"/>
<polygon fill="none" stroke="black" points="261.5,-123 261.5,-145 354.5,-145 354.5,-123 261.5,-123"/>
<image xlink:href="../../images/foreignKeys.png" width="11px" height="12px" preserveAspectRatio="xMinYMin meet" x="266.5" y="-140"/>
<text text-anchor="start" x="283.5" y="-131.2" font-family="Helvetica,sans-Serif" font-size="11.00">category_id</text>
<polygon fill="#ffffff" stroke="transparent" points="261.5,-101 261.5,-123 354.5,-123 354.5,-101 261.5,-101"/>
<polygon fill="none" stroke="black" points="261.5,-101 261.5,-123 354.5,-123 354.5,-101 261.5,-101"/>
<image xlink:href="../../images/foreignKeys.png" width="11px" height="12px" preserveAspectRatio="xMinYMin meet" x="266.5" y="-118"/>
<text text-anchor="start" x="283.5" y="-109.2" font-family="Helvetica,sans-Serif" font-size="11.00">genre_id</text>
<polygon fill="none" stroke="black" points="261.5,-83 261.5,-101 354.5,-101 354.5,-83 261.5,-83"/>
<text text-anchor="start" x="264.5" y="-89.2" font-family="Helvetica,sans-Serif" font-size="11.00">...</text>
<polygon fill="#ffffff" stroke="transparent" points="261.5,-65 261.5,-83 301.5,-83 301.5,-65 261.5,-65"/>
<polygon fill="none" stroke="black" points="261.5,-65 261.5,-83 301.5,-83 301.5,-65 261.5,-65"/>
<text text-anchor="start" x="264.5" y="-71.2" font-family="Helvetica,sans-Serif" font-size="11.00">&lt; 2</text>
<polygon fill="#ffffff" stroke="transparent" points="301.5,-65 301.5,-83 323.5,-83 323.5,-65 301.5,-65"/>
<polygon fill="none" stroke="black" points="301.5,-65 301.5,-83 323.5,-83 323.5,-65 301.5,-65"/>
<text text-anchor="start" x="313.5" y="-71.2" font-family="Helvetica,sans-Serif" font-size="11.00"> &#160;</text>
<polygon fill="#ffffff" stroke="transparent" points="323.5,-65 323.5,-83 354.5,-83 354.5,-65 323.5,-65"/>
<polygon fill="none" stroke="black" points="323.5,-65 323.5,-83 354.5,-83 354.5,-65 323.5,-65"/>
<text text-anchor="start" x="335.5" y="-71.2" font-family="Helvetica,sans-Serif" font-size="11.00">1 &gt;</text>
</a>
</g>
</g>
<!-- categories -->
<g id="node2" class="node">
<title>categories</title>
<g id="a_node2"><a xlink:href="../../tables/categories.html" xlink:title="categories" target="_top">
<polygon fill="#ffffff" stroke="transparent" points="8,-37 8,-169 212,-169 212,-37 8,-37"/>
<polygon fill="#f5f5f5" stroke="transparent" points="10,-145 10,-167 210,-167 210,-145 10,-145"/>
<polygon fill="none" stroke="black" points="10,-145 10,-167 210,-167 210,-145 10,-145"/>
<text text-anchor="start" x="15" y="-154.2" font-family="Helvetica,sans-Serif" font-weight="bold" font-size="11.00">categories</text>
<text text-anchor="start" x="171" y="-153.2" font-family="Helvetica,sans-Serif" font-size="11.00">[table]</text>
<polygon fill="none" stroke="black" points="10,-123 10,-145 98,-145 98,-123 10,-123"/>
<image xlink:href="../../images/primaryKeys.png" width="11px" height="12px" preserveAspectRatio="xMinYMin meet" x="15" y="-140"/>
<text text-anchor="start" x="30" y="-131.2" font-family="Helvetica,sans-Serif" font-size="11.00">id</text>
<polygon fill="none" stroke="black" points="98,-123 98,-145 210,-145 210,-123 98,-123"/>
<text text-anchor="start" x="101" y="-131.2" font-family="Helvetica,sans-Serif" font-size="11.00">bigserial[19]</text>
<polygon fill="none" stroke="black" points="10,-101 10,-123 98,-123 98,-101 10,-101"/>
<text text-anchor="start" x="30" y="-109.2" font-family="Helvetica,sans-Serif" font-size="11.00">kind</text>
<polygon fill="none" stroke="black" points="98,-101 98,-123 210,-123 210,-101 98,-101"/>
<text text-anchor="start" x="101" y="-109.2" font-family="Helvetica,sans-Serif" font-size="11.00">varchar[2147483647]</text>
<polygon fill="none" stroke="black" points="10,-79 10,-101 98,-101 98,-79 10,-79"/>
<text text-anchor="start" x="30" y="-87.2" font-family="Helvetica,sans-Serif" font-size="11.00">created_at</text>
<polygon fill="none" stroke="black" points="98,-79 98,-101 210,-101 210,-79 98,-79"/>
<text text-anchor="start" x="101" y="-87.2" font-family="Helvetica,sans-Serif" font-size="11.00">timestamp[29,6]</text>
<polygon fill="none" stroke="black" points="10,-57 10,-79 98,-79 98,-57 10,-57"/>
<text text-anchor="start" x="30" y="-65.2" font-family="Helvetica,sans-Serif" font-size="11.00">updated_at</text>
<polygon fill="none" stroke="black" points="98,-57 98,-79 210,-79 210,-57 98,-57"/>
<text text-anchor="start" x="101" y="-65.2" font-family="Helvetica,sans-Serif" font-size="11.00">timestamp[29,6]</text>
<polygon fill="#ffffff" stroke="transparent" points="10,-39 10,-57 58,-57 58,-39 10,-39"/>
<polygon fill="none" stroke="black" points="10,-39 10,-57 58,-57 58,-39 10,-39"/>
<text text-anchor="start" x="13" y="-45.2" font-family="Helvetica,sans-Serif" font-size="11.00">&lt; 0</text>
<polygon fill="#ffffff" stroke="transparent" points="58,-39 58,-57 98,-57 98,-39 58,-39"/>
<polygon fill="none" stroke="black" points="58,-39 58,-57 98,-57 98,-39 58,-39"/>
<text text-anchor="start" x="88" y="-45.2" font-family="Helvetica,sans-Serif" font-size="11.00"> &#160;</text>
<polygon fill="#ffffff" stroke="transparent" points="98,-39 98,-57 210,-57 210,-39 98,-39"/>
<polygon fill="none" stroke="black" points="98,-39 98,-57 210,-57 210,-39 98,-39"/>
<text text-anchor="start" x="191" y="-45.2" font-family="Helvetica,sans-Serif" font-size="11.00">1 &gt;</text>
<polygon fill="none" stroke="black" stroke-width="2" points="9,-38 9,-168 211,-168 211,-38 9,-38"/>
</a>
</g>
</g>
<!-- catalogs&#45;&gt;categories -->
<g id="edge1" class="edge">
<title>catalogs:w&#45;&gt;categories:e</title>
<path fill="none" stroke="black" d="M245.84,-134C234.41,-134 227.16,-134 211,-134"/>
<polygon fill="black" stroke="black" points="252.5,-134 260.5,-137.6 256.5,-134 260.5,-134 260.5,-134 260.5,-134 256.5,-134 260.5,-130.4 252.5,-134 252.5,-134"/>
<ellipse fill="none" stroke="black" cx="249.3" cy="-134" rx="3.2" ry="3.2"/>
</g>
</g>
</svg>
