<?xml version="1.0" encoding="UTF-8" standalone="no"?>
<!DOCTYPE svg PUBLIC "-//W3C//DTD SVG 1.1//EN"
 "http://www.w3.org/Graphics/SVG/1.1/DTD/svg11.dtd">
<!-- Generated by graphviz version 2.47.1 (20210515.0534)
 -->
<!-- Title: twoDegreesRelationshipsDiagram Pages: 1 -->
<svg width="509pt" height="260pt"
 viewBox="0.00 0.00 509.00 260.00" xmlns="http://www.w3.org/2000/svg" xmlns:xlink="http://www.w3.org/1999/xlink">
<g id="graph0" class="graph" transform="scale(1 1) rotate(0) translate(4 256)">
<title>twoDegreesRelationshipsDiagram</title>
<polygon fill="#ffffff" stroke="transparent" points="-4,4 -4,-256 505,-256 505,4 -4,4"/>
<text text-anchor="middle" x="73.5" y="-7.2" font-family="Helvetica,sans-Serif" font-size="11.00">Generated by SchemaSpy</text>
<!-- catalogs -->
<g id="node1" class="node">
<title>catalogs</title>
<g id="a_node1"><a xlink:href="../../tables/catalogs.html" xlink:title="catalogs" target="_top">
<polygon fill="#ffffff" stroke="transparent" points="261,-80 261,-204 354,-204 354,-80 261,-80"/>
<polygon fill="#f5f5f5" stroke="transparent" points="261.5,-182 261.5,-204 354.5,-204 354.5,-182 261.5,-182"/>
<polygon fill="none" stroke="black" points="261.5,-182 261.5,-204 354.5,-204 354.5,-182 261.5,-182"/>
<text text-anchor="start" x="266" y="-191.2" font-family="Helvetica,sans-Serif" font-weight="bold" font-size="11.00">catalogs</text>
<text text-anchor="start" x="315.5" y="-190.2" font-family="Helvetica,sans-Serif" font-size="11.00">[table]</text>
<polygon fill="none" stroke="black" points="261.5,-160 261.5,-182 354.5,-182 354.5,-160 261.5,-160"/>
<image xlink:href="../../images/primaryKeys.png" width="11px" height="12px" preserveAspectRatio="xMinYMin meet" x="266.5" y="-177"/>
<text text-anchor="start" x="283.5" y="-168.2" font-family="Helvetica,sans-Serif" font-size="11.00">id</text>
<polygon fill="#ffffff" stroke="transparent" points="261.5,-138 261.5,-160 354.5,-160 354.5,-138 261.5,-138"/>
<polygon fill="none" stroke="black" points="261.5,-138 261.5,-160 354.5,-160 354.5,-138 261.5,-138"/>
<image xlink:href="../../images/foreignKeys.png" width="11px" height="12px" preserveAspectRatio="xMinYMin meet" x="266.5" y="-155"/>
<text text-anchor="start" x="283.5" y="-146.2" font-family="Helvetica,sans-Serif" font-size="11.00">category_id</text>
<polygon fill="#ffffff" stroke="transparent" points="261.5,-116 261.5,-138 354.5,-138 354.5,-116 261.5,-116"/>
<polygon fill="none" stroke="black" points="261.5,-116 261.5,-138 354.5,-138 354.5,-116 261.5,-116"/>
<image xlink:href="../../images/foreignKeys.png" width="11px" height="12px" preserveAspectRatio="xMinYMin meet" x="266.5" y="-133"/>
<text text-anchor="start" x="283.5" y="-124.2" font-family="Helvetica,sans-Serif" font-size="11.00">genre_id</text>
<polygon fill="none" stroke="black" points="261.5,-98 261.5,-116 354.5,-116 354.5,-98 261.5,-98"/>
<text text-anchor="start" x="264.5" y="-104.2" font-family="Helvetica,sans-Serif" font-size="11.00">...</text>
<polygon fill="#ffffff" stroke="transparent" points="261.5,-80 261.5,-98 301.5,-98 301.5,-80 261.5,-80"/>
<polygon fill="none" stroke="black" points="261.5,-80 261.5,-98 301.5,-98 301.5,-80 261.5,-80"/>
<text text-anchor="start" x="264.5" y="-86.2" font-family="Helvetica,sans-Serif" font-size="11.00">&lt; 2</text>
<polygon fill="#ffffff" stroke="transparent" points="301.5,-80 301.5,-98 323.5,-98 323.5,-80 301.5,-80"/>
<polygon fill="none" stroke="black" points="301.5,-80 301.5,-98 323.5,-98 323.5,-80 301.5,-80"/>
<text text-anchor="start" x="313.5" y="-86.2" font-family="Helvetica,sans-Serif" font-size="11.00"> &#160;</text>
<polygon fill="#ffffff" stroke="transparent" points="323.5,-80 323.5,-98 354.5,-98 354.5,-80 323.5,-80"/>
<polygon fill="none" stroke="black" points="323.5,-80 323.5,-98 354.5,-98 354.5,-80 323.5,-80"/>
<text text-anchor="start" x="335.5" y="-86.2" font-family="Helvetica,sans-Serif" font-size="11.00">1 &gt;</text>
</a>
</g>
</g>
<!-- categories -->
<g id="node2" class="node">
<title>categories</title>
<g id="a_node2"><a xlink:href="../../tables/categories.html" xlink:title="categories" target="_top">
<polygon fill="#ffffff" stroke="transparent" points="8,-116 8,-248 212,-248 212,-116 8,-116"/>
<polygon fill="#f5f5f5" stroke="transparent" points="10,-224 10,-246 210,-246 210,-224 10,-224"/>
<polygon fill="none" stroke="black" points="10,-224 10,-246 210,-246 210,-224 10,-224"/>
<text text-anchor="start" x="15" y="-233.2" font-family="Helvetica,sans-Serif" font-weight="bold" font-size="11.00">categories</text>
<text text-anchor="start" x="171" y="-232.2" font-family="Helvetica,sans-Serif" font-size="11.00">[table]</text>
<polygon fill="none" stroke="black" points="10,-202 10,-224 98,-224 98,-202 10,-202"/>
<image xlink:href="../../images/primaryKeys.png" width="11px" height="12px" preserveAspectRatio="xMinYMin meet" x="15" y="-219"/>
<text text-anchor="start" x="30" y="-210.2" font-family="Helvetica,sans-Serif" font-size="11.00">id</text>
<polygon fill="none" stroke="black" points="98,-202 98,-224 210,-224 210,-202 98,-202"/>
<text text-anchor="start" x="101" y="-210.2" font-family="Helvetica,sans-Serif" font-size="11.00">bigserial[19]</text>
<polygon fill="none" stroke="black" points="10,-180 10,-202 98,-202 98,-180 10,-180"/>
<text text-anchor="start" x="30" y="-188.2" font-family="Helvetica,sans-Serif" font-size="11.00">kind</text>
<polygon fill="none" stroke="black" points="98,-180 98,-202 210,-202 210,-180 98,-180"/>
<text text-anchor="start" x="101" y="-188.2" font-family="Helvetica,sans-Serif" font-size="11.00">varchar[2147483647]</text>
<polygon fill="none" stroke="black" points="10,-158 10,-180 98,-180 98,-158 10,-158"/>
<text text-anchor="start" x="30" y="-166.2" font-family="Helvetica,sans-Serif" font-size="11.00">created_at</text>
<polygon fill="none" stroke="black" points="98,-158 98,-180 210,-180 210,-158 98,-158"/>
<text text-anchor="start" x="101" y="-166.2" font-family="Helvetica,sans-Serif" font-size="11.00">timestamp[29,6]</text>
<polygon fill="none" stroke="black" points="10,-136 10,-158 98,-158 98,-136 10,-136"/>
<text text-anchor="start" x="30" y="-144.2" font-family="Helvetica,sans-Serif" font-size="11.00">updated_at</text>
<polygon fill="none" stroke="black" points="98,-136 98,-158 210,-158 210,-136 98,-136"/>
<text text-anchor="start" x="101" y="-144.2" font-family="Helvetica,sans-Serif" font-size="11.00">timestamp[29,6]</text>
<polygon fill="#ffffff" stroke="transparent" points="10,-118 10,-136 58,-136 58,-118 10,-118"/>
<polygon fill="none" stroke="black" points="10,-118 10,-136 58,-136 58,-118 10,-118"/>
<text text-anchor="start" x="13" y="-124.2" font-family="Helvetica,sans-Serif" font-size="11.00">&lt; 0</text>
<polygon fill="#ffffff" stroke="transparent" points="58,-118 58,-136 98,-136 98,-118 58,-118"/>
<polygon fill="none" stroke="black" points="58,-118 58,-136 98,-136 98,-118 58,-118"/>
<text text-anchor="start" x="88" y="-124.2" font-family="Helvetica,sans-Serif" font-size="11.00"> &#160;</text>
<polygon fill="#ffffff" stroke="transparent" points="98,-118 98,-136 210,-136 210,-118 98,-118"/>
<polygon fill="none" stroke="black" points="98,-118 98,-136 210,-136 210,-118 98,-118"/>
<text text-anchor="start" x="191" y="-124.2" font-family="Helvetica,sans-Serif" font-size="11.00">1 &gt;</text>
<polygon fill="none" stroke="black" stroke-width="2" points="9,-117 9,-247 211,-247 211,-117 9,-117"/>
</a>
</g>
</g>
<!-- catalogs&#45;&gt;categories -->
<g id="edge1" class="edge">
<title>catalogs:w&#45;&gt;categories:e</title>
<path fill="none" stroke="black" d="M246.54,-154.02C230.52,-169.11 240.78,-213 211,-213"/>
<polygon fill="black" stroke="black" points="252.97,-151.71 261.72,-152.39 256.74,-150.35 260.5,-149 260.5,-149 260.5,-149 256.74,-150.35 259.28,-145.61 252.97,-151.71 252.97,-151.71"/>
<ellipse fill="none" stroke="black" cx="249.96" cy="-152.79" rx="3.2" ry="3.2"/>
</g>
<!-- genres -->
<g id="node3" class="node">
<title>genres</title>
<g id="a_node3"><a xlink:href="../../tables/genres.html" xlink:title="genres" target="_top">
<polygon fill="#ffffff" stroke="transparent" points="68,-37 68,-95 152,-95 152,-37 68,-37"/>
<polygon fill="#f5f5f5" stroke="transparent" points="68,-73 68,-95 152,-95 152,-73 68,-73"/>
<polygon fill="none" stroke="black" points="68,-73 68,-95 152,-95 152,-73 68,-73"/>
<text text-anchor="start" x="72" y="-82.2" font-family="Helvetica,sans-Serif" font-weight="bold" font-size="11.00">genres</text>
<text text-anchor="start" x="113" y="-81.2" font-family="Helvetica,sans-Serif" font-size="11.00">[table]</text>
<polygon fill="none" stroke="black" points="68,-55 68,-73 152,-73 152,-55 68,-55"/>
<text text-anchor="start" x="71" y="-61.2" font-family="Helvetica,sans-Serif" font-size="11.00">...</text>
<polygon fill="#ffffff" stroke="transparent" points="68,-37 68,-55 99,-55 99,-37 68,-37"/>
<polygon fill="none" stroke="black" points="68,-37 68,-55 99,-55 99,-37 68,-37"/>
<text text-anchor="start" x="71" y="-43.2" font-family="Helvetica,sans-Serif" font-size="11.00"> &#160;</text>
<polygon fill="#ffffff" stroke="transparent" points="99,-37 99,-55 121,-55 121,-37 99,-37"/>
<polygon fill="none" stroke="black" points="99,-37 99,-55 121,-55 121,-37 99,-37"/>
<text text-anchor="start" x="111" y="-43.2" font-family="Helvetica,sans-Serif" font-size="11.00"> &#160;</text>
<polygon fill="#ffffff" stroke="transparent" points="121,-37 121,-55 152,-55 152,-37 121,-37"/>
<polygon fill="none" stroke="black" points="121,-37 121,-55 152,-55 152,-37 121,-37"/>
<text text-anchor="start" x="133" y="-43.2" font-family="Helvetica,sans-Serif" font-size="11.00">1 &gt;</text>
</a>
</g>
</g>
<!-- catalogs&#45;&gt;genres -->
<g id="edge2" class="edge">
<title>catalogs:w&#45;&gt;genres:e</title>
<path fill="none" stroke="black" d="M247.02,-121.41C219.57,-105.99 164.3,-64 153,-64"/>
<polygon fill="black" stroke="black" points="253.11,-123.93 259.12,-130.33 256.81,-125.47 260.5,-127 260.5,-127 260.5,-127 256.81,-125.47 261.88,-123.67 253.11,-123.93 253.11,-123.93"/>
<ellipse fill="none" stroke="black" cx="250.15" cy="-122.71" rx="3.2" ry="3.2"/>
</g>
<!-- reviews -->
<g id="node4" class="node">
<title>reviews</title>
<g id="a_node4"><a xlink:href="../../tables/reviews.html" xlink:title="reviews" target="_top">
<polygon fill="#ffffff" stroke="transparent" points="403,-144 403,-202 493,-202 493,-144 403,-144"/>
<polygon fill="#f5f5f5" stroke="transparent" points="403,-180 403,-202 493,-202 493,-180 403,-180"/>
<polygon fill="none" stroke="black" points="403,-180 403,-202 493,-202 493,-180 403,-180"/>
<text text-anchor="start" x="407.5" y="-189.2" font-family="Helvetica,sans-Serif" font-weight="bold" font-size="11.00">reviews</text>
<text text-anchor="start" x="454" y="-188.2" font-family="Helvetica,sans-Serif" font-size="11.00">[table]</text>
<polygon fill="none" stroke="black" points="403,-162 403,-180 493,-180 493,-162 403,-162"/>
<text text-anchor="start" x="406" y="-168.2" font-family="Helvetica,sans-Serif" font-size="11.00">...</text>
<polygon fill="#ffffff" stroke="transparent" points="403,-144 403,-162 446,-162 446,-144 403,-144"/>
<polygon fill="none" stroke="black" points="403,-144 403,-162 446,-162 446,-144 403,-144"/>
<text text-anchor="start" x="406" y="-150.2" font-family="Helvetica,sans-Serif" font-size="11.00">&lt; 2</text>
<polygon fill="#ffffff" stroke="transparent" points="446,-144 446,-162 469,-162 469,-144 446,-144"/>
<polygon fill="none" stroke="black" points="446,-144 446,-162 469,-162 469,-144 446,-144"/>
<text text-anchor="start" x="459" y="-150.2" font-family="Helvetica,sans-Serif" font-size="11.00"> &#160;</text>
<polygon fill="#ffffff" stroke="transparent" points="469,-144 469,-162 493,-162 493,-144 469,-144"/>
<polygon fill="none" stroke="black" points="469,-144 469,-162 493,-162 493,-144 469,-144"/>
<text text-anchor="start" x="483" y="-150.2" font-family="Helvetica,sans-Serif" font-size="11.00"> &#160;</text>
</a>
</g>
</g>
<!-- reviews&#45;&gt;catalogs -->
<g id="edge3" class="edge">
<title>reviews:w&#45;&gt;catalogs:e</title>
<path fill="none" stroke="black" d="M387.55,-171C377.2,-171 370.35,-171 355.5,-171"/>
<polygon fill="black" stroke="black" points="394,-171 402,-174.6 398,-171 402,-171 402,-171 402,-171 398,-171 402,-167.4 394,-171 394,-171"/>
<ellipse fill="none" stroke="black" cx="390.8" cy="-171" rx="3.2" ry="3.2"/>
</g>
</g>
</svg>
