<?xml version="1.0" encoding="UTF-8" standalone="no"?>
<!DOCTYPE svg PUBLIC "-//W3C//DTD SVG 1.1//EN"
 "http://www.w3.org/Graphics/SVG/1.1/DTD/svg11.dtd">
<!-- Generated by graphviz version 2.47.1 (20210515.0534)
 -->
<!-- Title: twoDegreesRelationshipsDiagram Pages: 1 -->
<svg width="509pt" height="260pt"
 viewBox="0.00 0.00 509.00 260.00" xmlns="http://www.w3.org/2000/svg" xmlns:xlink="http://www.w3.org/1999/xlink">
<g id="graph0" class="graph" transform="scale(1 1) rotate(0) translate(4 256)">
<title>twoDegreesRelationshipsDiagram</title>
<polygon fill="#ffffff" stroke="transparent" points="-4,4 -4,-256 505,-256 505,4 -4,4"/>
<text text-anchor="middle" x="73.5" y="-7.2" font-family="Helvetica,sans-Serif" font-size="11.00">Generated by SchemaSpy</text>
<!-- catalogs -->
<g id="node1" class="node">
<title>catalogs</title>
<g id="a_node1"><a xlink:href="../../tables/catalogs.html" xlink:title="catalogs" target="_top">
<polygon fill="#ffffff" stroke="transparent" points="261,-117 261,-241 354,-241 354,-117 261,-117"/>
<polygon fill="#f5f5f5" stroke="transparent" points="261.5,-219 261.5,-241 354.5,-241 354.5,-219 261.5,-219"/>
<polygon fill="none" stroke="black" points="261.5,-219 261.5,-241 354.5,-241 354.5,-219 261.5,-219"/>
<text text-anchor="start" x="266" y="-228.2" font-family="Helvetica,sans-Serif" font-weight="bold" font-size="11.00">catalogs</text>
<text text-anchor="start" x="315.5" y="-227.2" font-family="Helvetica,sans-Serif" font-size="11.00">[table]</text>
<polygon fill="none" stroke="black" points="261.5,-197 261.5,-219 354.5,-219 354.5,-197 261.5,-197"/>
<image xlink:href="../../images/primaryKeys.png" width="11px" height="12px" preserveAspectRatio="xMinYMin meet" x="266.5" y="-214"/>
<text text-anchor="start" x="283.5" y="-205.2" font-family="Helvetica,sans-Serif" font-size="11.00">id</text>
<polygon fill="#ffffff" stroke="transparent" points="261.5,-175 261.5,-197 354.5,-197 354.5,-175 261.5,-175"/>
<polygon fill="none" stroke="black" points="261.5,-175 261.5,-197 354.5,-197 354.5,-175 261.5,-175"/>
<image xlink:href="../../images/foreignKeys.png" width="11px" height="12px" preserveAspectRatio="xMinYMin meet" x="266.5" y="-192"/>
<text text-anchor="start" x="283.5" y="-183.2" font-family="Helvetica,sans-Serif" font-size="11.00">category_id</text>
<polygon fill="#ffffff" stroke="transparent" points="261.5,-153 261.5,-175 354.5,-175 354.5,-153 261.5,-153"/>
<polygon fill="none" stroke="black" points="261.5,-153 261.5,-175 354.5,-175 354.5,-153 261.5,-153"/>
<image xlink:href="../../images/foreignKeys.png" width="11px" height="12px" preserveAspectRatio="xMinYMin meet" x="266.5" y="-170"/>
<text text-anchor="start" x="283.5" y="-161.2" font-family="Helvetica,sans-Serif" font-size="11.00">genre_id</text>
<polygon fill="none" stroke="black" points="261.5,-135 261.5,-153 354.5,-153 354.5,-135 261.5,-135"/>
<text text-anchor="start" x="264.5" y="-141.2" font-family="Helvetica,sans-Serif" font-size="11.00">...</text>
<polygon fill="#ffffff" stroke="transparent" points="261.5,-117 261.5,-135 301.5,-135 301.5,-117 261.5,-117"/>
<polygon fill="none" stroke="black" points="261.5,-117 261.5,-135 301.5,-135 301.5,-117 261.5,-117"/>
<text text-anchor="start" x="264.5" y="-123.2" font-family="Helvetica,sans-Serif" font-size="11.00">&lt; 2</text>
<polygon fill="#ffffff" stroke="transparent" points="301.5,-117 301.5,-135 323.5,-135 323.5,-117 301.5,-117"/>
<polygon fill="none" stroke="black" points="301.5,-117 301.5,-135 323.5,-135 323.5,-117 301.5,-117"/>
<text text-anchor="start" x="313.5" y="-123.2" font-family="Helvetica,sans-Serif" font-size="11.00"> &#160;</text>
<polygon fill="#ffffff" stroke="transparent" points="323.5,-117 323.5,-135 354.5,-135 354.5,-117 323.5,-117"/>
<polygon fill="none" stroke="black" points="323.5,-117 323.5,-135 354.5,-135 354.5,-117 323.5,-117"/>
<text text-anchor="start" x="335.5" y="-123.2" font-family="Helvetica,sans-Serif" font-size="11.00">1 &gt;</text>
</a>
</g>
</g>
<!-- categories -->
<g id="node2" class="node">
<title>categories</title>
<g id="a_node2"><a xlink:href="../../tables/categories.html" xlink:title="categories" target="_top">
<polygon fill="#ffffff" stroke="transparent" points="57,-190 57,-248 163,-248 163,-190 57,-190"/>
<polygon fill="#f5f5f5" stroke="transparent" points="57,-226 57,-248 163,-248 163,-226 57,-226"/>
<polygon fill="none" stroke="black" points="57,-226 57,-248 163,-248 163,-226 57,-226"/>
<text text-anchor="start" x="62" y="-235.2" font-family="Helvetica,sans-Serif" font-weight="bold" font-size="11.00">categories</text>
<text text-anchor="start" x="124" y="-234.2" font-family="Helvetica,sans-Serif" font-size="11.00">[table]</text>
<polygon fill="none" stroke="black" points="57,-208 57,-226 163,-226 163,-208 57,-208"/>
<text text-anchor="start" x="60" y="-214.2" font-family="Helvetica,sans-Serif" font-size="11.00">...</text>
<polygon fill="#ffffff" stroke="transparent" points="57,-190 57,-208 99,-208 99,-190 57,-190"/>
<polygon fill="none" stroke="black" points="57,-190 57,-208 99,-208 99,-190 57,-190"/>
<text text-anchor="start" x="60" y="-196.2" font-family="Helvetica,sans-Serif" font-size="11.00"> &#160;</text>
<polygon fill="#ffffff" stroke="transparent" points="99,-190 99,-208 126,-208 126,-190 99,-190"/>
<polygon fill="none" stroke="black" points="99,-190 99,-208 126,-208 126,-190 99,-190"/>
<text text-anchor="start" x="116" y="-196.2" font-family="Helvetica,sans-Serif" font-size="11.00"> &#160;</text>
<polygon fill="#ffffff" stroke="transparent" points="126,-190 126,-208 163,-208 163,-190 126,-190"/>
<polygon fill="none" stroke="black" points="126,-190 126,-208 163,-208 163,-190 126,-190"/>
<text text-anchor="start" x="144" y="-196.2" font-family="Helvetica,sans-Serif" font-size="11.00">1 &gt;</text>
</a>
</g>
</g>
<!-- catalogs&#45;&gt;categories -->
<g id="edge1" class="edge">
<title>catalogs:w&#45;&gt;categories:e</title>
<path fill="none" stroke="black" d="M246.13,-187.18C213.42,-192.84 203.77,-217 164,-217"/>
<polygon fill="black" stroke="black" points="252.53,-186.65 260.79,-189.59 256.51,-186.33 260.5,-186 260.5,-186 260.5,-186 256.51,-186.33 260.21,-182.41 252.53,-186.65 252.53,-186.65"/>
<ellipse fill="none" stroke="black" cx="249.34" cy="-186.91" rx="3.2" ry="3.2"/>
</g>
<!-- genres -->
<g id="node3" class="node">
<title>genres</title>
<g id="a_node3"><a xlink:href="../../tables/genres.html" xlink:title="genres" target="_top">
<polygon fill="#ffffff" stroke="transparent" points="8,-37 8,-169 212,-169 212,-37 8,-37"/>
<polygon fill="#f5f5f5" stroke="transparent" points="10,-145 10,-167 210,-167 210,-145 10,-145"/>
<polygon fill="none" stroke="black" points="10,-145 10,-167 210,-167 210,-145 10,-145"/>
<text text-anchor="start" x="14" y="-154.2" font-family="Helvetica,sans-Serif" font-weight="bold" font-size="11.00">genres</text>
<text text-anchor="start" x="171" y="-153.2" font-family="Helvetica,sans-Serif" font-size="11.00">[table]</text>
<polygon fill="none" stroke="black" points="10,-123 10,-145 98,-145 98,-123 10,-123"/>
<image xlink:href="../../images/primaryKeys.png" width="11px" height="12px" preserveAspectRatio="xMinYMin meet" x="15" y="-140"/>
<text text-anchor="start" x="30" y="-131.2" font-family="Helvetica,sans-Serif" font-size="11.00">id</text>
<polygon fill="none" stroke="black" points="98,-123 98,-145 210,-145 210,-123 98,-123"/>
<text text-anchor="start" x="101" y="-131.2" font-family="Helvetica,sans-Serif" font-size="11.00">bigserial[19]</text>
<polygon fill="none" stroke="black" points="10,-101 10,-123 98,-123 98,-101 10,-101"/>
<text text-anchor="start" x="30" y="-109.2" font-family="Helvetica,sans-Serif" font-size="11.00">kind</text>
<polygon fill="none" stroke="black" points="98,-101 98,-123 210,-123 210,-101 98,-101"/>
<text text-anchor="start" x="101" y="-109.2" font-family="Helvetica,sans-Serif" font-size="11.00">varchar[2147483647]</text>
<polygon fill="none" stroke="black" points="10,-79 10,-101 98,-101 98,-79 10,-79"/>
<text text-anchor="start" x="30" y="-87.2" font-family="Helvetica,sans-Serif" font-size="11.00">created_at</text>
<polygon fill="none" stroke="black" points="98,-79 98,-101 210,-101 210,-79 98,-79"/>
<text text-anchor="start" x="101" y="-87.2" font-family="Helvetica,sans-Serif" font-size="11.00">timestamp[29,6]</text>
<polygon fill="none" stroke="black" points="10,-57 10,-79 98,-79 98,-57 10,-57"/>
<text text-anchor="start" x="30" y="-65.2" font-family="Helvetica,sans-Serif" font-size="11.00">updated_at</text>
<polygon fill="none" stroke="black" points="98,-57 98,-79 210,-79 210,-57 98,-57"/>
<text text-anchor="start" x="101" y="-65.2" font-family="Helvetica,sans-Serif" font-size="11.00">timestamp[29,6]</text>
<polygon fill="#ffffff" stroke="transparent" points="10,-39 10,-57 58,-57 58,-39 10,-39"/>
<polygon fill="none" stroke="black" points="10,-39 10,-57 58,-57 58,-39 10,-39"/>
<text text-anchor="start" x="13" y="-45.2" font-family="Helvetica,sans-Serif" font-size="11.00">&lt; 0</text>
<polygon fill="#ffffff" stroke="transparent" points="58,-39 58,-57 98,-57 98,-39 58,-39"/>
<polygon fill="none" stroke="black" points="58,-39 58,-57 98,-57 98,-39 58,-39"/>
<text text-anchor="start" x="88" y="-45.2" font-family="Helvetica,sans-Serif" font-size="11.00"> &#160;</text>
<polygon fill="#ffffff" stroke="transparent" points="98,-39 98,-57 210,-57 210,-39 98,-39"/>
<polygon fill="none" stroke="black" points="98,-39 98,-57 210,-57 210,-39 98,-39"/>
<text text-anchor="start" x="191" y="-45.2" font-family="Helvetica,sans-Serif" font-size="11.00">1 &gt;</text>
<polygon fill="none" stroke="black" stroke-width="2" points="9,-38 9,-168 211,-168 211,-38 9,-38"/>
</a>
</g>
</g>
<!-- catalogs&#45;&gt;genres -->
<g id="edge2" class="edge">
<title>catalogs:w&#45;&gt;genres:e</title>
<path fill="none" stroke="black" d="M246.63,-160.08C234.24,-151.95 230.9,-134 211,-134"/>
<polygon fill="black" stroke="black" points="252.8,-161.82 259.52,-167.46 256.65,-162.91 260.5,-164 260.5,-164 260.5,-164 256.65,-162.91 261.48,-160.54 252.8,-161.82 252.8,-161.82"/>
<ellipse fill="none" stroke="black" cx="249.72" cy="-160.95" rx="3.2" ry="3.2"/>
</g>
<!-- reviews -->
<g id="node4" class="node">
<title>reviews</title>
<g id="a_node4"><a xlink:href="../../tables/reviews.html" xlink:title="reviews" target="_top">
<polygon fill="#ffffff" stroke="transparent" points="403,-181 403,-239 493,-239 493,-181 403,-181"/>
<polygon fill="#f5f5f5" stroke="transparent" points="403,-217 403,-239 493,-239 493,-217 403,-217"/>
<polygon fill="none" stroke="black" points="403,-217 403,-239 493,-239 493,-217 403,-217"/>
<text text-anchor="start" x="407.5" y="-226.2" font-family="Helvetica,sans-Serif" font-weight="bold" font-size="11.00">reviews</text>
<text text-anchor="start" x="454" y="-225.2" font-family="Helvetica,sans-Serif" font-size="11.00">[table]</text>
<polygon fill="none" stroke="black" points="403,-199 403,-217 493,-217 493,-199 403,-199"/>
<text text-anchor="start" x="406" y="-205.2" font-family="Helvetica,sans-Serif" font-size="11.00">...</text>
<polygon fill="#ffffff" stroke="transparent" points="403,-181 403,-199 446,-199 446,-181 403,-181"/>
<polygon fill="none" stroke="black" points="403,-181 403,-199 446,-199 446,-181 403,-181"/>
<text text-anchor="start" x="406" y="-187.2" font-family="Helvetica,sans-Serif" font-size="11.00">&lt; 2</text>
<polygon fill="#ffffff" stroke="transparent" points="446,-181 446,-199 469,-199 469,-181 446,-181"/>
<polygon fill="none" stroke="black" points="446,-181 446,-199 469,-199 469,-181 446,-181"/>
<text text-anchor="start" x="459" y="-187.2" font-family="Helvetica,sans-Serif" font-size="11.00"> &#160;</text>
<polygon fill="#ffffff" stroke="transparent" points="469,-181 469,-199 493,-199 493,-181 469,-181"/>
<polygon fill="none" stroke="black" points="469,-181 469,-199 493,-199 493,-181 469,-181"/>
<text text-anchor="start" x="483" y="-187.2" font-family="Helvetica,sans-Serif" font-size="11.00"> &#160;</text>
</a>
</g>
</g>
<!-- reviews&#45;&gt;catalogs -->
<g id="edge3" class="edge">
<title>reviews:w&#45;&gt;catalogs:e</title>
<path fill="none" stroke="black" d="M387.55,-208C377.2,-208 370.35,-208 355.5,-208"/>
<polygon fill="black" stroke="black" points="394,-208 402,-211.6 398,-208 402,-208 402,-208 402,-208 398,-208 402,-204.4 394,-208 394,-208"/>
<ellipse fill="none" stroke="black" cx="390.8" cy="-208" rx="3.2" ry="3.2"/>
</g>
</g>
</svg>
