<?xml version="1.0" encoding="UTF-8" standalone="no"?>
<!DOCTYPE svg PUBLIC "-//W3C//DTD SVG 1.1//EN"
 "http://www.w3.org/Graphics/SVG/1.1/DTD/svg11.dtd">
<!-- Generated by graphviz version 2.47.1 (20210515.0534)
 -->
<!-- Title: oneDegreeRelationshipsDiagram Pages: 1 -->
<svg width="421pt" height="368pt"
 viewBox="0.00 0.00 421.00 368.00" xmlns="http://www.w3.org/2000/svg" xmlns:xlink="http://www.w3.org/1999/xlink">
<g id="graph0" class="graph" transform="scale(1 1) rotate(0) translate(4 364)">
<title>oneDegreeRelationshipsDiagram</title>
<polygon fill="#ffffff" stroke="transparent" points="-4,4 -4,-364 417,-364 417,4 -4,4"/>
<text text-anchor="middle" x="73.5" y="-7.2" font-family="Helvetica,sans-Serif" font-size="11.00">Generated by SchemaSpy</text>
<!-- reviews -->
<g id="node1" class="node">
<title>reviews</title>
<g id="a_node1"><a xlink:href="../../tables/reviews.html" xlink:title="reviews" target="_top">
<polygon fill="#ffffff" stroke="transparent" points="219,-158 219,-356 405,-356 405,-158 219,-158"/>
<polygon fill="#f5f5f5" stroke="transparent" points="221,-332 221,-354 403,-354 403,-332 221,-332"/>
<polygon fill="none" stroke="black" points="221,-332 221,-354 403,-354 403,-332 221,-332"/>
<text text-anchor="start" x="225.5" y="-341.2" font-family="Helvetica,sans-Serif" font-weight="bold" font-size="11.00">reviews</text>
<text text-anchor="start" x="364" y="-340.2" font-family="Helvetica,sans-Serif" font-size="11.00">[table]</text>
<polygon fill="none" stroke="black" points="221,-310 221,-332 309,-332 309,-310 221,-310"/>
<image xlink:href="../../images/primaryKeys.png" width="11px" height="12px" preserveAspectRatio="xMinYMin meet" x="226" y="-327"/>
<text text-anchor="start" x="241" y="-318.2" font-family="Helvetica,sans-Serif" font-size="11.00">id</text>
<polygon fill="none" stroke="black" points="309,-310 309,-332 403,-332 403,-310 309,-310"/>
<text text-anchor="start" x="312" y="-318.2" font-family="Helvetica,sans-Serif" font-size="11.00">bigserial[19]</text>
<polygon fill="none" stroke="black" points="221,-288 221,-310 309,-310 309,-288 221,-288"/>
<text text-anchor="start" x="241" y="-296.2" font-family="Helvetica,sans-Serif" font-size="11.00">rating</text>
<polygon fill="none" stroke="black" points="309,-288 309,-310 403,-310 403,-288 309,-288"/>
<text text-anchor="start" x="312" y="-296.2" font-family="Helvetica,sans-Serif" font-size="11.00">int4[10]</text>
<polygon fill="none" stroke="black" points="221,-266 221,-288 309,-288 309,-266 221,-266"/>
<text text-anchor="start" x="241" y="-274.2" font-family="Helvetica,sans-Serif" font-size="11.00">comment</text>
<polygon fill="none" stroke="black" points="309,-266 309,-288 403,-288 403,-266 309,-266"/>
<text text-anchor="start" x="312" y="-274.2" font-family="Helvetica,sans-Serif" font-size="11.00">text[2147483647]</text>
<polygon fill="#ffffff" stroke="transparent" points="221,-244 221,-266 309,-266 309,-244 221,-244"/>
<polygon fill="none" stroke="black" points="221,-244 221,-266 309,-266 309,-244 221,-244"/>
<image xlink:href="../../images/foreignKeys.png" width="11px" height="12px" preserveAspectRatio="xMinYMin meet" x="226" y="-261"/>
<text text-anchor="start" x="241" y="-252.2" font-family="Helvetica,sans-Serif" font-size="11.00">catalog_id</text>
<polygon fill="none" stroke="black" points="309,-244 309,-266 403,-266 403,-244 309,-244"/>
<text text-anchor="start" x="312" y="-252.2" font-family="Helvetica,sans-Serif" font-size="11.00">int8[19]</text>
<polygon fill="none" stroke="black" points="221,-222 221,-244 309,-244 309,-222 221,-222"/>
<text text-anchor="start" x="241" y="-230.2" font-family="Helvetica,sans-Serif" font-size="11.00">created_at</text>
<polygon fill="none" stroke="black" points="309,-222 309,-244 403,-244 403,-222 309,-222"/>
<text text-anchor="start" x="312" y="-230.2" font-family="Helvetica,sans-Serif" font-size="11.00">timestamp[29,6]</text>
<polygon fill="none" stroke="black" points="221,-200 221,-222 309,-222 309,-200 221,-200"/>
<text text-anchor="start" x="241" y="-208.2" font-family="Helvetica,sans-Serif" font-size="11.00">updated_at</text>
<polygon fill="none" stroke="black" points="309,-200 309,-222 403,-222 403,-200 309,-200"/>
<text text-anchor="start" x="312" y="-208.2" font-family="Helvetica,sans-Serif" font-size="11.00">timestamp[29,6]</text>
<polygon fill="#ffffff" stroke="transparent" points="221,-178 221,-200 309,-200 309,-178 221,-178"/>
<polygon fill="none" stroke="black" points="221,-178 221,-200 309,-200 309,-178 221,-178"/>
<image xlink:href="../../images/foreignKeys.png" width="11px" height="12px" preserveAspectRatio="xMinYMin meet" x="226" y="-195"/>
<text text-anchor="start" x="241" y="-186.2" font-family="Helvetica,sans-Serif" font-size="11.00">user_id</text>
<polygon fill="none" stroke="black" points="309,-178 309,-200 403,-200 403,-178 309,-178"/>
<text text-anchor="start" x="312" y="-186.2" font-family="Helvetica,sans-Serif" font-size="11.00">int8[19]</text>
<polygon fill="#ffffff" stroke="transparent" points="221,-160 221,-178 269,-178 269,-160 221,-160"/>
<polygon fill="none" stroke="black" points="221,-160 221,-178 269,-178 269,-160 221,-160"/>
<text text-anchor="start" x="224" y="-166.2" font-family="Helvetica,sans-Serif" font-size="11.00">&lt; 2</text>
<polygon fill="#ffffff" stroke="transparent" points="269,-160 269,-178 309,-178 309,-160 269,-160"/>
<polygon fill="none" stroke="black" points="269,-160 269,-178 309,-178 309,-160 269,-160"/>
<text text-anchor="start" x="299" y="-166.2" font-family="Helvetica,sans-Serif" font-size="11.00"> &#160;</text>
<polygon fill="#ffffff" stroke="transparent" points="309,-160 309,-178 403,-178 403,-160 309,-160"/>
<polygon fill="none" stroke="black" points="309,-160 309,-178 403,-178 403,-160 309,-160"/>
<text text-anchor="start" x="384" y="-166.2" font-family="Helvetica,sans-Serif" font-size="11.00">0 &gt;</text>
<polygon fill="none" stroke="black" stroke-width="2" points="220,-159 220,-355 404,-355 404,-159 220,-159"/>
</a>
</g>
</g>
<!-- catalogs -->
<g id="node2" class="node">
<title>catalogs</title>
<g id="a_node2"><a xlink:href="../../tables/catalogs.html" xlink:title="catalogs" target="_top">
<polygon fill="#ffffff" stroke="transparent" points="42.5,-204 42.5,-328 135.5,-328 135.5,-204 42.5,-204"/>
<polygon fill="#f5f5f5" stroke="transparent" points="43,-306 43,-328 136,-328 136,-306 43,-306"/>
<polygon fill="none" stroke="black" points="43,-306 43,-328 136,-328 136,-306 43,-306"/>
<text text-anchor="start" x="47.5" y="-315.2" font-family="Helvetica,sans-Serif" font-weight="bold" font-size="11.00">catalogs</text>
<text text-anchor="start" x="97" y="-314.2" font-family="Helvetica,sans-Serif" font-size="11.00">[table]</text>
<polygon fill="none" stroke="black" points="43,-284 43,-306 136,-306 136,-284 43,-284"/>
<image xlink:href="../../images/primaryKeys.png" width="11px" height="12px" preserveAspectRatio="xMinYMin meet" x="48" y="-301"/>
<text text-anchor="start" x="65" y="-292.2" font-family="Helvetica,sans-Serif" font-size="11.00">id</text>
<polygon fill="#ffffff" stroke="transparent" points="43,-262 43,-284 136,-284 136,-262 43,-262"/>
<polygon fill="none" stroke="black" points="43,-262 43,-284 136,-284 136,-262 43,-262"/>
<image xlink:href="../../images/foreignKeys.png" width="11px" height="12px" preserveAspectRatio="xMinYMin meet" x="48" y="-279"/>
<text text-anchor="start" x="65" y="-270.2" font-family="Helvetica,sans-Serif" font-size="11.00">category_id</text>
<polygon fill="#ffffff" stroke="transparent" points="43,-240 43,-262 136,-262 136,-240 43,-240"/>
<polygon fill="none" stroke="black" points="43,-240 43,-262 136,-262 136,-240 43,-240"/>
<image xlink:href="../../images/foreignKeys.png" width="11px" height="12px" preserveAspectRatio="xMinYMin meet" x="48" y="-257"/>
<text text-anchor="start" x="65" y="-248.2" font-family="Helvetica,sans-Serif" font-size="11.00">genre_id</text>
<polygon fill="none" stroke="black" points="43,-222 43,-240 136,-240 136,-222 43,-222"/>
<text text-anchor="start" x="46" y="-228.2" font-family="Helvetica,sans-Serif" font-size="11.00">...</text>
<polygon fill="#ffffff" stroke="transparent" points="43,-204 43,-222 83,-222 83,-204 43,-204"/>
<polygon fill="none" stroke="black" points="43,-204 43,-222 83,-222 83,-204 43,-204"/>
<text text-anchor="start" x="46" y="-210.2" font-family="Helvetica,sans-Serif" font-size="11.00">&lt; 2</text>
<polygon fill="#ffffff" stroke="transparent" points="83,-204 83,-222 105,-222 105,-204 83,-204"/>
<polygon fill="none" stroke="black" points="83,-204 83,-222 105,-222 105,-204 83,-204"/>
<text text-anchor="start" x="95" y="-210.2" font-family="Helvetica,sans-Serif" font-size="11.00"> &#160;</text>
<polygon fill="#ffffff" stroke="transparent" points="105,-204 105,-222 136,-222 136,-204 105,-204"/>
<polygon fill="none" stroke="black" points="105,-204 105,-222 136,-222 136,-204 105,-204"/>
<text text-anchor="start" x="117" y="-210.2" font-family="Helvetica,sans-Serif" font-size="11.00">1 &gt;</text>
</a>
</g>
</g>
<!-- reviews&#45;&gt;catalogs -->
<g id="edge1" class="edge">
<title>reviews:w&#45;&gt;catalogs:e</title>
<path fill="none" stroke="black" d="M205.61,-256.93C178.06,-264.92 172.51,-295 137,-295"/>
<polygon fill="black" stroke="black" points="212.07,-256.06 220.48,-258.57 216.04,-255.53 220,-255 220,-255 220,-255 216.04,-255.53 219.52,-251.43 212.07,-256.06 212.07,-256.06"/>
<ellipse fill="none" stroke="black" cx="208.9" cy="-256.49" rx="3.2" ry="3.2"/>
</g>
<!-- users -->
<g id="node3" class="node">
<title>users</title>
<g id="a_node3"><a xlink:href="../../tables/users.html" xlink:title="users" target="_top">
<polygon fill="#ffffff" stroke="transparent" points="8,-37 8,-183 170,-183 170,-37 8,-37"/>
<polygon fill="#f5f5f5" stroke="transparent" points="8,-161 8,-183 170,-183 170,-161 8,-161"/>
<polygon fill="none" stroke="black" points="8,-161 8,-183 170,-183 170,-161 8,-161"/>
<text text-anchor="start" x="11.5" y="-170.2" font-family="Helvetica,sans-Serif" font-weight="bold" font-size="11.00">users</text>
<text text-anchor="start" x="131" y="-169.2" font-family="Helvetica,sans-Serif" font-size="11.00">[table]</text>
<polygon fill="none" stroke="black" points="8,-139 8,-161 170,-161 170,-139 8,-139"/>
<image xlink:href="../../images/primaryKeys.png" width="11px" height="12px" preserveAspectRatio="xMinYMin meet" x="13" y="-156"/>
<text text-anchor="start" x="28" y="-147.2" font-family="Helvetica,sans-Serif" font-size="11.00">id</text>
<polygon fill="#ffffff" stroke="transparent" points="8,-117 8,-139 170,-139 170,-117 8,-117"/>
<polygon fill="none" stroke="black" points="8,-117 8,-139 170,-139 170,-117 8,-117"/>
<text text-anchor="start" x="28" y="-125.2" font-family="Helvetica,sans-Serif" font-size="11.00">email</text>
<polygon fill="#ffffff" stroke="transparent" points="8,-95 8,-117 170,-117 170,-95 8,-95"/>
<polygon fill="none" stroke="black" points="8,-95 8,-117 170,-117 170,-95 8,-95"/>
<text text-anchor="start" x="28" y="-103.2" font-family="Helvetica,sans-Serif" font-size="11.00">reset_password_token</text>
<polygon fill="#ffffff" stroke="transparent" points="8,-73 8,-95 170,-95 170,-73 8,-73"/>
<polygon fill="none" stroke="black" points="8,-73 8,-95 170,-95 170,-73 8,-73"/>
<text text-anchor="start" x="28" y="-81.2" font-family="Helvetica,sans-Serif" font-size="11.00">jti</text>
<polygon fill="none" stroke="black" points="8,-55 8,-73 170,-73 170,-55 8,-55"/>
<text text-anchor="start" x="11" y="-61.2" font-family="Helvetica,sans-Serif" font-size="11.00">...</text>
<polygon fill="#ffffff" stroke="transparent" points="8,-37 8,-55 78,-55 78,-37 8,-37"/>
<polygon fill="none" stroke="black" points="8,-37 8,-55 78,-55 78,-37 8,-37"/>
<text text-anchor="start" x="11" y="-43.2" font-family="Helvetica,sans-Serif" font-size="11.00"> &#160;</text>
<polygon fill="#ffffff" stroke="transparent" points="78,-37 78,-55 119,-55 119,-37 78,-37"/>
<polygon fill="none" stroke="black" points="78,-37 78,-55 119,-55 119,-37 78,-37"/>
<text text-anchor="start" x="109" y="-43.2" font-family="Helvetica,sans-Serif" font-size="11.00"> &#160;</text>
<polygon fill="#ffffff" stroke="transparent" points="119,-37 119,-55 170,-55 170,-37 119,-37"/>
<polygon fill="none" stroke="black" points="119,-37 119,-55 170,-55 170,-37 119,-37"/>
<text text-anchor="start" x="151" y="-43.2" font-family="Helvetica,sans-Serif" font-size="11.00">1 &gt;</text>
</a>
</g>
</g>
<!-- reviews&#45;&gt;users -->
<g id="edge2" class="edge">
<title>reviews:w&#45;&gt;users:e</title>
<path fill="none" stroke="black" d="M205.96,-184.22C193.43,-173.8 192.75,-150 171,-150"/>
<polygon fill="black" stroke="black" points="212.43,-186.42 218.84,-192.41 216.21,-187.71 220,-189 220,-189 220,-189 216.21,-187.71 221.16,-185.59 212.43,-186.42 212.43,-186.42"/>
<ellipse fill="none" stroke="black" cx="209.4" cy="-185.39" rx="3.2" ry="3.2"/>
</g>
</g>
</svg>
