<?xml version="1.0" encoding="UTF-8" standalone="no"?>
<!DOCTYPE svg PUBLIC "-//W3C//DTD SVG 1.1//EN"
 "http://www.w3.org/Graphics/SVG/1.1/DTD/svg11.dtd">
<!-- Generated by graphviz version 2.47.1 (20210515.0534)
 -->
<!-- Title: twoDegreesRelationshipsDiagram Pages: 1 -->
<svg width="576pt" height="368pt"
 viewBox="0.00 0.00 576.00 368.00" xmlns="http://www.w3.org/2000/svg" xmlns:xlink="http://www.w3.org/1999/xlink">
<g id="graph0" class="graph" transform="scale(1 1) rotate(0) translate(4 364)">
<title>twoDegreesRelationshipsDiagram</title>
<polygon fill="#ffffff" stroke="transparent" points="-4,4 -4,-364 572,-364 572,4 -4,4"/>
<text text-anchor="middle" x="73.5" y="-7.2" font-family="Helvetica,sans-Serif" font-size="11.00">Generated by SchemaSpy</text>
<!-- catalogs -->
<g id="node1" class="node">
<title>catalogs</title>
<g id="a_node1"><a xlink:href="../../tables/catalogs.html" xlink:title="catalogs" target="_top">
<polygon fill="#ffffff" stroke="transparent" points="197.5,-204 197.5,-328 290.5,-328 290.5,-204 197.5,-204"/>
<polygon fill="#f5f5f5" stroke="transparent" points="198,-306 198,-328 291,-328 291,-306 198,-306"/>
<polygon fill="none" stroke="black" points="198,-306 198,-328 291,-328 291,-306 198,-306"/>
<text text-anchor="start" x="202.5" y="-315.2" font-family="Helvetica,sans-Serif" font-weight="bold" font-size="11.00">catalogs</text>
<text text-anchor="start" x="252" y="-314.2" font-family="Helvetica,sans-Serif" font-size="11.00">[table]</text>
<polygon fill="none" stroke="black" points="198,-284 198,-306 291,-306 291,-284 198,-284"/>
<image xlink:href="../../images/primaryKeys.png" width="11px" height="12px" preserveAspectRatio="xMinYMin meet" x="203" y="-301"/>
<text text-anchor="start" x="220" y="-292.2" font-family="Helvetica,sans-Serif" font-size="11.00">id</text>
<polygon fill="#ffffff" stroke="transparent" points="198,-262 198,-284 291,-284 291,-262 198,-262"/>
<polygon fill="none" stroke="black" points="198,-262 198,-284 291,-284 291,-262 198,-262"/>
<image xlink:href="../../images/foreignKeys.png" width="11px" height="12px" preserveAspectRatio="xMinYMin meet" x="203" y="-279"/>
<text text-anchor="start" x="220" y="-270.2" font-family="Helvetica,sans-Serif" font-size="11.00">category_id</text>
<polygon fill="#ffffff" stroke="transparent" points="198,-240 198,-262 291,-262 291,-240 198,-240"/>
<polygon fill="none" stroke="black" points="198,-240 198,-262 291,-262 291,-240 198,-240"/>
<image xlink:href="../../images/foreignKeys.png" width="11px" height="12px" preserveAspectRatio="xMinYMin meet" x="203" y="-257"/>
<text text-anchor="start" x="220" y="-248.2" font-family="Helvetica,sans-Serif" font-size="11.00">genre_id</text>
<polygon fill="none" stroke="black" points="198,-222 198,-240 291,-240 291,-222 198,-222"/>
<text text-anchor="start" x="201" y="-228.2" font-family="Helvetica,sans-Serif" font-size="11.00">...</text>
<polygon fill="#ffffff" stroke="transparent" points="198,-204 198,-222 238,-222 238,-204 198,-204"/>
<polygon fill="none" stroke="black" points="198,-204 198,-222 238,-222 238,-204 198,-204"/>
<text text-anchor="start" x="201" y="-210.2" font-family="Helvetica,sans-Serif" font-size="11.00">&lt; 2</text>
<polygon fill="#ffffff" stroke="transparent" points="238,-204 238,-222 260,-222 260,-204 238,-204"/>
<polygon fill="none" stroke="black" points="238,-204 238,-222 260,-222 260,-204 238,-204"/>
<text text-anchor="start" x="250" y="-210.2" font-family="Helvetica,sans-Serif" font-size="11.00"> &#160;</text>
<polygon fill="#ffffff" stroke="transparent" points="260,-204 260,-222 291,-222 291,-204 260,-204"/>
<polygon fill="none" stroke="black" points="260,-204 260,-222 291,-222 291,-204 260,-204"/>
<text text-anchor="start" x="272" y="-210.2" font-family="Helvetica,sans-Serif" font-size="11.00">1 &gt;</text>
</a>
</g>
</g>
<!-- categories -->
<g id="node2" class="node">
<title>categories</title>
<g id="a_node2"><a xlink:href="../../tables/categories.html" xlink:title="categories" target="_top">
<polygon fill="#ffffff" stroke="transparent" points="8,-274 8,-332 114,-332 114,-274 8,-274"/>
<polygon fill="#f5f5f5" stroke="transparent" points="8,-310 8,-332 114,-332 114,-310 8,-310"/>
<polygon fill="none" stroke="black" points="8,-310 8,-332 114,-332 114,-310 8,-310"/>
<text text-anchor="start" x="13" y="-319.2" font-family="Helvetica,sans-Serif" font-weight="bold" font-size="11.00">categories</text>
<text text-anchor="start" x="75" y="-318.2" font-family="Helvetica,sans-Serif" font-size="11.00">[table]</text>
<polygon fill="none" stroke="black" points="8,-292 8,-310 114,-310 114,-292 8,-292"/>
<text text-anchor="start" x="11" y="-298.2" font-family="Helvetica,sans-Serif" font-size="11.00">...</text>
<polygon fill="#ffffff" stroke="transparent" points="8,-274 8,-292 50,-292 50,-274 8,-274"/>
<polygon fill="none" stroke="black" points="8,-274 8,-292 50,-292 50,-274 8,-274"/>
<text text-anchor="start" x="11" y="-280.2" font-family="Helvetica,sans-Serif" font-size="11.00"> &#160;</text>
<polygon fill="#ffffff" stroke="transparent" points="50,-274 50,-292 77,-292 77,-274 50,-274"/>
<polygon fill="none" stroke="black" points="50,-274 50,-292 77,-292 77,-274 50,-274"/>
<text text-anchor="start" x="67" y="-280.2" font-family="Helvetica,sans-Serif" font-size="11.00"> &#160;</text>
<polygon fill="#ffffff" stroke="transparent" points="77,-274 77,-292 114,-292 114,-274 77,-274"/>
<polygon fill="none" stroke="black" points="77,-274 77,-292 114,-292 114,-274 77,-274"/>
<text text-anchor="start" x="95" y="-280.2" font-family="Helvetica,sans-Serif" font-size="11.00">1 &gt;</text>
</a>
</g>
</g>
<!-- catalogs&#45;&gt;categories -->
<g id="edge1" class="edge">
<title>catalogs:w&#45;&gt;categories:e</title>
<path fill="none" stroke="black" d="M182.56,-274.51C156.43,-280.32 148.09,-301 115,-301"/>
<polygon fill="black" stroke="black" points="189.04,-273.83 197.37,-276.58 193.02,-273.41 197,-273 197,-273 197,-273 193.02,-273.41 196.63,-269.42 189.04,-273.83 189.04,-273.83"/>
<ellipse fill="none" stroke="black" cx="185.86" cy="-274.16" rx="3.2" ry="3.2"/>
</g>
<!-- genres -->
<g id="node3" class="node">
<title>genres</title>
<g id="a_node3"><a xlink:href="../../tables/genres.html" xlink:title="genres" target="_top">
<polygon fill="#ffffff" stroke="transparent" points="19,-195 19,-253 103,-253 103,-195 19,-195"/>
<polygon fill="#f5f5f5" stroke="transparent" points="19,-231 19,-253 103,-253 103,-231 19,-231"/>
<polygon fill="none" stroke="black" points="19,-231 19,-253 103,-253 103,-231 19,-231"/>
<text text-anchor="start" x="23" y="-240.2" font-family="Helvetica,sans-Serif" font-weight="bold" font-size="11.00">genres</text>
<text text-anchor="start" x="64" y="-239.2" font-family="Helvetica,sans-Serif" font-size="11.00">[table]</text>
<polygon fill="none" stroke="black" points="19,-213 19,-231 103,-231 103,-213 19,-213"/>
<text text-anchor="start" x="22" y="-219.2" font-family="Helvetica,sans-Serif" font-size="11.00">...</text>
<polygon fill="#ffffff" stroke="transparent" points="19,-195 19,-213 50,-213 50,-195 19,-195"/>
<polygon fill="none" stroke="black" points="19,-195 19,-213 50,-213 50,-195 19,-195"/>
<text text-anchor="start" x="22" y="-201.2" font-family="Helvetica,sans-Serif" font-size="11.00"> &#160;</text>
<polygon fill="#ffffff" stroke="transparent" points="50,-195 50,-213 72,-213 72,-195 50,-195"/>
<polygon fill="none" stroke="black" points="50,-195 50,-213 72,-213 72,-195 50,-195"/>
<text text-anchor="start" x="62" y="-201.2" font-family="Helvetica,sans-Serif" font-size="11.00"> &#160;</text>
<polygon fill="#ffffff" stroke="transparent" points="72,-195 72,-213 103,-213 103,-195 72,-195"/>
<polygon fill="none" stroke="black" points="72,-195 72,-213 103,-213 103,-195 72,-195"/>
<text text-anchor="start" x="84" y="-201.2" font-family="Helvetica,sans-Serif" font-size="11.00">1 &gt;</text>
</a>
</g>
</g>
<!-- catalogs&#45;&gt;genres -->
<g id="edge2" class="edge">
<title>catalogs:w&#45;&gt;genres:e</title>
<path fill="none" stroke="black" d="M182.35,-249.75C151.53,-244.2 141.88,-222 104,-222"/>
<polygon fill="black" stroke="black" points="189.03,-250.32 196.69,-254.59 193.01,-250.66 197,-251 197,-251 197,-251 193.01,-250.66 197.31,-247.41 189.03,-250.32 189.03,-250.32"/>
<ellipse fill="none" stroke="black" cx="185.84" cy="-250.05" rx="3.2" ry="3.2"/>
</g>
<!-- reviews -->
<g id="node4" class="node">
<title>reviews</title>
<g id="a_node4"><a xlink:href="../../tables/reviews.html" xlink:title="reviews" target="_top">
<polygon fill="#ffffff" stroke="transparent" points="374,-158 374,-356 560,-356 560,-158 374,-158"/>
<polygon fill="#f5f5f5" stroke="transparent" points="376,-332 376,-354 558,-354 558,-332 376,-332"/>
<polygon fill="none" stroke="black" points="376,-332 376,-354 558,-354 558,-332 376,-332"/>
<text text-anchor="start" x="380.5" y="-341.2" font-family="Helvetica,sans-Serif" font-weight="bold" font-size="11.00">reviews</text>
<text text-anchor="start" x="519" y="-340.2" font-family="Helvetica,sans-Serif" font-size="11.00">[table]</text>
<polygon fill="none" stroke="black" points="376,-310 376,-332 464,-332 464,-310 376,-310"/>
<image xlink:href="../../images/primaryKeys.png" width="11px" height="12px" preserveAspectRatio="xMinYMin meet" x="381" y="-327"/>
<text text-anchor="start" x="396" y="-318.2" font-family="Helvetica,sans-Serif" font-size="11.00">id</text>
<polygon fill="none" stroke="black" points="464,-310 464,-332 558,-332 558,-310 464,-310"/>
<text text-anchor="start" x="467" y="-318.2" font-family="Helvetica,sans-Serif" font-size="11.00">bigserial[19]</text>
<polygon fill="none" stroke="black" points="376,-288 376,-310 464,-310 464,-288 376,-288"/>
<text text-anchor="start" x="396" y="-296.2" font-family="Helvetica,sans-Serif" font-size="11.00">rating</text>
<polygon fill="none" stroke="black" points="464,-288 464,-310 558,-310 558,-288 464,-288"/>
<text text-anchor="start" x="467" y="-296.2" font-family="Helvetica,sans-Serif" font-size="11.00">int4[10]</text>
<polygon fill="none" stroke="black" points="376,-266 376,-288 464,-288 464,-266 376,-266"/>
<text text-anchor="start" x="396" y="-274.2" font-family="Helvetica,sans-Serif" font-size="11.00">comment</text>
<polygon fill="none" stroke="black" points="464,-266 464,-288 558,-288 558,-266 464,-266"/>
<text text-anchor="start" x="467" y="-274.2" font-family="Helvetica,sans-Serif" font-size="11.00">text[2147483647]</text>
<polygon fill="#ffffff" stroke="transparent" points="376,-244 376,-266 464,-266 464,-244 376,-244"/>
<polygon fill="none" stroke="black" points="376,-244 376,-266 464,-266 464,-244 376,-244"/>
<image xlink:href="../../images/foreignKeys.png" width="11px" height="12px" preserveAspectRatio="xMinYMin meet" x="381" y="-261"/>
<text text-anchor="start" x="396" y="-252.2" font-family="Helvetica,sans-Serif" font-size="11.00">catalog_id</text>
<polygon fill="none" stroke="black" points="464,-244 464,-266 558,-266 558,-244 464,-244"/>
<text text-anchor="start" x="467" y="-252.2" font-family="Helvetica,sans-Serif" font-size="11.00">int8[19]</text>
<polygon fill="none" stroke="black" points="376,-222 376,-244 464,-244 464,-222 376,-222"/>
<text text-anchor="start" x="396" y="-230.2" font-family="Helvetica,sans-Serif" font-size="11.00">created_at</text>
<polygon fill="none" stroke="black" points="464,-222 464,-244 558,-244 558,-222 464,-222"/>
<text text-anchor="start" x="467" y="-230.2" font-family="Helvetica,sans-Serif" font-size="11.00">timestamp[29,6]</text>
<polygon fill="none" stroke="black" points="376,-200 376,-222 464,-222 464,-200 376,-200"/>
<text text-anchor="start" x="396" y="-208.2" font-family="Helvetica,sans-Serif" font-size="11.00">updated_at</text>
<polygon fill="none" stroke="black" points="464,-200 464,-222 558,-222 558,-200 464,-200"/>
<text text-anchor="start" x="467" y="-208.2" font-family="Helvetica,sans-Serif" font-size="11.00">timestamp[29,6]</text>
<polygon fill="#ffffff" stroke="transparent" points="376,-178 376,-200 464,-200 464,-178 376,-178"/>
<polygon fill="none" stroke="black" points="376,-178 376,-200 464,-200 464,-178 376,-178"/>
<image xlink:href="../../images/foreignKeys.png" width="11px" height="12px" preserveAspectRatio="xMinYMin meet" x="381" y="-195"/>
<text text-anchor="start" x="396" y="-186.2" font-family="Helvetica,sans-Serif" font-size="11.00">user_id</text>
<polygon fill="none" stroke="black" points="464,-178 464,-200 558,-200 558,-178 464,-178"/>
<text text-anchor="start" x="467" y="-186.2" font-family="Helvetica,sans-Serif" font-size="11.00">int8[19]</text>
<polygon fill="#ffffff" stroke="transparent" points="376,-160 376,-178 424,-178 424,-160 376,-160"/>
<polygon fill="none" stroke="black" points="376,-160 376,-178 424,-178 424,-160 376,-160"/>
<text text-anchor="start" x="379" y="-166.2" font-family="Helvetica,sans-Serif" font-size="11.00">&lt; 2</text>
<polygon fill="#ffffff" stroke="transparent" points="424,-160 424,-178 464,-178 464,-160 424,-160"/>
<polygon fill="none" stroke="black" points="424,-160 424,-178 464,-178 464,-160 424,-160"/>
<text text-anchor="start" x="454" y="-166.2" font-family="Helvetica,sans-Serif" font-size="11.00"> &#160;</text>
<polygon fill="#ffffff" stroke="transparent" points="464,-160 464,-178 558,-178 558,-160 464,-160"/>
<polygon fill="none" stroke="black" points="464,-160 464,-178 558,-178 558,-160 464,-160"/>
<text text-anchor="start" x="539" y="-166.2" font-family="Helvetica,sans-Serif" font-size="11.00">0 &gt;</text>
<polygon fill="none" stroke="black" stroke-width="2" points="375,-159 375,-355 559,-355 559,-159 375,-159"/>
</a>
</g>
</g>
<!-- reviews&#45;&gt;catalogs -->
<g id="edge3" class="edge">
<title>reviews:w&#45;&gt;catalogs:e</title>
<path fill="none" stroke="black" d="M360.61,-256.93C333.06,-264.92 327.51,-295 292,-295"/>
<polygon fill="black" stroke="black" points="367.07,-256.06 375.48,-258.57 371.04,-255.53 375,-255 375,-255 375,-255 371.04,-255.53 374.52,-251.43 367.07,-256.06 367.07,-256.06"/>
<ellipse fill="none" stroke="black" cx="363.9" cy="-256.49" rx="3.2" ry="3.2"/>
</g>
<!-- users -->
<g id="node5" class="node">
<title>users</title>
<g id="a_node5"><a xlink:href="../../tables/users.html" xlink:title="users" target="_top">
<polygon fill="#ffffff" stroke="transparent" points="163,-37 163,-183 325,-183 325,-37 163,-37"/>
<polygon fill="#f5f5f5" stroke="transparent" points="163,-161 163,-183 325,-183 325,-161 163,-161"/>
<polygon fill="none" stroke="black" points="163,-161 163,-183 325,-183 325,-161 163,-161"/>
<text text-anchor="start" x="166.5" y="-170.2" font-family="Helvetica,sans-Serif" font-weight="bold" font-size="11.00">users</text>
<text text-anchor="start" x="286" y="-169.2" font-family="Helvetica,sans-Serif" font-size="11.00">[table]</text>
<polygon fill="none" stroke="black" points="163,-139 163,-161 325,-161 325,-139 163,-139"/>
<image xlink:href="../../images/primaryKeys.png" width="11px" height="12px" preserveAspectRatio="xMinYMin meet" x="168" y="-156"/>
<text text-anchor="start" x="183" y="-147.2" font-family="Helvetica,sans-Serif" font-size="11.00">id</text>
<polygon fill="#ffffff" stroke="transparent" points="163,-117 163,-139 325,-139 325,-117 163,-117"/>
<polygon fill="none" stroke="black" points="163,-117 163,-139 325,-139 325,-117 163,-117"/>
<text text-anchor="start" x="183" y="-125.2" font-family="Helvetica,sans-Serif" font-size="11.00">email</text>
<polygon fill="#ffffff" stroke="transparent" points="163,-95 163,-117 325,-117 325,-95 163,-95"/>
<polygon fill="none" stroke="black" points="163,-95 163,-117 325,-117 325,-95 163,-95"/>
<text text-anchor="start" x="183" y="-103.2" font-family="Helvetica,sans-Serif" font-size="11.00">reset_password_token</text>
<polygon fill="#ffffff" stroke="transparent" points="163,-73 163,-95 325,-95 325,-73 163,-73"/>
<polygon fill="none" stroke="black" points="163,-73 163,-95 325,-95 325,-73 163,-73"/>
<text text-anchor="start" x="183" y="-81.2" font-family="Helvetica,sans-Serif" font-size="11.00">jti</text>
<polygon fill="none" stroke="black" points="163,-55 163,-73 325,-73 325,-55 163,-55"/>
<text text-anchor="start" x="166" y="-61.2" font-family="Helvetica,sans-Serif" font-size="11.00">...</text>
<polygon fill="#ffffff" stroke="transparent" points="163,-37 163,-55 233,-55 233,-37 163,-37"/>
<polygon fill="none" stroke="black" points="163,-37 163,-55 233,-55 233,-37 163,-37"/>
<text text-anchor="start" x="166" y="-43.2" font-family="Helvetica,sans-Serif" font-size="11.00"> &#160;</text>
<polygon fill="#ffffff" stroke="transparent" points="233,-37 233,-55 274,-55 274,-37 233,-37"/>
<polygon fill="none" stroke="black" points="233,-37 233,-55 274,-55 274,-37 233,-37"/>
<text text-anchor="start" x="264" y="-43.2" font-family="Helvetica,sans-Serif" font-size="11.00"> &#160;</text>
<polygon fill="#ffffff" stroke="transparent" points="274,-37 274,-55 325,-55 325,-37 274,-37"/>
<polygon fill="none" stroke="black" points="274,-37 274,-55 325,-55 325,-37 274,-37"/>
<text text-anchor="start" x="306" y="-43.2" font-family="Helvetica,sans-Serif" font-size="11.00">1 &gt;</text>
</a>
</g>
</g>
<!-- reviews&#45;&gt;users -->
<g id="edge4" class="edge">
<title>reviews:w&#45;&gt;users:e</title>
<path fill="none" stroke="black" d="M360.96,-184.22C348.43,-173.8 347.75,-150 326,-150"/>
<polygon fill="black" stroke="black" points="367.43,-186.42 373.84,-192.41 371.21,-187.71 375,-189 375,-189 375,-189 371.21,-187.71 376.16,-185.59 367.43,-186.42 367.43,-186.42"/>
<ellipse fill="none" stroke="black" cx="364.4" cy="-185.39" rx="3.2" ry="3.2"/>
</g>
</g>
</svg>
