<?xml version="1.0" encoding="UTF-8" standalone="no"?>
<!DOCTYPE svg PUBLIC "-//W3C//DTD SVG 1.1//EN"
 "http://www.w3.org/Graphics/SVG/1.1/DTD/svg11.dtd">
<!-- Generated by graphviz version 2.47.1 (20210515.0534)
 -->
<!-- Title: oneDegreeRelationshipsDiagram Pages: 1 -->
<svg width="277pt" height="115pt"
 viewBox="0.00 0.00 277.00 115.00" xmlns="http://www.w3.org/2000/svg" xmlns:xlink="http://www.w3.org/1999/xlink">
<g id="graph0" class="graph" transform="scale(1 1) rotate(0) translate(4 111)">
<title>oneDegreeRelationshipsDiagram</title>
<polygon fill="#ffffff" stroke="transparent" points="-4,4 -4,-111 273,-111 273,4 -4,4"/>
<text text-anchor="middle" x="73.5" y="-7.2" font-family="Helvetica,sans-Serif" font-size="11.00">Generated by SchemaSpy</text>
<!-- schema_migrations -->
<g id="node1" class="node">
<title>schema_migrations</title>
<g id="a_node1"><a xlink:href="../../tables/schema_migrations.html" xlink:title="schema_migrations" target="_top">
<polygon fill="#ffffff" stroke="transparent" points="8,-37 8,-103 261,-103 261,-37 8,-37"/>
<polygon fill="#f5f5f5" stroke="transparent" points="10.5,-79 10.5,-101 259.5,-101 259.5,-79 10.5,-79"/>
<polygon fill="none" stroke="black" points="10.5,-79 10.5,-101 259.5,-101 259.5,-79 10.5,-79"/>
<text text-anchor="start" x="15.5" y="-88.2" font-family="Helvetica,sans-Serif" font-weight="bold" font-size="11.00">schema_migrations</text>
<text text-anchor="start" x="220.5" y="-87.2" font-family="Helvetica,sans-Serif" font-size="11.00">[table]</text>
<polygon fill="none" stroke="black" points="10.5,-57 10.5,-79 147.5,-79 147.5,-57 10.5,-57"/>
<image xlink:href="../../images/primaryKeys.png" width="11px" height="12px" preserveAspectRatio="xMinYMin meet" x="15.5" y="-74"/>
<text text-anchor="start" x="30.5" y="-65.2" font-family="Helvetica,sans-Serif" font-size="11.00">version</text>
<polygon fill="none" stroke="black" points="147.5,-57 147.5,-79 259.5,-79 259.5,-57 147.5,-57"/>
<text text-anchor="start" x="150.5" y="-65.2" font-family="Helvetica,sans-Serif" font-size="11.00">varchar[2147483647]</text>
<polygon fill="#ffffff" stroke="transparent" points="10.5,-39 10.5,-57 83.5,-57 83.5,-39 10.5,-39"/>
<polygon fill="none" stroke="black" points="10.5,-39 10.5,-57 83.5,-57 83.5,-39 10.5,-39"/>
<text text-anchor="start" x="13.5" y="-45.2" font-family="Helvetica,sans-Serif" font-size="11.00">&lt; 0</text>
<polygon fill="#ffffff" stroke="transparent" points="83.5,-39 83.5,-57 147.5,-57 147.5,-39 83.5,-39"/>
<polygon fill="none" stroke="black" points="83.5,-39 83.5,-57 147.5,-57 147.5,-39 83.5,-39"/>
<text text-anchor="start" x="137.5" y="-45.2" font-family="Helvetica,sans-Serif" font-size="11.00"> &#160;</text>
<polygon fill="#ffffff" stroke="transparent" points="147.5,-39 147.5,-57 259.5,-57 259.5,-39 147.5,-39"/>
<polygon fill="none" stroke="black" points="147.5,-39 147.5,-57 259.5,-57 259.5,-39 147.5,-39"/>
<text text-anchor="start" x="240.5" y="-45.2" font-family="Helvetica,sans-Serif" font-size="11.00">0 &gt;</text>
<polygon fill="none" stroke="black" stroke-width="2" points="9,-38 9,-102 260,-102 260,-38 9,-38"/>
</a>
</g>
</g>
</g>
</svg>
