<?xml version="1.0" encoding="UTF-8" standalone="no"?>
<!DOCTYPE svg PUBLIC "-//W3C//DTD SVG 1.1//EN"
 "http://www.w3.org/Graphics/SVG/1.1/DTD/svg11.dtd">
<!-- Generated by graphviz version 2.47.1 (20210515.0534)
 -->
<!-- Title: oneDegreeRelationshipsDiagram Pages: 1 -->
<svg width="441pt" height="355pt"
 viewBox="0.00 0.00 441.00 355.00" xmlns="http://www.w3.org/2000/svg" xmlns:xlink="http://www.w3.org/1999/xlink">
<g id="graph0" class="graph" transform="scale(1 1) rotate(0) translate(4 351)">
<title>oneDegreeRelationshipsDiagram</title>
<polygon fill="#ffffff" stroke="transparent" points="-4,4 -4,-351 437,-351 437,4 -4,4"/>
<text text-anchor="middle" x="73.5" y="-7.2" font-family="Helvetica,sans-Serif" font-size="11.00">Generated by SchemaSpy</text>
<!-- reviews -->
<g id="node1" class="node">
<title>reviews</title>
<g id="a_node1"><a xlink:href="../../tables/reviews.html" xlink:title="reviews" target="_top">
<polygon fill="#ffffff" stroke="transparent" points="335,-219 335,-343 425,-343 425,-219 335,-219"/>
<polygon fill="#f5f5f5" stroke="transparent" points="335,-321 335,-343 425,-343 425,-321 335,-321"/>
<polygon fill="none" stroke="black" points="335,-321 335,-343 425,-343 425,-321 335,-321"/>
<text text-anchor="start" x="339.5" y="-330.2" font-family="Helvetica,sans-Serif" font-weight="bold" font-size="11.00">reviews</text>
<text text-anchor="start" x="386" y="-329.2" font-family="Helvetica,sans-Serif" font-size="11.00">[table]</text>
<polygon fill="none" stroke="black" points="335,-299 335,-321 425,-321 425,-299 335,-299"/>
<image xlink:href="../../images/primaryKeys.png" width="11px" height="12px" preserveAspectRatio="xMinYMin meet" x="340" y="-316"/>
<text text-anchor="start" x="356" y="-307.2" font-family="Helvetica,sans-Serif" font-size="11.00">id</text>
<polygon fill="#ffffff" stroke="transparent" points="335,-277 335,-299 425,-299 425,-277 335,-277"/>
<polygon fill="none" stroke="black" points="335,-277 335,-299 425,-299 425,-277 335,-277"/>
<image xlink:href="../../images/foreignKeys.png" width="11px" height="12px" preserveAspectRatio="xMinYMin meet" x="340" y="-294"/>
<text text-anchor="start" x="356" y="-285.2" font-family="Helvetica,sans-Serif" font-size="11.00">catalog_id</text>
<polygon fill="#ffffff" stroke="transparent" points="335,-255 335,-277 425,-277 425,-255 335,-255"/>
<polygon fill="none" stroke="black" points="335,-255 335,-277 425,-277 425,-255 335,-255"/>
<image xlink:href="../../images/foreignKeys.png" width="11px" height="12px" preserveAspectRatio="xMinYMin meet" x="340" y="-272"/>
<text text-anchor="start" x="356" y="-263.2" font-family="Helvetica,sans-Serif" font-size="11.00">user_id</text>
<polygon fill="none" stroke="black" points="335,-237 335,-255 425,-255 425,-237 335,-237"/>
<text text-anchor="start" x="338" y="-243.2" font-family="Helvetica,sans-Serif" font-size="11.00">...</text>
<polygon fill="#ffffff" stroke="transparent" points="335,-219 335,-237 378,-237 378,-219 335,-219"/>
<polygon fill="none" stroke="black" points="335,-219 335,-237 378,-237 378,-219 335,-219"/>
<text text-anchor="start" x="338" y="-225.2" font-family="Helvetica,sans-Serif" font-size="11.00">&lt; 2</text>
<polygon fill="#ffffff" stroke="transparent" points="378,-219 378,-237 401,-237 401,-219 378,-219"/>
<polygon fill="none" stroke="black" points="378,-219 378,-237 401,-237 401,-219 378,-219"/>
<text text-anchor="start" x="391" y="-225.2" font-family="Helvetica,sans-Serif" font-size="11.00"> &#160;</text>
<polygon fill="#ffffff" stroke="transparent" points="401,-219 401,-237 425,-237 425,-219 401,-219"/>
<polygon fill="none" stroke="black" points="401,-219 401,-237 425,-237 425,-219 401,-219"/>
<text text-anchor="start" x="415" y="-225.2" font-family="Helvetica,sans-Serif" font-size="11.00"> &#160;</text>
</a>
</g>
</g>
<!-- users -->
<g id="node2" class="node">
<title>users</title>
<g id="a_node2"><a xlink:href="../../tables/users.html" xlink:title="users" target="_top">
<polygon fill="#ffffff" stroke="transparent" points="8,-37 8,-301 286,-301 286,-37 8,-37"/>
<polygon fill="#f5f5f5" stroke="transparent" points="10,-277 10,-299 284,-299 284,-277 10,-277"/>
<polygon fill="none" stroke="black" points="10,-277 10,-299 284,-299 284,-277 10,-277"/>
<text text-anchor="start" x="13.5" y="-286.2" font-family="Helvetica,sans-Serif" font-weight="bold" font-size="11.00">users</text>
<text text-anchor="start" x="245" y="-285.2" font-family="Helvetica,sans-Serif" font-size="11.00">[table]</text>
<polygon fill="none" stroke="black" points="10,-255 10,-277 172,-277 172,-255 10,-255"/>
<image xlink:href="../../images/primaryKeys.png" width="11px" height="12px" preserveAspectRatio="xMinYMin meet" x="15" y="-272"/>
<text text-anchor="start" x="30" y="-263.2" font-family="Helvetica,sans-Serif" font-size="11.00">id</text>
<polygon fill="none" stroke="black" points="172,-255 172,-277 284,-277 284,-255 172,-255"/>
<text text-anchor="start" x="175" y="-263.2" font-family="Helvetica,sans-Serif" font-size="11.00">bigserial[19]</text>
<polygon fill="#ffffff" stroke="transparent" points="10,-233 10,-255 172,-255 172,-233 10,-233"/>
<polygon fill="none" stroke="black" points="10,-233 10,-255 172,-255 172,-233 10,-233"/>
<text text-anchor="start" x="30" y="-241.2" font-family="Helvetica,sans-Serif" font-size="11.00">email</text>
<polygon fill="none" stroke="black" points="172,-233 172,-255 284,-255 284,-233 172,-233"/>
<text text-anchor="start" x="175" y="-241.2" font-family="Helvetica,sans-Serif" font-size="11.00">varchar[2147483647]</text>
<polygon fill="none" stroke="black" points="10,-211 10,-233 172,-233 172,-211 10,-211"/>
<text text-anchor="start" x="30" y="-219.2" font-family="Helvetica,sans-Serif" font-size="11.00">encrypted_password</text>
<polygon fill="none" stroke="black" points="172,-211 172,-233 284,-233 284,-211 172,-211"/>
<text text-anchor="start" x="175" y="-219.2" font-family="Helvetica,sans-Serif" font-size="11.00">varchar[2147483647]</text>
<polygon fill="#ffffff" stroke="transparent" points="10,-189 10,-211 172,-211 172,-189 10,-189"/>
<polygon fill="none" stroke="black" points="10,-189 10,-211 172,-211 172,-189 10,-189"/>
<text text-anchor="start" x="30" y="-197.2" font-family="Helvetica,sans-Serif" font-size="11.00">reset_password_token</text>
<polygon fill="none" stroke="black" points="172,-189 172,-211 284,-211 284,-189 172,-189"/>
<text text-anchor="start" x="175" y="-197.2" font-family="Helvetica,sans-Serif" font-size="11.00">varchar[2147483647]</text>
<polygon fill="none" stroke="black" points="10,-167 10,-189 172,-189 172,-167 10,-167"/>
<text text-anchor="start" x="30" y="-175.2" font-family="Helvetica,sans-Serif" font-size="11.00">reset_password_sent_at</text>
<polygon fill="none" stroke="black" points="172,-167 172,-189 284,-189 284,-167 172,-167"/>
<text text-anchor="start" x="175" y="-175.2" font-family="Helvetica,sans-Serif" font-size="11.00">timestamp[29,6]</text>
<polygon fill="none" stroke="black" points="10,-145 10,-167 172,-167 172,-145 10,-145"/>
<text text-anchor="start" x="30" y="-153.2" font-family="Helvetica,sans-Serif" font-size="11.00">remember_created_at</text>
<polygon fill="none" stroke="black" points="172,-145 172,-167 284,-167 284,-145 172,-145"/>
<text text-anchor="start" x="175" y="-153.2" font-family="Helvetica,sans-Serif" font-size="11.00">timestamp[29,6]</text>
<polygon fill="none" stroke="black" points="10,-123 10,-145 172,-145 172,-123 10,-123"/>
<text text-anchor="start" x="30" y="-131.2" font-family="Helvetica,sans-Serif" font-size="11.00">created_at</text>
<polygon fill="none" stroke="black" points="172,-123 172,-145 284,-145 284,-123 172,-123"/>
<text text-anchor="start" x="175" y="-131.2" font-family="Helvetica,sans-Serif" font-size="11.00">timestamp[29,6]</text>
<polygon fill="none" stroke="black" points="10,-101 10,-123 172,-123 172,-101 10,-101"/>
<text text-anchor="start" x="30" y="-109.2" font-family="Helvetica,sans-Serif" font-size="11.00">updated_at</text>
<polygon fill="none" stroke="black" points="172,-101 172,-123 284,-123 284,-101 172,-101"/>
<text text-anchor="start" x="175" y="-109.2" font-family="Helvetica,sans-Serif" font-size="11.00">timestamp[29,6]</text>
<polygon fill="none" stroke="black" points="10,-79 10,-101 172,-101 172,-79 10,-79"/>
<text text-anchor="start" x="30" y="-87.2" font-family="Helvetica,sans-Serif" font-size="11.00">name</text>
<polygon fill="none" stroke="black" points="172,-79 172,-101 284,-101 284,-79 172,-79"/>
<text text-anchor="start" x="175" y="-87.2" font-family="Helvetica,sans-Serif" font-size="11.00">varchar[2147483647]</text>
<polygon fill="#ffffff" stroke="transparent" points="10,-57 10,-79 172,-79 172,-57 10,-57"/>
<polygon fill="none" stroke="black" points="10,-57 10,-79 172,-79 172,-57 10,-57"/>
<text text-anchor="start" x="30" y="-65.2" font-family="Helvetica,sans-Serif" font-size="11.00">jti</text>
<polygon fill="none" stroke="black" points="172,-57 172,-79 284,-79 284,-57 172,-57"/>
<text text-anchor="start" x="175" y="-65.2" font-family="Helvetica,sans-Serif" font-size="11.00">varchar[2147483647]</text>
<polygon fill="#ffffff" stroke="transparent" points="10,-39 10,-57 95,-57 95,-39 10,-39"/>
<polygon fill="none" stroke="black" points="10,-39 10,-57 95,-57 95,-39 10,-39"/>
<text text-anchor="start" x="13" y="-45.2" font-family="Helvetica,sans-Serif" font-size="11.00">&lt; 0</text>
<polygon fill="#ffffff" stroke="transparent" points="95,-39 95,-57 172,-57 172,-39 95,-39"/>
<polygon fill="none" stroke="black" points="95,-39 95,-57 172,-57 172,-39 95,-39"/>
<text text-anchor="start" x="162" y="-45.2" font-family="Helvetica,sans-Serif" font-size="11.00"> &#160;</text>
<polygon fill="#ffffff" stroke="transparent" points="172,-39 172,-57 284,-57 284,-39 172,-39"/>
<polygon fill="none" stroke="black" points="172,-39 172,-57 284,-57 284,-39 172,-39"/>
<text text-anchor="start" x="265" y="-45.2" font-family="Helvetica,sans-Serif" font-size="11.00">1 &gt;</text>
<polygon fill="none" stroke="black" stroke-width="2" points="9,-38 9,-300 285,-300 285,-38 9,-38"/>
</a>
</g>
</g>
<!-- reviews&#45;&gt;users -->
<g id="edge1" class="edge">
<title>reviews:w&#45;&gt;users:e</title>
<path fill="none" stroke="black" d="M319.49,-266C308.18,-266 300.99,-266 285,-266"/>
<polygon fill="black" stroke="black" points="326,-266 334,-269.6 330,-266 334,-266 334,-266 334,-266 330,-266 334,-262.4 326,-266 326,-266"/>
<ellipse fill="none" stroke="black" cx="322.8" cy="-266" rx="3.2" ry="3.2"/>
</g>
</g>
</svg>
