<?xml version="1.0" encoding="UTF-8" standalone="no"?>
<!DOCTYPE svg PUBLIC "-//W3C//DTD SVG 1.1//EN"
 "http://www.w3.org/Graphics/SVG/1.1/DTD/svg11.dtd">
<!-- Generated by graphviz version 2.47.1 (20210515.0534)
 -->
<!-- Title: twoDegreesRelationshipsDiagram Pages: 1 -->
<svg width="441pt" height="392pt"
 viewBox="0.00 0.00 441.00 392.00" xmlns="http://www.w3.org/2000/svg" xmlns:xlink="http://www.w3.org/1999/xlink">
<g id="graph0" class="graph" transform="scale(1 1) rotate(0) translate(4 388)">
<title>twoDegreesRelationshipsDiagram</title>
<polygon fill="#ffffff" stroke="transparent" points="-4,4 -4,-388 437,-388 437,4 -4,4"/>
<text text-anchor="middle" x="73.5" y="-7.2" font-family="Helvetica,sans-Serif" font-size="11.00">Generated by SchemaSpy</text>
<!-- reviews -->
<g id="node1" class="node">
<title>reviews</title>
<g id="a_node1"><a xlink:href="../../tables/reviews.html" xlink:title="reviews" target="_top">
<polygon fill="#ffffff" stroke="transparent" points="335,-249 335,-373 425,-373 425,-249 335,-249"/>
<polygon fill="#f5f5f5" stroke="transparent" points="335,-351 335,-373 425,-373 425,-351 335,-351"/>
<polygon fill="none" stroke="black" points="335,-351 335,-373 425,-373 425,-351 335,-351"/>
<text text-anchor="start" x="339.5" y="-360.2" font-family="Helvetica,sans-Serif" font-weight="bold" font-size="11.00">reviews</text>
<text text-anchor="start" x="386" y="-359.2" font-family="Helvetica,sans-Serif" font-size="11.00">[table]</text>
<polygon fill="none" stroke="black" points="335,-329 335,-351 425,-351 425,-329 335,-329"/>
<image xlink:href="../../images/primaryKeys.png" width="11px" height="12px" preserveAspectRatio="xMinYMin meet" x="340" y="-346"/>
<text text-anchor="start" x="356" y="-337.2" font-family="Helvetica,sans-Serif" font-size="11.00">id</text>
<polygon fill="#ffffff" stroke="transparent" points="335,-307 335,-329 425,-329 425,-307 335,-307"/>
<polygon fill="none" stroke="black" points="335,-307 335,-329 425,-329 425,-307 335,-307"/>
<image xlink:href="../../images/foreignKeys.png" width="11px" height="12px" preserveAspectRatio="xMinYMin meet" x="340" y="-324"/>
<text text-anchor="start" x="356" y="-315.2" font-family="Helvetica,sans-Serif" font-size="11.00">catalog_id</text>
<polygon fill="#ffffff" stroke="transparent" points="335,-285 335,-307 425,-307 425,-285 335,-285"/>
<polygon fill="none" stroke="black" points="335,-285 335,-307 425,-307 425,-285 335,-285"/>
<image xlink:href="../../images/foreignKeys.png" width="11px" height="12px" preserveAspectRatio="xMinYMin meet" x="340" y="-302"/>
<text text-anchor="start" x="356" y="-293.2" font-family="Helvetica,sans-Serif" font-size="11.00">user_id</text>
<polygon fill="none" stroke="black" points="335,-267 335,-285 425,-285 425,-267 335,-267"/>
<text text-anchor="start" x="338" y="-273.2" font-family="Helvetica,sans-Serif" font-size="11.00">...</text>
<polygon fill="#ffffff" stroke="transparent" points="335,-249 335,-267 378,-267 378,-249 335,-249"/>
<polygon fill="none" stroke="black" points="335,-249 335,-267 378,-267 378,-249 335,-249"/>
<text text-anchor="start" x="338" y="-255.2" font-family="Helvetica,sans-Serif" font-size="11.00">&lt; 2</text>
<polygon fill="#ffffff" stroke="transparent" points="378,-249 378,-267 401,-267 401,-249 378,-249"/>
<polygon fill="none" stroke="black" points="378,-249 378,-267 401,-267 401,-249 378,-249"/>
<text text-anchor="start" x="391" y="-255.2" font-family="Helvetica,sans-Serif" font-size="11.00"> &#160;</text>
<polygon fill="#ffffff" stroke="transparent" points="401,-249 401,-267 425,-267 425,-249 401,-249"/>
<polygon fill="none" stroke="black" points="401,-249 401,-267 425,-267 425,-249 401,-249"/>
<text text-anchor="start" x="415" y="-255.2" font-family="Helvetica,sans-Serif" font-size="11.00"> &#160;</text>
</a>
</g>
</g>
<!-- catalogs -->
<g id="node2" class="node">
<title>catalogs</title>
<g id="a_node2"><a xlink:href="../../tables/catalogs.html" xlink:title="catalogs" target="_top">
<polygon fill="#ffffff" stroke="transparent" points="100.5,-322 100.5,-380 193.5,-380 193.5,-322 100.5,-322"/>
<polygon fill="#f5f5f5" stroke="transparent" points="101,-358 101,-380 194,-380 194,-358 101,-358"/>
<polygon fill="none" stroke="black" points="101,-358 101,-380 194,-380 194,-358 101,-358"/>
<text text-anchor="start" x="105.5" y="-367.2" font-family="Helvetica,sans-Serif" font-weight="bold" font-size="11.00">catalogs</text>
<text text-anchor="start" x="155" y="-366.2" font-family="Helvetica,sans-Serif" font-size="11.00">[table]</text>
<polygon fill="none" stroke="black" points="101,-340 101,-358 194,-358 194,-340 101,-340"/>
<text text-anchor="start" x="104" y="-346.2" font-family="Helvetica,sans-Serif" font-size="11.00">...</text>
<polygon fill="#ffffff" stroke="transparent" points="101,-322 101,-340 141,-340 141,-322 101,-322"/>
<polygon fill="none" stroke="black" points="101,-322 101,-340 141,-340 141,-322 101,-322"/>
<text text-anchor="start" x="104" y="-328.2" font-family="Helvetica,sans-Serif" font-size="11.00">&lt; 2</text>
<polygon fill="#ffffff" stroke="transparent" points="141,-322 141,-340 163,-340 163,-322 141,-322"/>
<polygon fill="none" stroke="black" points="141,-322 141,-340 163,-340 163,-322 141,-322"/>
<text text-anchor="start" x="153" y="-328.2" font-family="Helvetica,sans-Serif" font-size="11.00"> &#160;</text>
<polygon fill="#ffffff" stroke="transparent" points="163,-322 163,-340 194,-340 194,-322 163,-322"/>
<polygon fill="none" stroke="black" points="163,-322 163,-340 194,-340 194,-322 163,-322"/>
<text text-anchor="start" x="175" y="-328.2" font-family="Helvetica,sans-Serif" font-size="11.00">1 &gt;</text>
</a>
</g>
</g>
<!-- reviews&#45;&gt;catalogs -->
<g id="edge1" class="edge">
<title>reviews:w&#45;&gt;catalogs:e</title>
<path fill="none" stroke="black" d="M319.39,-318.59C268.33,-322.88 253.1,-349 195,-349"/>
<polygon fill="black" stroke="black" points="326.01,-318.32 334.15,-321.6 330,-318.16 334,-318 334,-318 334,-318 330,-318.16 333.85,-314.4 326.01,-318.32 326.01,-318.32"/>
<ellipse fill="none" stroke="black" cx="322.81" cy="-318.45" rx="3.2" ry="3.2"/>
</g>
<!-- users -->
<g id="node3" class="node">
<title>users</title>
<g id="a_node3"><a xlink:href="../../tables/users.html" xlink:title="users" target="_top">
<polygon fill="#ffffff" stroke="transparent" points="8,-37 8,-301 286,-301 286,-37 8,-37"/>
<polygon fill="#f5f5f5" stroke="transparent" points="10,-277 10,-299 284,-299 284,-277 10,-277"/>
<polygon fill="none" stroke="black" points="10,-277 10,-299 284,-299 284,-277 10,-277"/>
<text text-anchor="start" x="13.5" y="-286.2" font-family="Helvetica,sans-Serif" font-weight="bold" font-size="11.00">users</text>
<text text-anchor="start" x="245" y="-285.2" font-family="Helvetica,sans-Serif" font-size="11.00">[table]</text>
<polygon fill="none" stroke="black" points="10,-255 10,-277 172,-277 172,-255 10,-255"/>
<image xlink:href="../../images/primaryKeys.png" width="11px" height="12px" preserveAspectRatio="xMinYMin meet" x="15" y="-272"/>
<text text-anchor="start" x="30" y="-263.2" font-family="Helvetica,sans-Serif" font-size="11.00">id</text>
<polygon fill="none" stroke="black" points="172,-255 172,-277 284,-277 284,-255 172,-255"/>
<text text-anchor="start" x="175" y="-263.2" font-family="Helvetica,sans-Serif" font-size="11.00">bigserial[19]</text>
<polygon fill="#ffffff" stroke="transparent" points="10,-233 10,-255 172,-255 172,-233 10,-233"/>
<polygon fill="none" stroke="black" points="10,-233 10,-255 172,-255 172,-233 10,-233"/>
<text text-anchor="start" x="30" y="-241.2" font-family="Helvetica,sans-Serif" font-size="11.00">email</text>
<polygon fill="none" stroke="black" points="172,-233 172,-255 284,-255 284,-233 172,-233"/>
<text text-anchor="start" x="175" y="-241.2" font-family="Helvetica,sans-Serif" font-size="11.00">varchar[2147483647]</text>
<polygon fill="none" stroke="black" points="10,-211 10,-233 172,-233 172,-211 10,-211"/>
<text text-anchor="start" x="30" y="-219.2" font-family="Helvetica,sans-Serif" font-size="11.00">encrypted_password</text>
<polygon fill="none" stroke="black" points="172,-211 172,-233 284,-233 284,-211 172,-211"/>
<text text-anchor="start" x="175" y="-219.2" font-family="Helvetica,sans-Serif" font-size="11.00">varchar[2147483647]</text>
<polygon fill="#ffffff" stroke="transparent" points="10,-189 10,-211 172,-211 172,-189 10,-189"/>
<polygon fill="none" stroke="black" points="10,-189 10,-211 172,-211 172,-189 10,-189"/>
<text text-anchor="start" x="30" y="-197.2" font-family="Helvetica,sans-Serif" font-size="11.00">reset_password_token</text>
<polygon fill="none" stroke="black" points="172,-189 172,-211 284,-211 284,-189 172,-189"/>
<text text-anchor="start" x="175" y="-197.2" font-family="Helvetica,sans-Serif" font-size="11.00">varchar[2147483647]</text>
<polygon fill="none" stroke="black" points="10,-167 10,-189 172,-189 172,-167 10,-167"/>
<text text-anchor="start" x="30" y="-175.2" font-family="Helvetica,sans-Serif" font-size="11.00">reset_password_sent_at</text>
<polygon fill="none" stroke="black" points="172,-167 172,-189 284,-189 284,-167 172,-167"/>
<text text-anchor="start" x="175" y="-175.2" font-family="Helvetica,sans-Serif" font-size="11.00">timestamp[29,6]</text>
<polygon fill="none" stroke="black" points="10,-145 10,-167 172,-167 172,-145 10,-145"/>
<text text-anchor="start" x="30" y="-153.2" font-family="Helvetica,sans-Serif" font-size="11.00">remember_created_at</text>
<polygon fill="none" stroke="black" points="172,-145 172,-167 284,-167 284,-145 172,-145"/>
<text text-anchor="start" x="175" y="-153.2" font-family="Helvetica,sans-Serif" font-size="11.00">timestamp[29,6]</text>
<polygon fill="none" stroke="black" points="10,-123 10,-145 172,-145 172,-123 10,-123"/>
<text text-anchor="start" x="30" y="-131.2" font-family="Helvetica,sans-Serif" font-size="11.00">created_at</text>
<polygon fill="none" stroke="black" points="172,-123 172,-145 284,-145 284,-123 172,-123"/>
<text text-anchor="start" x="175" y="-131.2" font-family="Helvetica,sans-Serif" font-size="11.00">timestamp[29,6]</text>
<polygon fill="none" stroke="black" points="10,-101 10,-123 172,-123 172,-101 10,-101"/>
<text text-anchor="start" x="30" y="-109.2" font-family="Helvetica,sans-Serif" font-size="11.00">updated_at</text>
<polygon fill="none" stroke="black" points="172,-101 172,-123 284,-123 284,-101 172,-101"/>
<text text-anchor="start" x="175" y="-109.2" font-family="Helvetica,sans-Serif" font-size="11.00">timestamp[29,6]</text>
<polygon fill="none" stroke="black" points="10,-79 10,-101 172,-101 172,-79 10,-79"/>
<text text-anchor="start" x="30" y="-87.2" font-family="Helvetica,sans-Serif" font-size="11.00">name</text>
<polygon fill="none" stroke="black" points="172,-79 172,-101 284,-101 284,-79 172,-79"/>
<text text-anchor="start" x="175" y="-87.2" font-family="Helvetica,sans-Serif" font-size="11.00">varchar[2147483647]</text>
<polygon fill="#ffffff" stroke="transparent" points="10,-57 10,-79 172,-79 172,-57 10,-57"/>
<polygon fill="none" stroke="black" points="10,-57 10,-79 172,-79 172,-57 10,-57"/>
<text text-anchor="start" x="30" y="-65.2" font-family="Helvetica,sans-Serif" font-size="11.00">jti</text>
<polygon fill="none" stroke="black" points="172,-57 172,-79 284,-79 284,-57 172,-57"/>
<text text-anchor="start" x="175" y="-65.2" font-family="Helvetica,sans-Serif" font-size="11.00">varchar[2147483647]</text>
<polygon fill="#ffffff" stroke="transparent" points="10,-39 10,-57 95,-57 95,-39 10,-39"/>
<polygon fill="none" stroke="black" points="10,-39 10,-57 95,-57 95,-39 10,-39"/>
<text text-anchor="start" x="13" y="-45.2" font-family="Helvetica,sans-Serif" font-size="11.00">&lt; 0</text>
<polygon fill="#ffffff" stroke="transparent" points="95,-39 95,-57 172,-57 172,-39 95,-39"/>
<polygon fill="none" stroke="black" points="95,-39 95,-57 172,-57 172,-39 95,-39"/>
<text text-anchor="start" x="162" y="-45.2" font-family="Helvetica,sans-Serif" font-size="11.00"> &#160;</text>
<polygon fill="#ffffff" stroke="transparent" points="172,-39 172,-57 284,-57 284,-39 172,-39"/>
<polygon fill="none" stroke="black" points="172,-39 172,-57 284,-57 284,-39 172,-39"/>
<text text-anchor="start" x="265" y="-45.2" font-family="Helvetica,sans-Serif" font-size="11.00">1 &gt;</text>
<polygon fill="none" stroke="black" stroke-width="2" points="9,-38 9,-300 285,-300 285,-38 9,-38"/>
</a>
</g>
</g>
<!-- reviews&#45;&gt;users -->
<g id="edge2" class="edge">
<title>reviews:w&#45;&gt;users:e</title>
<path fill="none" stroke="black" d="M319.88,-291.83C307.92,-283.59 304.55,-266 285,-266"/>
<polygon fill="black" stroke="black" points="326.33,-293.73 332.98,-299.45 330.16,-294.87 334,-296 334,-296 334,-296 330.16,-294.87 335.02,-292.55 326.33,-293.73 326.33,-293.73"/>
<ellipse fill="none" stroke="black" cx="323.26" cy="-292.83" rx="3.2" ry="3.2"/>
</g>
</g>
</svg>
